<?xml version="1.0" encoding="utf-8"?>
<!-- Generator: Adobe Illustrator 16.0.0, SVG Export Plug-In . SVG Version: 6.00 Build 0)  -->
<!DOCTYPE svg PUBLIC "-//W3C//DTD SVG 1.1//EN" "http://www.w3.org/Graphics/SVG/1.1/DTD/svg11.dtd">
<svg version="1.1" xmlns="http://www.w3.org/2000/svg" xmlns:xlink="http://www.w3.org/1999/xlink" x="0px" y="0px" width="200px"
	 height="200px" viewBox="0 0 200 200" enable-background="new 0 0 200 200" xml:space="preserve">
<g id="Layer_1" display="none">
	<g display="inline">
		<circle fill="#AAAAAA" cx="99.629" cy="99.381" r="45.859"/>
		<path fill="#404041" d="M85.587,91.762c3.382,1.328,9.782,3.623,13.042,5.071c-0.905,5.133-3.777,16.562-6.521,18.839
			c-2.475,2.055-5.954,1.571-7.988,2.138c-1.876,0.522-3.841,7.695-3.864,8.781c-0.031,1.416,3.006,4.204,4.606,5.292
			c0.934,0.634,0.363,1.057,0.363,1.057l-16.061-6.642c0,0,0.009-0.525,0.966-0.544c2.074-0.041,6.653,0.171,7.396-0.242
			c1.086-0.604,3.713-7.606,3.472-9.055c-0.242-1.449-5.495-3.864-4.227-9.359C77.752,102.848,83.535,93.693,85.587,91.762z"/>
		<path fill="#F4F5F5" d="M82.026,103.175c0,0,5.675,2.054,11.955,1.571c0.242,0.663,0.242,11.955-10.084,9.66
			C75.445,109.878,82.026,103.175,82.026,103.175z"/>
		<path fill="#404041" d="M114.568,89.95c-3.381,1.328-9.781,3.623-13.041,5.071c0.904,5.133,3.777,16.562,6.521,18.84
			c2.475,2.054,5.953,1.57,7.988,2.137c1.875,0.522,3.84,7.695,3.863,8.781c0.029,1.417-3.007,4.205-4.607,5.292
			c-0.932,0.634-0.361,1.057-0.361,1.057l16.061-6.642c0,0-0.01-0.525-0.967-0.543c-2.074-0.042-6.653,0.17-7.396-0.243
			c-1.086-0.604-3.713-7.606-3.472-9.055s5.495-3.864,4.227-9.358C122.402,101.036,116.622,91.882,114.568,89.95z"/>
		<path fill="#F4F5F5" d="M118.13,101.363c0,0-5.676,2.055-11.955,1.571c-0.241,0.664-0.241,11.955,10.084,9.66
			C124.711,108.066,118.13,101.363,118.13,101.363z"/>
		<path fill="#6D6F72" stroke="#6D6E70" stroke-miterlimit="10" d="M94.462,92.049c0,0-0.135-1.736-7.649-6.809
			c6.879,3.125,8.374,3.804,8.917,3.261c0.544-0.544-1.689-10.687-1.689-10.687s2.233,7.063,4.588,7.97
			c2.355,0.905,4.891-5.615,4.891-5.615s-2.854,7.246-2.309,8.105c0.378,0.6,3.335,0.468,4.301,0.408
			c-0.619,0.165-7.336,3.698-6.883,5.978c-0.378-1.345-1.132-3.623-4.588-2.898"/>
		<path fill="#6D6E70" stroke="#6D6F72" stroke-miterlimit="10" d="M98.921,111.735c0,0-0.068,0.804-3.846,3.154
			c3.459-1.448,4.21-1.763,4.483-1.512c0.273,0.252-0.849,4.952-0.849,4.952s1.123-3.273,2.306-3.693s2.459,2.603,2.459,2.603
			s-1.434-3.358-1.16-3.757c0.189-0.277,1.676-0.215,2.162-0.188c-0.312-0.077-3.688-1.713-3.461-2.77
			c-0.189,0.624-0.568,1.679-2.306,1.343"/>
		<polygon fill="#404041" points="127.624,93.796 99.623,68.485 71.635,93.795 66.939,88.604 99.622,59.048 132.318,88.603 		"/>
	</g>
</g>
<g id="Layer_2" display="none">
	<g display="inline">
		<circle fill="#AAAAAA" cx="99.379" cy="99.629" r="45.859"/>
		<g>
			<polygon fill="#404041" points="127.503,98.259 99.502,72.948 71.514,98.258 66.818,93.066 99.501,63.511 132.197,93.065 			"/>
			<rect x="77.651" y="107.075" fill="#404041" width="43.713" height="14.006"/>
			<g>
				<rect x="80.938" y="120.038" fill="#404041" width="5.927" height="5.771"/>
				<rect x="112.15" y="120.038" fill="#404041" width="5.927" height="5.771"/>
			</g>
			<g>
				<path fill="#404041" d="M112.302,97.152l2.325,7.153H84.389l2.325-7.153H112.302 M115.208,93.152h-31.4l-4.925,15.153h41.25
					L115.208,93.152L115.208,93.152z"/>
			</g>
			<g>
				<circle fill="#F4F5F5" cx="85.077" cy="114.078" r="2.902"/>
				<circle fill="#F4F5F5" cx="113.94" cy="114.078" r="2.902"/>
			</g>
		</g>
	</g>
</g>
<g id="Layer_3" display="none">
	<g display="inline">
		<circle fill="#AAAAAA" cx="100.129" cy="99.629" r="45.859"/>
		<g>
			<g>
				<path fill="none" stroke="#404041" stroke-width="10" stroke-miterlimit="10" d="M68.521,111.414l3.755,3.755
					c1.944,1.944,5.126,1.944,7.071,0l2.801-2.802c1.945-1.944,5.126-1.944,7.071,0l2.801,2.802c1.945,1.944,5.126,1.944,7.071,0
					l2.801-2.802c1.944-1.944,5.126-1.944,7.07,0l2.802,2.802c1.944,1.944,5.126,1.944,7.07,0l2.802-2.802
					c1.944-1.944,5.126-1.944,7.07,0.001l5.121,5.121"/>
			</g>
			<rect x="81.871" y="83.053" fill="#404041" width="4.713" height="19.799"/>
			<rect x="100.162" y="83.053" fill="#404041" width="4.713" height="19.799"/>
			<rect x="85.299" y="95.309" fill="#404041" width="16.557" height="4.713"/>
			<rect x="85.299" y="86.583" fill="#404041" width="16.557" height="4.713"/>
		</g>
	</g>
</g>
<g id="Layer_4">
	<g>
		<circle fill="#AAAAAA" cx="99.879" cy="99.629" r="90"/>
		<g>
			<g>
				<path fill="#404041" d="M150.571,87.867c-0.999,0-1.808,1.021-1.808,2.277c0,3.486,0,10.11,0,13.592
					c0,1.257,0.809,2.274,1.81,2.274c0.998,0,1.805-1.018,1.805-2.274c0-3.48,0-10.104,0-13.594
					C152.378,88.889,151.569,87.867,150.571,87.867z"/>
				<path fill="#404041" d="M49.095,87.867c-0.999,0-1.811,1.021-1.811,2.277c0,3.49,0,10.104,0.004,13.588
					c0,1.257,0.809,2.274,1.807,2.278c0.999,0,1.808-1.018,1.808-2.274c0-3.482,0-10.104,0.001-13.594
					C50.904,88.889,50.093,87.867,49.095,87.867z"/>
				<path fill="#404041" d="M71.363,67.263c-3.331,0-6.035,3.055-6.035,6.825c0,11.422,0.002,34.287,0.004,45.706
					c0,3.768,2.701,6.824,6.031,6.824c3.333,0,6.035-3.059,6.035-6.824c0-4.481,0-10.729,0-17.349c3.479,0,34.619,0,43.9,0
					c0,6.621,0,12.867,0,17.351c0,3.766,2.702,6.822,6.035,6.822s6.031-3.059,6.031-6.824c0-11.425,0-34.287,0-45.706
					c0-3.772-2.7-6.825-6.031-6.825c-3.333,0-6.035,3.051-6.035,6.825c0,4.479,0,10.725,0,17.347c-9.285,0-40.421,0-43.9,0
					c0-6.622,0-12.868,0-17.349C77.398,70.314,74.698,67.263,71.363,67.263z"/>
				<path fill="#404041" d="M141.356,76.377c-0.197,0-0.391,0-0.591,0c-2.51,0-4.548,2.032-4.548,4.546c0,7.913,0,24.119,0,32.03
					c0,2.513,2.038,4.55,4.55,4.55c0.198,0,0.396,0,0.591,0c2.513,0,4.55-2.031,4.55-4.546c0-7.909,0-24.117-0.002-32.031
					C145.908,78.413,143.869,76.377,141.356,76.377z"/>
				<path fill="#404041" d="M58.239,76.377c-0.198,0-0.397,0-0.594,0c-2.513,0-4.548,2.032-4.548,4.546c0,7.913,0,24.119,0,32.03
					c0,2.515,2.035,4.55,4.548,4.55c0.197,0,0.396,0,0.59,0c2.512,0,4.55-2.031,4.55-4.546c0-7.909,0-24.117,0-32.031
					C62.787,78.413,60.749,76.377,58.239,76.377z"/>
			</g>
		</g>
	</g>
</g>
<g id="Layer_5" display="none">
	<g display="inline">
		<circle fill="#AAAAAA" cx="99.629" cy="99.629" r="90"/>
		<g>
			<path fill="#404041" d="M65.601,122.861c-0.918,2.561,0.416,5.378,2.973,6.294c0.548,0.195,1.107,0.287,1.66,0.287
				c2.018,0,3.916-1.252,4.634-3.26l9.548-26.684c-3.106-1.266-6.029-2.899-8.714-4.862L65.601,122.861z"/>
			<path fill="#404041" d="M123.733,94.638c-2.688,1.961-5.61,3.595-8.715,4.86l9.548,26.684c0.717,2.008,2.614,3.26,4.635,3.26
				c0.55,0,1.109-0.092,1.657-0.287c2.559-0.916,3.891-3.733,2.973-6.294L123.733,94.638z"/>
			<path fill="#404041" d="M99.721,47.731c-18.851,0-37.934,5.632-37.934,16.4c0,3.599,2.162,6.606,5.7,9.041
				c2.114,5.975,5.784,11.142,10.518,15.028c2.587,2.123,5.497,3.842,8.617,5.134c2.587,1.075,5.337,1.811,8.178,2.232v45.669
				c0,2.718,2.204,4.922,4.921,4.922c2.716,0,4.92-2.204,4.92-4.922V95.567c2.838-0.421,5.585-1.157,8.172-2.23
				c3.118-1.294,6.029-3.012,8.617-5.134c4.735-3.887,8.403-9.054,10.52-15.03c3.538-2.432,5.699-5.442,5.699-9.041
				C137.648,53.364,118.57,47.731,99.721,47.731z M68.349,64.132c0-1.932,2.861-4.283,7.946-6.204l-6.796,8.479
				C68.756,65.622,68.349,64.847,68.349,64.132z M81.478,71.942c-3.168-0.784-5.811-1.741-7.889-2.761l10.802-13.492
				c3.291-0.642,7.024-1.1,11.137-1.29L81.478,71.942z M96.306,73.911c-3.394-0.127-6.535-0.44-9.396-0.886l14.972-18.691
				c3.419,0.08,6.597,0.344,9.502,0.75L96.306,73.911z M102.6,73.92l14.286-17.836c3.166,0.721,5.872,1.606,8.039,2.572
				l-11.362,14.19C110.283,73.41,106.616,73.795,102.6,73.92z M121.376,70.958l7.827-9.772c1.217,1.017,1.884,2.029,1.884,2.946
				C131.087,66.281,127.562,68.941,121.376,70.958z"/>
		</g>
	</g>
</g>
<g id="Layer_6" display="none">
	<g display="inline">
		<circle fill="#AAAAAA" cx="99.363" cy="99.629" r="90"/>
		<path fill="#404041" d="M150.862,114.662c0.361,0.491,0.446,1.075,0.237,1.761c-0.155,0.601-0.56,1.007-1.203,1.218l-17.737,5.826
			v18.579c0,0.64-0.267,1.173-0.796,1.577c-0.602,0.405-1.188,0.488-1.762,0.239l-17.724-5.704l-10.93,15.068
			c-0.419,0.518-0.937,0.782-1.592,0.782c-0.641,0-1.175-0.265-1.568-0.782L86.86,138.158l-17.738,5.704
			c-0.573,0.249-1.159,0.166-1.763-0.239c-0.516-0.404-0.794-0.938-0.794-1.577v-18.579l-17.724-5.826
			c-0.644-0.211-1.062-0.617-1.217-1.218c-0.208-0.686-0.126-1.27,0.238-1.761l10.932-15.067L47.862,84.542
			c-0.364-0.532-0.446-1.118-0.238-1.762c0.155-0.615,0.573-1.005,1.217-1.216l17.724-5.829v-18.59c0-0.643,0.278-1.173,0.794-1.565
			c0.604-0.419,1.19-0.503,1.763-0.251l17.738,5.704l10.928-15.054c0.366-0.489,0.896-0.728,1.568-0.728
			c0.699,0,1.228,0.239,1.592,0.728l10.93,15.054l17.724-5.704c0.573-0.252,1.16-0.168,1.762,0.251
			c0.529,0.392,0.796,0.923,0.796,1.565v18.59l17.737,5.829c0.644,0.21,1.048,0.601,1.203,1.216c0.209,0.644,0.124,1.23-0.237,1.762
			l-10.931,15.053L150.862,114.662L150.862,114.662z M131.586,113.168c1.846-4.306,2.77-8.836,2.77-13.573
			c0-4.738-0.924-9.254-2.77-13.571c-1.844-4.305-4.331-8.023-7.479-11.168c-3.144-3.145-6.861-5.633-11.166-7.478
			c-4.306-1.832-8.835-2.755-13.585-2.755c-4.725,0-9.255,0.923-13.558,2.755c-4.322,1.845-8.052,4.333-11.181,7.478
			C71.486,78,68.998,81.718,67.15,86.023c-1.844,4.317-2.766,8.833-2.766,13.571c0,4.737,0.922,9.268,2.766,13.573
			c1.848,4.316,4.335,8.051,7.467,11.18c3.129,3.132,6.859,5.62,11.181,7.463c4.302,1.848,8.833,2.768,13.558,2.768
			c4.75,0,9.28-0.92,13.585-2.768c4.305-1.843,8.022-4.331,11.166-7.463C127.255,121.219,129.742,117.484,131.586,113.168z"/>
	</g>
</g>
</svg>
