<svg xmlns="http://www.w3.org/2000/svg" version="1.1" x="0" y="0" width="1024" height="475.9" viewBox="0 0 1024 475.9" enable-background="new 0 0 1024 475.949" xml:space="preserve"><path fill="#7D8286" d="M251.3 351.9v-65.5l0 0h4.9l0 0h26.1c14.3 0 23.9 1.9 28.6 5.7 4.8 3.8 7.1 11.3 7.1 22.6v0.2 8.5c0 11.4-2.2 19-6.6 22.8 -4.5 3.8-13.4 5.7-26.7 5.7h-28.5l0 0H251.3zM261.1 344.8L261.1 344.8h23.5c9.9 0 16.4-1.3 19.3-3.9 2.9-2.6 4.3-8.4 4.3-17.4v-8.5c0-9-1.6-14.8-4.8-17.4 -3.2-2.6-10.2-3.9-21.2-3.9h-21.2l0 0V344.8L261.1 344.8zM360.7 352.6c-8.9 0-15-1.5-18.3-4.5 -3.3-3-5-8.5-5-16.5v-5.2c0-8 1.8-13.6 5.4-16.6 3.6-3 10.2-4.6 19.8-4.6 8.9 0 15 1.6 18.4 4.8 3.3 3.2 5 8.9 5 17.2v0.3 3.3l0 0h-39.6l0 0v0.8c0 6 1 10 3.1 12 2 2 6.2 3 12.3 3 6.4 0 10.5-0.5 12.3-1.6 1.9-1.1 2.8-3.5 2.8-7.2l0 0h9.1l0 0c0 5.7-1.8 9.6-5.5 11.7C376.9 351.5 370.3 352.6 360.7 352.6zM377.2 324.4L377.2 324.4c-0.2-4.8-1.2-8.1-3-9.8 -2-2.1-6.2-3.2-12.4-3.2 -6.2 0-10.3 1-12.3 3 -1.8 1.7-2.8 5.1-3.1 10.1l0 0H377.2L377.2 324.4zM442.9 318.3L442.9 318.3c0-2.9-0.9-4.7-2.8-5.6 -1.8-0.9-5.7-1.3-11.7-1.3 -5.6 0-9.4 0.5-11.4 1.5 -2 1-3 2.9-3 5.6 0 2.6 1 4.4 3 5.3 1.9 0.9 5.9 1.4 11.9 1.4 9.2 0.1 15.5 1.1 18.9 3 3.4 1.9 5.2 5.3 5.2 10.2 0 5.1-1.8 8.8-5.3 11 -3.6 2.2-9.5 3.3-17.9 3.3 -10.4 0-17.1-1-20.3-3 -3.2-2-4.7-6.3-4.7-12.9l0 0h8.9l0 0c0 4.2 0.9 6.8 2.7 8 1.8 1.1 6 1.7 12.6 1.7 5.9 0 9.9-0.6 12-1.7 2.1-1.1 3.2-3.2 3.2-6.2 0-2.7-1-4.5-3-5.4 -2-0.9-6.1-1.4-12.3-1.5 -9-0.1-15.2-1.1-18.6-2.9 -3.4-1.8-5-5.2-5-10 0-5.2 1.6-8.8 4.9-10.7 3.3-1.9 9.4-2.8 18.4-2.8 9.4 0 15.6 0.9 18.7 2.6 3.1 1.7 4.7 5.2 4.7 10.5l0 0H442.9L442.9 318.3zM494.4 352.6c-9 0-15.2-0.9-18.7-2.8 -3.5-1.9-5.3-5.3-5.3-10.1v-3.2c0-4.4 1.7-7.7 5.2-9.8 3.4-2.1 8.7-3.2 15.9-3.2 7.9 0 13.4 1.1 16.5 3.2 0.6 0.4 1.2 0.9 1.7 1.5l0 0v-9.3c0-2.4-1.2-4.2-3.6-5.3 -2.4-1.1-6.1-1.7-11-1.7 -5 0-8.4 0.6-10.3 1.7 -1.9 1.1-2.8 3.2-2.8 6.2l0 0h-9.2l0 0c0-5.4 1.6-9.1 4.9-11.1 3.3-2 9.3-3 18-3 7.6 0 13.4 1.1 17.2 3.3 3.9 2.2 5.8 5.5 5.8 9.9v33.1l0 0 0 0h-8.3l0 0v-4l0 0 -1.1 1C506.4 351.4 501.4 352.6 494.4 352.6L494.4 352.6zM495.1 329.7c-6.2 0-10.3 0.5-12.5 1.6 -2.1 1.1-3.2 3.1-3.2 6.2v1.2c0 3 1.1 5.1 3.2 6.1 2.2 1 6.3 1.6 12.5 1.6 5.3 0 9.2-0.6 11.5-2 2.4-1.3 3.5-3.4 3.5-6.3 0-2.9-1.2-5-3.5-6.3C504.3 330.3 500.5 329.7 495.1 329.7L495.1 329.7zM539.6 351.9v-46.2l0 0h4.3 4.4l0 0v5l0 0 0 0 0.7-0.7c3.3-3.3 8.1-4.9 14.5-4.9 5.7 0 9.8 1.1 12.4 3.2 2.5 2.2 3.8 5.7 3.8 10.6v3h-9.2v-3.5c0-2.7-0.6-4.5-1.9-5.6 -1.3-1.1-3.5-1.6-6.6-1.6 -4.3 0-7.5 1.1-9.7 3.3 -2.2 2.2-3.3 5.6-3.5 10.3l0 0v27.1l0 0h-4.6H539.6L539.6 351.9zM597.2 351.9v-46.2l0 0h4.3 4.4l0 0v5l0 0 0 0 0.7-0.7c3.3-3.3 8.1-4.9 14.5-4.9 5.7 0 9.8 1.1 12.4 3.2 2.5 2.2 3.8 5.7 3.8 10.6v3h-9.2v-3.5c0-2.7-0.6-4.5-1.9-5.6 -1.3-1.1-3.5-1.6-6.6-1.6 -4.3 0-7.5 1.1-9.7 3.3 -2.2 2.2-3.3 5.6-3.5 10.3l0 0v27.1l0 0h-4.6H597.2L597.2 351.9zM678.1 352.6c-9.5 0-16-1.5-19.6-4.5 -3.6-3-5.4-8.5-5.4-16.5v-5.2c0-8 1.8-13.6 5.4-16.6 3.6-3 10.1-4.6 19.6-4.6 9.5 0 16 1.5 19.6 4.6 3.6 3 5.4 8.6 5.4 16.6v5.2c0 8-1.8 13.5-5.4 16.5C694.2 351.1 687.6 352.6 678.1 352.6L678.1 352.6zM678.1 346.4c6.4 0 10.6-1 12.8-3 2.1-2 3.2-6 3.2-12v-5.2c0-6-1.1-10-3.2-12 -2.1-2-6.4-3-12.8-3 -6.4 0-10.6 1-12.8 3 -2.1 2-3.2 6-3.2 12v5.2c0 6 1.1 10 3.2 12C667.5 345.4 671.7 346.4 678.1 346.4zM722.2 351.9v-65.5l0 0h4.6 4.6l0 0v65.5l0 0h-4.5H722.2zM751.6 351.9v-65.5l0 0h4.6 4.6l0 0v65.5l0 0h-4.6H751.6zM804.6 352.6c-9.5 0-16-1.5-19.6-4.5 -3.6-3-5.4-8.5-5.4-16.5v-5.2c0-8 1.8-13.6 5.4-16.6 3.6-3 10.1-4.6 19.6-4.6 9.5 0 16 1.5 19.6 4.6 3.6 3 5.4 8.6 5.4 16.6v5.2c0 8-1.8 13.5-5.4 16.5C820.6 351.1 814.1 352.6 804.6 352.6L804.6 352.6zM804.6 346.4c6.4 0 10.6-1 12.8-3 2.1-2 3.2-6 3.2-12v-5.2c0-6-1.1-10-3.2-12 -2.1-2-6.4-3-12.8-3 -6.4 0-10.6 1-12.8 3 -2.1 2-3.2 6-3.2 12v5.2c0 6 1.1 10 3.2 12C794 345.4 798.2 346.4 804.6 346.4zM885.3 318.3L885.3 318.3c0-2.9-0.9-4.7-2.8-5.6 -1.8-0.9-5.7-1.3-11.7-1.3 -5.6 0-9.4 0.5-11.4 1.5 -2 1-3 2.9-3 5.6 0 2.6 1 4.4 3 5.3 1.9 0.9 5.9 1.4 11.8 1.4 9.2 0.1 15.5 1.1 19 3 3.4 1.9 5.1 5.3 5.1 10.2 0 5.1-1.8 8.8-5.3 11 -3.6 2.2-9.5 3.3-17.9 3.3 -10.4 0-17.1-1-20.3-3 -3.2-2-4.8-6.3-4.8-12.9l0 0h8.9l0 0c0 4.2 0.9 6.8 2.7 8 1.8 1.1 6 1.7 12.6 1.7 5.9 0 9.9-0.6 12.1-1.7 2.1-1.1 3.2-3.2 3.2-6.2 0-2.7-1-4.5-3-5.4 -2-0.9-6.1-1.4-12.3-1.5 -9-0.1-15.2-1.1-18.6-2.9 -3.4-1.8-5-5.2-5-10 0-5.2 1.6-8.8 4.9-10.7 3.3-1.9 9.4-2.8 18.4-2.8 9.4 0 15.6 0.9 18.7 2.6 3.1 1.7 4.7 5.2 4.7 10.5l0 0H885.3L885.3 318.3z"/><path fill="#7D8286" d="M250.6 427v-61.1l0 0h4.6 4.6l0 0v61.1l0 0h-4.6H250.6zM280.3 427v-43.1l0 0h3.9 3.8l0 0v6l0 0 0 0c0.6-0.8 1.3-1.4 2-2 3.7-3.1 9.1-4.6 16.2-4.6 6.4 0 11 1.2 13.9 3.6 2.8 2.4 4.2 6.4 4.2 11.8v28.2l0 0h-4.2 -4.3l0 0v-28.4c0-3.5-0.8-6-2.5-7.5 -1.7-1.4-4.6-2.2-8.8-2.2 -5.1 0-9 1-11.5 3.1 -2.6 2.1-3.9 5.3-4.1 9.6l0 0v25.3l0 0h-4.2H280.3L280.3 427zM342.4 427v-43.1l0 0h4 4.1l0 0v5.5l0 0 0 0 1.6-1.5c3.7-3.1 9.1-4.6 16.1-4.6 6.4 0 11 1.5 13.8 4.4 0.9 0.9 1.6 2 2.2 3.2l0 0c0.8-1.1 1.7-2.1 2.8-3 3.7-3.1 9.2-4.6 16.5-4.6 6.4 0 11 1.2 13.8 3.6 2.8 2.4 4.2 6.3 4.2 11.8v28.3l0 0h-4.2 -4.3l0 0v-28.5c0-3.5-0.8-6-2.5-7.4 -1.7-1.4-4.6-2.1-8.7-2.1 -5.3 0-9.2 1-11.7 3.1 -2.5 2.1-3.8 5.3-3.8 9.6l0 0v25.3l0 0h-4.3 -4.3l0 0V398.6c0-3.5-0.8-6-2.5-7.4 -1.7-1.4-4.6-2.2-8.7-2.2 -5.1 0-9 1-11.5 3.1 -2.5 2.1-3.9 5.3-4 9.6l0 0v25.3l0 0h-4.2H342.4L342.4 427zM462.2 427.6c-8.8 0-15-1.4-18.3-4.2 -3.3-2.8-5-8-5-15.4v-4.8c0-7.5 1.7-12.7 5-15.5 3.4-2.8 9.5-4.3 18.3-4.3 8.9 0 15 1.4 18.3 4.3 3.3 2.8 5 8 5 15.5v4.8c0 7.5-1.7 12.6-5 15.4C477.1 426.2 471 427.6 462.2 427.6zM462.2 421.8c6 0 9.9-0.9 11.9-2.8 2-1.9 3-5.6 3-11.2v-4.8c0-5.6-1-9.3-3-11.2 -2-1.8-5.9-2.8-11.9-2.8 -6 0-9.9 0.9-11.9 2.8 -2 1.9-3 5.6-3 11.2v4.8c0 5.6 1 9.3 3 11.2C452.2 420.9 456.2 421.8 462.2 421.8zM503.1 365.9L503.1 365.9h4.3 4.3l0 0v22.8l0 0 0.8-0.8c2.9-3 8.1-4.5 15.6-4.5 7.5 0 12.7 1.4 15.6 4.3 2.9 2.9 4.4 8 4.4 15.4v4.8c0 7.3-1.5 12.5-4.4 15.3 -2.9 2.9-8.1 4.3-15.6 4.3 -7.4 0-12.6-1.5-15.6-4.5l-0.8-0.8 0 0v4.7l0 0h-8.5l0 0V365.9L503.1 365.9zM528.1 421.7c4.5 0 7.6-0.9 9.1-2.8 1.6-1.9 2.4-5.5 2.4-11v-4.8c0-5.5-0.9-9.1-2.7-11 -1.8-1.9-5.3-2.8-10.5-2.8 -5.8 0-9.7 1-11.7 3 -2 2-3 5.8-3 11.5l0 0v3.6l0 0c0 5.7 1.1 9.5 3.4 11.5C517.3 420.7 521.7 421.7 528.1 421.7L528.1 421.7zM566.3 427v-43.1l0 0h4.2 4.3l0 0v43.1l0 0h-4.2H566.3L566.3 427zM566.2 365.9h8.7v7.1h-8.7V365.9zM593.8 427v-61.1l0 0h4.3 4.3l0 0v61.1l0 0h-4.2H593.8L593.8 427zM621.2 427v-43.1l0 0h4.2 4.3l0 0v43.1l0 0h-4.2H621.2L621.2 427zM621.1 365.9h8.7v7.1h-8.7V365.9zM669.7 427.6c-8.4 0-14.2-0.9-17.4-2.6 -3.3-1.8-4.9-4.9-4.9-9.4v-3c0-4.2 1.6-7.2 4.8-9.2 3.2-2 8.2-3 14.8-3 7.4 0 12.5 1 15.4 3 0.6 0.4 1.1 0.9 1.6 1.4l0 0v-8.7c0-2.2-1.1-3.9-3.3-4.9 -2.2-1.1-5.6-1.6-10.3-1.6 -4.6 0-7.8 0.5-9.6 1.6 -1.7 1.1-2.6 3-2.6 5.8l0 0h-8.5l0 0c0-5 1.5-8.5 4.6-10.4 3.1-1.9 8.7-2.8 16.8-2.8 7.1 0 12.5 1 16.1 3.1 3.6 2.1 5.4 5.1 5.4 9.2v30.9l0 0 0 0h-7.7l0 0v-3.8l0 0 -1 1C680.9 426.4 676.2 427.6 669.7 427.6L669.7 427.6zM670.4 406.2c-5.8 0-9.6 0.5-11.6 1.5 -2 1-3 2.9-3 5.7v1.1c0 2.8 1 4.7 3 5.7 2 1 5.9 1.5 11.6 1.5 5 0 8.6-0.6 10.8-1.8 2.2-1.2 3.3-3.2 3.3-5.9 0-2.7-1.1-4.7-3.3-5.9C679 406.8 675.4 406.2 670.4 406.2L670.4 406.2zM712 427v-43.1l0 0h4 4.1l0 0v4.7l0 0 0 0 0.7-0.7c3.1-3.1 7.6-4.6 13.5-4.6 5.3 0 9.2 1 11.6 3 2.4 2 3.6 5.3 3.6 9.9v2.8h-8.5v-3.2c0-2.5-0.6-4.2-1.8-5.3 -1.2-1-3.3-1.5-6.2-1.5 -4 0-7 1-9.1 3.1 -2 2.1-3.1 5.3-3.3 9.6l0 0v25.3l0 0h-4.2H712L712 427zM765.4 427v-43.1l0 0h4.2 4.3l0 0v43.1l0 0h-4.2H765.4zM765.3 365.9h8.7v7.1h-8.7V365.9zM814.9 427.6c-8.8 0-15-1.4-18.3-4.2 -3.3-2.8-5-8-5-15.4v-4.8c0-7.5 1.7-12.7 5-15.5 3.4-2.8 9.5-4.3 18.3-4.3 8.8 0 14.9 1.4 18.3 4.3 3.3 2.8 5 8 5 15.5v4.8c0 7.5-1.7 12.6-5 15.4C829.9 426.2 823.8 427.6 814.9 427.6zM814.9 421.8c6 0 9.9-0.9 11.9-2.8 2-1.9 3-5.6 3-11.2v-4.9c0-5.6-1-9.3-3-11.2 -2-1.8-5.9-2.8-11.9-2.8 -6 0-9.9 0.9-11.9 2.8 -2 1.9-3 5.6-3 11.2v4.9c0 5.6 1 9.3 3 11.2C805 420.9 809 421.8 814.9 421.8zM890.2 395.6L890.2 395.6c0-2.7-0.9-4.4-2.6-5.2 -1.7-0.8-5.3-1.2-10.9-1.2 -5.2 0-8.7 0.5-10.6 1.4 -1.9 0.9-2.8 2.7-2.8 5.2 0 2.4 0.9 4.1 2.8 4.9 1.8 0.8 5.5 1.3 11.1 1.3 8.6 0.1 14.4 1 17.7 2.8 3.2 1.7 4.8 4.9 4.8 9.5 0 4.8-1.7 8.2-5 10.2 -3.3 2-8.9 3.1-16.7 3.1 -9.7 0-16-0.9-19-2.8 -3-1.9-4.4-5.9-4.4-12l0 0h8.3l0 0c0 3.9 0.8 6.4 2.5 7.4 1.6 1.1 5.6 1.6 11.7 1.6 5.5 0 9.3-0.5 11.2-1.5 2-1 3-3 3-5.8 0-2.5-0.9-4.2-2.8-5.1 -1.9-0.9-5.7-1.3-11.5-1.4 -8.4-0.1-14.2-1-17.3-2.7 -3.1-1.7-4.7-4.8-4.7-9.3 0-4.9 1.5-8.2 4.6-10 3.1-1.8 8.8-2.6 17.2-2.6 8.7 0 14.6 0.8 17.4 2.5 2.9 1.6 4.4 4.9 4.4 9.8l0 0H890.2L890.2 395.6z"/><path fill="#C22825" d="M362.7 197.8c-19.7 10.4-40.2 22.2-40.8 35.9 0 0.1 0 0.2 0 0.3 0 0 0.4 1.3 1.2 1.9 0 0 1.9 1.2 3.2 1.8 0.1 0 3.4 1.1 5.5 1.5 -0.1 0 3.6 0.6 5.8 0.7 0 0 2.3 0.1 3.3 0.1 -0.1 0 2.4-0.1 3.5-0.2 1.4-0.2 2.6-0.4 3.7-0.7 1.4-0.4 2.8-0.8 4.1-1.3 4.1-1.5 8.1-3 12.2-4.4 12.9-4.8 25.8-9.6 38.9-14.4 23.6-8.6 47-17.4 72.1-25.6 1.7-0.5 3.4-1.1 5.1-1.6 11.2-3.9 22-7.9 32.8-12 15.1-5.7 113.7-47.7 55.6-25.2 -19.5 7.6-38 15.4-57.7 22.9 -2.1 0.8-18 5.4-29.1 9.6 -2.3 0.9-4.6 1.7-7 2.6 -27.9 8.5-51.9 18.4-76.9 27.8 -12.8 4.8-25.6 9.7-38.6 14.5 -3.3 1.2-6.6 2.4-10 3.6 0.1-0.5 0.2-0.9 0.3-1.3 2.7-0.9 5.4-1.9 8-2.8 4.4-1.5 8.7-3 13.1-4.5 9-3.1 17.6-6.4 26.3-9.7 24.8-9.4 48.3-19.5 76.2-27.9 40.4-14.3 77.1-29.7 116-44.5 16.8-6.4 118.1-49.2 53.5-23.2 -16.7 6.7-33.9 13.5-52.3 19.2 -0.1 0 47.1-18.7 61.7-24.5 38.8-15.4 74.8-31.6 121.6-44.5 3.6-1 29.1-8.7 20.8-6.7 -85.7 20.7-134.3 52.8-212 75.6 -19.7 2.9 4.7-2.7 11.5-5.4 12.8-5.1 126.4-51 126.3-51 -95.7 23.7-155.9 62-236.1 90.8 -8.7 3.1-17.4 6.2-26.3 9.2 -29.1 8.1-53 18.3-77.9 27.8 -4.7 1.8-9.3 3.5-14 5.3 1.4-1 2.9-1.9 4.3-2.9 11.8-7.9 25.2-15.4 39.2-22.7 23.1-12.2 45.1-24.6 66.6-37.2 30.4-17.8 72.1-36.9 86-58 0 0-6.8 4.4-17.7 11.5 8-6.2 15.5-12.5 22.4-18.9 4-3.8 8.3-7.5 12.6-11.3 10-8.7 16.8-18.1 21.7-27.6 1.6-2.5 3-5.1 3.3-7.7 0.1-0.9 0-1.9-0.6-2.9 -0.3-0.5-0.7-1-1.3-1.5 -0.8-0.6-1.8-1.2-3.1-1.8 -1.6-0.7-3.7-1.2-5.9-1.6 -2.1-0.4-4.3-0.6-6.4-0.7 -2.9-0.1-5.6 0.1-8 0.4 -4.2 0.6-7.6 1.6-10.9 2.6 -15.8 4.8-27.5 10.9-43.5 15.6 -143.1 42.5-282.9 86.9-396.6 138.5 -9.8 4.4-61.5 33.4-86.5 47.5 -13.1 6.8-28.2 14.6-28.8 22.3 5.3-0.4 29.3-16.7 38.4-23.6 4.2-2.4 8.6-4.9 10.4-5.9 10.9-6 22.3-11.9 34.1-17.7 -7 3.8-13.5 7.6-19.5 11.5l242.4-98.4c70.2-24.2 145.1-46.8 221.6-68.9 15.8-4.5 27.4-10.4 42.7-15 -0.6 1.5-1.5 2.9-2.4 4.4 -14.9 27.6-48.9 52.6-85.1 76.3 -33 21.5-70.2 42.1-110.2 62C373.4 191.7 331.5 214.3 362.7 197.8L362.7 197.8zM323.1 236L323.1 236C323.1 236 323.1 236 323.1 236zM326.3 237.8L326.3 237.8 326.3 237.8zM337.7 240h0H337.7zM348.9 235.8c-0.5 0.2-1.1 0.4-1.6 0.5 -1.2 0.4-2.4 0.8-3.8 1.2 -0.7 0.2-1.5 0.4-2.4 0.5 -0.2 0-2 0.1-1.8 0.1 -0.1 0-2.1 0-2 0 -0.7 0-2.7-0.3-2.8-0.3 -0.8-0.2-3.7-0.9-3.5-0.9 -0.5-0.2-2.1-1-2.1-1 -0.1-0.1-0.9-1.3-0.9-1.3 0.1-1.1 0.3-2.1 0.6-3.2 0.2 0 0.5-0.1 0.6-0.1 0.2 0 1.5-0.1 2.2-0.2 -0.4 1.2-0.7 2.4-0.9 3.7 0 0 0.2 0.5 0.5 0.8 0 0 0.8 0.5 1.3 0.7 0.1 0 1.4 0.5 2.2 0.6 -0.1 0 1.4 0.2 2.3 0.3 0 0 0.9 0 1.3 0 0 0 1 0 1.5-0.1 0.8-0.1 1.4-0.2 2-0.4 1.3-0.3 2.5-0.7 3.7-1.1 1-0.3 1.9-0.6 2.9-0.9C348.4 235 348.7 235.4 348.9 235.8L348.9 235.8zM328.6 231.3c4.9-16.8 37.3-31.6 62.2-44.2 11-5.6 21.8-11.2 32.9-16.8 10.5-5.3 61.2-34.6 27.4-14.5 -18.3 10.9-37.7 21.4-57.7 31.9 -23.6 12.3-54.9 26.4-61.7 42.5 -0.6 0.2-1.1 0.4-1.7 0.6C329.7 231 329.2 231.2 328.6 231.3L328.6 231.3zM330.6 234.9v0V234.9zM331.1 235.6v0C331.1 235.6 331.1 235.6 331.1 235.6zM332.4 236.3h0C332.3 236.3 332.3 236.3 332.4 236.3zM336.9 237.2h0H336.9zM338.2 237.3h0H338.2zM443.3 171.7c-13.5 8.1-25.7 15.1-34.8 19.8 -8.5 4.4-16.7 8.9-24.5 13.5 7.8-5.2 16-10.3 22.9-13.9C419.1 184.7 431.3 178.2 443.3 171.7L443.3 171.7zM164.9 182.6c69.3-29.1 147.3-55.8 227.5-81.4 10.2-3.2 120.7-36.4 120.6-36.3 -97.4 29.2-191.4 59.6-279.4 91.9C210.8 165.1 187.4 173.7 164.9 182.6L164.9 182.6zM545.3 96.4c-29.8 24.5-67.8 47.4-108 69.6 -0.1 0 72.9-43.9 97.5-62.6C538 101 542.3 98.8 545.3 96.4L545.3 96.4zM478.6 72.4c18.2-5.6 36.7-11.1 55.2-16.5 16.1-4.7 27.9-10.8 43.7-15.6 2.6-0.8 5.4-1.6 8.7-2.1 0.9-0.1 2-0.2 3.1-0.2 0.4 0 0.7 0 1.1 0.1 0.3 0.1 0.6 0.1 0.8 0.2 0.3 0.1 0.6 0.3 0.8 0.4 0.3 0.2 0.4 0.5 0.6 0.7 0.4 0.7 0.4 1.4 0.4 2.1 -0.3 2.5-1.7 4.9-3.2 7.3 -5.7 10.9-48.8 57.2-16.7 21.2 6.1-6.9 11.9-14 15.9-21.2 1.5-2.3 3-4.7 3.3-7.3 0.1-0.7 0-1.3-0.4-2 -0.1-0.2-0.3-0.4-0.5-0.6 -0.1-0.1-0.3-0.2-0.6-0.4 -0.1-0.1-0.3-0.1-0.5-0.1 -0.2 0-0.5-0.1-0.7-0.1 -1 0-2 0.1-2.8 0.2 -0.9 0.1-1.7 0.3-2.4 0.4 -2.2 0.5-4.2 1-6.1 1.6 -15.8 4.8-27.5 10.9-43.6 15.7 -7.5 2.2-105.8 31.9-105.7 31.8C445.3 82.7 462.3 77.7 478.6 72.4L478.6 72.4zM595.7 51.6c0 0-15.1 20.7-25 30.2 -54.5 51.9 11.1-14 23.6-30.5C595.4 49.9 595.6 51.7 595.7 51.6L595.7 51.6z"/><path fill="#C22825" d="M733.1 86.2c-0.9 0.3-1.9 0.6-2.8 0.9 20.7-7.6 44-14.4 67.9-20.9 4-1.1 11.5-4.3 17.7-4.4 -3.2 2.8-18.4 5.2-25.1 7C785.3 70.2 733 86.2 733.1 86.2L733.1 86.2z"/><path fill="#C22825" d="M664.3 112.4c49-20.4 0 0.1 0 0C664.3 112.4 664.3 112.4 664.3 112.4z"/><path fill="#C22825" d="M423.9 178.5c-7.2 3.8-14.5 7.7-21.8 11.5 -7.9 4.1-16.8 8.5-25.3 13.1 1.2-0.7 2.4-1.4 3.5-2 6.6-3.8 13.5-7.6 20.6-11.4 33-17.4 64.9-35 94.4-53.2 20-12.4 9.6-5-1.1 2L423.9 178.5 423.9 178.5zM376.9 203c-7 3.8-13.7 7.8-19.4 11.9C363.5 210.8 370.4 206.8 376.9 203zM357.5 214.9c-6.8 5-12.1 10.2-14.5 15.6 1.8-0.6 3.5-1.3 5.3-1.9 13-4.8 25.8-9.6 38.7-14.4 25.2-9.4 49.2-19.6 78.3-27.7l24.1-8.5c-8 2.9-16 5.8-24.3 8.6 -28.8 8.2-52.7 18.3-77.6 27.7 -12.8 4.8-25.5 9.7-38.5 14.5 -2.1 0.8-4.2 1.6-6.3 2.3 -0.6 1.6-1 3.1-1.1 4.8 0 0-0.1-0.5-0.4-0.7 0 0-0.2-0.2-0.5-0.3 0.1-1.1 0.4-2.2 0.8-3.3 -1.4 0.5-2.9 1-4.4 1.5 -0.6 0.2-1.2 0.4-1.8 0.6 -0.2 0-0.5 0-0.6 0 0 0-0.8 0-1.1 0.1 -0.3 0-0.6 0.1-0.2 0 1.1-0.3 2-0.6 3-0.9l2.9-1c0.9-0.3 1.7-0.6 2.6-0.9C344.2 225.3 350.2 220 357.5 214.9L357.5 214.9zM340.7 234.9c-0.2-0.1-0.4-0.2-0.6-0.3 0 0 0 0 0 0l0 0M338.1 234c0.1 0-1.3-0.2-2.1-0.3 0 0-0.3 0-0.6 0 -0.4 0.1-0.8 0.2-1.2 0.4 -0.2 0.1-0.4 0.1 0 0 0 0 0.8-0.1 0.8-0.1 0.1 0 1 0 1 0 0.4 0 1.3 0.1 1.4 0.2 0.4 0.1 1.9 0.5 1.8 0.4 0.2 0.1 1.1 0.5 1.1 0.5 0.1 0.1 0.4 0.7 0.4 0.6 0-0.3 0-0.6 0.1-0.9M335.9 233.7h0H335.9z"/><path fill="#C22825" d="M516.3 57.4c-50.2 15.1-100.2 30.4-149 46 -53.4 17.2-105.4 34.8-154.1 53.5 -8.4 3.2-52.7 21.6-20.5 8.8l97.8-35.8 148.5-48.1c29.9-9.2 59.9-18.4 90.2-27.5 3.1-0.9 6-1.9 8.8-2.9 -3 1-6 1.9-9.3 2.7C524.5 55.2 520.4 56.3 516.3 57.4L516.3 57.4z"/><path fill="#F3BE00" d="M643.2 192.3c-9 4.8-18.3 10.1-18.6 16.4 0 0 0 0.1 0 0.2 0 0 0.2 0.6 0.5 0.9 0 0 0.8 0.6 1.5 0.8 0 0 1.6 0.5 2.5 0.7 -0.1 0 1.7 0.3 2.7 0.3 0 0 1 0 1.5 0 -0.1 0 1.1 0 1.6-0.1 0.6-0.1 1.2-0.2 1.7-0.3 0.7-0.2 1.3-0.4 1.9-0.6 1.9-0.7 3.7-1.3 5.5-2 5.9-2.2 11.8-4.4 17.7-6.6 10.8-3.9 21.4-7.9 32.8-11.7 0.8-0.3 1.5-0.5 2.3-0.7 5.1-1.8 10-3.6 15-5.5 6.9-2.6 51.8-21.7 25.3-11.5 -8.9 3.4-17.3 7-26.3 10.4 -1 0.4-8.2 2.5-13.3 4.4 -1 0.4-2.1 0.8-3.2 1.2 -12.7 3.9-23.7 8.4-35 12.7 -5.8 2.2-11.7 4.4-17.6 6.6 -1.5 0.6-3 1.1-4.6 1.6 0-0.2 0.1-0.4 0.1-0.6 1.2-0.4 2.4-0.8 3.6-1.3 2-0.7 4-1.4 6-2.1 4.1-1.4 8-2.9 12-4.4 11.3-4.3 22-8.9 34.7-12.7 18.4-6.5 35.1-13.5 52.9-20.3 7.7-2.9 53.8-22.4 24.4-10.6 -7.6 3.1-15.4 6.1-23.8 8.8 0 0 21.5-8.5 28.1-11.2 17.7-7 34.1-14.4 55.4-20.3 1.6-0.5 13.3-4 9.5-3.1 -39 9.4-61.2 24-96.6 34.5 -9 1.3 2.2-1.2 5.3-2.5 5.8-2.3 57.6-23.2 57.6-23.2 -43.6 10.8-71 28.2-107.6 41.4 -3.9 1.4-7.9 2.8-12 4.2 -13.3 3.7-24.1 8.4-35.5 12.7 -2.1 0.8-4.2 1.6-6.4 2.4 0.7-0.4 1.3-0.9 1.9-1.3 5.4-3.6 11.5-7 17.9-10.4 10.5-5.6 20.6-11.2 30.4-16.9 13.8-8.1 32.8-16.8 39.2-26.4 0 0-3.1 2-8.1 5.2 3.7-2.8 7.1-5.7 10.2-8.6 1.8-1.7 3.8-3.4 5.7-5.1 4.5-4 7.7-8.2 9.9-12.6 0.7-1.1 1.4-2.3 1.5-3.5 0-0.4 0-0.9-0.3-1.3 -0.1-0.2-0.3-0.5-0.6-0.7 -0.3-0.3-0.8-0.6-1.4-0.8 -0.7-0.3-1.7-0.6-2.7-0.7 -0.9-0.2-1.9-0.3-2.9-0.3 -1.3 0-2.6 0-3.6 0.2 -1.9 0.3-3.5 0.7-5 1.2 -7.2 2.2-12.5 5-19.8 7.1 -65.2 19.4-128.9 39.6-180.7 63.1 -4.5 2-28 15.2-39.4 21.6 -6 3.1-12.9 6.6-13.1 10.2 2.4-0.2 13.4-7.6 17.5-10.7 1.9-1.1 3.9-2.2 4.8-2.7 5-2.7 10.2-5.4 15.5-8.1 -3.2 1.7-6.2 3.5-8.9 5.3l110.4-44.8c32-11 66.1-21.3 101-31.4 7.2-2.1 12.5-4.7 19.5-6.9 -0.3 0.7-0.7 1.3-1.1 2 -6.8 12.6-22.3 24-38.8 34.8 -15 9.8-32 19.2-50.2 28.2 -5.5 2.7-24.6 13-10.3 5.5H643.2zM625.1 209.7L625.1 209.7 625.1 209.7zM626.6 210.5L626.6 210.5 626.6 210.5zM631.8 211.5L631.8 211.5 631.8 211.5zM636.9 209.6c-0.2 0.1-0.5 0.2-0.7 0.2 -0.5 0.2-1.1 0.4-1.7 0.5 -0.3 0.1-0.7 0.2-1.1 0.2 -0.1 0-0.9 0.1-0.8 0.1 -0.1 0-1 0-0.9 0 -0.3 0-1.2-0.1-1.3-0.1 -0.4-0.1-1.7-0.4-1.6-0.4 -0.2-0.1-0.9-0.5-0.9-0.5 -0.1-0.1-0.4-0.6-0.4-0.6 0-0.5 0.1-1 0.3-1.5 0.1 0 0.2 0 0.3 0 0.1 0 0.7 0 1-0.1 -0.2 0.6-0.3 1.1-0.4 1.7 0 0 0.1 0.2 0.2 0.4 0 0 0.3 0.2 0.6 0.3 0 0 0.6 0.2 1 0.3 -0.1 0 0.7 0.1 1.1 0.1 0 0 0.4 0 0.6 0 0 0 0.5 0 0.7 0 0.3 0 0.6-0.1 0.9-0.2 0.6-0.2 1.1-0.3 1.7-0.5 0.4-0.1 0.9-0.3 1.3-0.4C636.7 209.2 636.8 209.4 636.9 209.6L636.9 209.6zM627.7 207.5c2.2-7.7 17-14.4 28.4-20.1 5-2.5 9.9-5.1 15-7.6 4.8-2.4 27.9-15.8 12.5-6.6 -8.3 4.9-17.2 9.8-26.3 14.5 -10.8 5.6-25 12-28.1 19.4 -0.3 0.1-0.5 0.2-0.8 0.3C628.1 207.4 627.9 207.5 627.7 207.5L627.7 207.5zM628.6 209.2v0V209.2zM628.8 209.5h0H628.8zM629.4 209.8v0C629.4 209.8 629.4 209.8 629.4 209.8zM631.4 210.2h0H631.4zM632 210.3h0H632zM679.9 180.4c-6.2 3.7-11.7 6.9-15.8 9 -3.9 2-7.6 4.1-11.2 6.1 3.6-2.4 7.3-4.7 10.4-6.3C668.9 186.3 674.4 183.3 679.9 180.4L679.9 180.4zM553.1 185.3c31.6-13.2 67.1-25.4 103.7-37.1 4.6-1.5 55-16.6 55-16.6 -44.4 13.3-87.2 27.2-127.3 41.9C574 177.4 563.3 181.3 553.1 185.3L553.1 185.3zM726.4 146.1c-13.6 11.2-30.9 21.6-49.2 31.7 0 0 33.2-20 44.4-28.5C723.1 148.2 725 147.2 726.4 146.1L726.4 146.1zM696 135.1c8.3-2.5 16.7-5 25.1-7.5 7.3-2.1 12.7-4.9 19.9-7.1 1.2-0.4 2.4-0.7 4-1 0.4-0.1 0.9-0.1 1.4-0.1 0.2 0 0.3 0 0.5 0 0.1 0 0.3 0.1 0.4 0.1 0.2 0.1 0.3 0.1 0.3 0.2 0.1 0.1 0.2 0.2 0.3 0.3 0.2 0.3 0.2 0.6 0.2 1 -0.1 1.1-0.8 2.2-1.4 3.3 -2.6 5-22.2 26.1-7.6 9.6 2.8-3.2 5.4-6.4 7.2-9.7 0.7-1.1 1.4-2.2 1.5-3.3 0-0.3 0-0.6-0.2-0.9 -0.1-0.1-0.1-0.2-0.2-0.3 -0.1-0.1-0.2-0.1-0.3-0.2 -0.1 0-0.1-0.1-0.2-0.1 -0.1 0-0.2 0-0.3 0 -0.5 0-0.9 0-1.3 0.1 -0.4 0.1-0.8 0.1-1.1 0.2 -1 0.2-1.9 0.5-2.8 0.7 -7.2 2.2-12.5 5-19.9 7.1 -3.4 1-48.2 14.5-48.2 14.5C680.8 139.8 688.6 137.5 696 135.1L696 135.1zM749.3 125.7c0 0-6.9 9.4-11.4 13.8 -24.8 23.6 5.1-6.4 10.8-13.9C749.2 124.9 749.3 125.7 749.3 125.7L749.3 125.7z"/><path fill="#F3BE00" d="M811.9 141.4c-0.4 0.1-0.8 0.3-1.3 0.4 9.5-3.5 20.1-6.5 30.9-9.5 1.8-0.5 5.2-2 8.1-2 -1.5 1.3-8.4 2.4-11.5 3.2C835.7 134.1 811.9 141.4 811.9 141.4L811.9 141.4z"/><path fill="#F3BE00" d="M780.6 153.3c22.3-9.3 0 0 0 0C780.6 153.3 780.6 153.3 780.6 153.3z"/><path fill="#F3BE00" d="M671.1 183.5c-3.3 1.7-6.6 3.5-9.9 5.2 -3.6 1.9-7.6 3.9-11.5 6 0.5-0.3 1.1-0.6 1.6-0.9 3-1.8 6.1-3.5 9.4-5.2 15-7.9 29.6-15.9 43-24.2 9.1-5.6 4.4-2.3-0.5 0.9L671.1 183.5 671.1 183.5zM649.6 194.6c-3.2 1.7-6.3 3.5-8.8 5.4C643.5 198.2 646.7 196.4 649.6 194.6zM640.8 200.1c-3.1 2.3-5.5 4.6-6.6 7.1 0.8-0.3 1.6-0.6 2.4-0.9 5.9-2.2 11.8-4.4 17.6-6.6 11.5-4.3 22.4-8.9 35.7-12.6l11-3.9c-3.6 1.3-7.3 2.6-11.1 3.9 -13.1 3.7-24 8.4-35.4 12.6 -5.8 2.2-11.6 4.4-17.5 6.6 -1 0.4-1.9 0.7-2.9 1.1 -0.3 0.7-0.4 1.4-0.5 2.2 0 0-0.1-0.2-0.2-0.3 0 0-0.1-0.1-0.3-0.2 0.1-0.5 0.2-1 0.4-1.5 -0.7 0.2-1.3 0.5-2 0.7 -0.3 0.1-0.6 0.2-0.8 0.3 -0.1 0-0.2 0-0.3 0 0 0-0.4 0-0.5 0 -0.1 0-0.3 0.1-0.1 0 0.5-0.1 0.9-0.3 1.4-0.4l1.3-0.4c0.4-0.1 0.8-0.3 1.2-0.4C634.8 204.8 637.5 202.4 640.8 200.1L640.8 200.1zM633.2 209.2c-0.1-0.1-0.2-0.1-0.3-0.1h0 0M631.9 208.8c0.1 0-0.6-0.1-1-0.1 0 0-0.1 0-0.3 0 -0.2 0.1-0.4 0.1-0.6 0.2 -0.1 0-0.2 0 0 0 0 0 0.4 0 0.4 0 0 0 0.5 0 0.4 0 0.2 0 0.6 0.1 0.6 0.1 0.2 0 0.9 0.2 0.8 0.2 0.1 0 0.5 0.2 0.5 0.2 0 0 0.2 0.3 0.2 0.3 0-0.1 0-0.3 0-0.4M631 208.6h0H631z"/><path fill="#F3BE00" d="M713.2 128.3c-22.9 6.9-45.7 13.8-67.9 21 -24.3 7.8-48 15.9-70.2 24.4 -3.8 1.5-24 9.8-9.3 4l44.6-16.3 67.7-21.9c13.6-4.2 27.3-8.4 41.1-12.5 1.4-0.4 2.7-0.9 4-1.3 -1.4 0.4-2.7 0.9-4.2 1.3C716.9 127.3 715 127.8 713.2 128.3L713.2 128.3z"/><path fill="#B2B4B7" d="M842.3 184.4c-7.5 4-15.3 8.5-15.6 13.7 0 0 0 0.1 0 0.1 0 0 0.1 0.5 0.4 0.7 0 0 0.7 0.5 1.2 0.7 0 0 1.3 0.4 2.1 0.6 -0.1 0 1.4 0.2 2.2 0.3 0 0 0.9 0 1.3 0 0 0 0.9 0 1.3-0.1 0.5-0.1 1-0.2 1.4-0.3 0.5-0.1 1-0.3 1.5-0.5 1.6-0.6 3.1-1.1 4.6-1.7 4.9-1.8 9.8-3.7 14.8-5.5 9-3.3 17.9-6.6 27.5-9.7 0.6-0.2 1.3-0.4 2-0.6 4.3-1.5 8.4-3 12.5-4.6 5.7-2.1 43.3-18.2 21.2-9.6 -7.4 2.9-14.5 5.9-22 8.7 -0.8 0.3-6.9 2.1-11.1 3.6 -0.9 0.3-1.8 0.7-2.7 1 -10.6 3.2-19.8 7-29.3 10.6 -4.9 1.8-9.8 3.7-14.7 5.5 -1.3 0.5-2.5 0.9-3.8 1.4 0-0.2 0.1-0.3 0.1-0.5 1-0.3 2-0.7 3.1-1.1 1.7-0.6 3.3-1.2 5-1.7 3.4-1.2 6.7-2.5 10-3.7 9.4-3.6 18.4-7.4 29-10.6 15.4-5.4 29.4-11.3 44.2-17 6.4-2.4 45-18.8 20.4-8.8 -6.4 2.6-12.9 5.1-19.9 7.3 0 0 18-7.1 23.5-9.3 14.8-5.9 28.5-12 46.3-17 1.4-0.4 11.1-3.3 7.9-2.5 -32.6 7.9-51.2 20.1-80.8 28.8 -7.5 1.1 1.8-1 4.4-2.1 4.9-2 48.2-19.4 48.1-19.4 -36.5 9-59.4 23.6-90 34.6 -3.3 1.2-6.6 2.3-10 3.5 -11.1 3.1-20.2 7-29.7 10.6 -1.8 0.7-3.5 1.3-5.3 2 0.5-0.4 1.1-0.7 1.6-1.1 4.5-3 9.6-5.9 14.9-8.7 8.8-4.6 17.2-9.4 25.4-14.2 11.6-6.8 27.5-14.1 32.8-22.1 0 0-2.6 1.7-6.8 4.4 3.1-2.4 5.9-4.8 8.5-7.2 1.5-1.4 3.1-2.9 4.8-4.3 3.8-3.3 6.4-6.9 8.3-10.5 0.6-1 1.1-1.9 1.2-3 0-0.4 0-0.7-0.2-1.1 -0.1-0.2-0.3-0.4-0.5-0.6 -0.3-0.2-0.7-0.5-1.2-0.7 -0.6-0.3-1.4-0.5-2.3-0.6 -0.8-0.1-1.6-0.2-2.4-0.3 -1.1 0-2.1 0-3 0.2 -1.6 0.2-2.9 0.6-4.1 1 -6 1.8-10.5 4.2-16.6 6 -54.5 16.2-107.8 33.1-151.1 52.8 -3.7 1.7-23.4 12.7-33 18.1 -5 2.6-10.8 5.6-11 8.5 2-0.1 11.2-6.4 14.6-9 1.6-0.9 3.3-1.9 4-2.2 4.2-2.3 8.5-4.5 13-6.7 -2.7 1.4-5.1 2.9-7.4 4.4l92.4-37.5c26.8-9.2 55.3-17.8 84.5-26.2 6-1.7 10.5-4 16.3-5.7 -0.2 0.6-0.6 1.1-0.9 1.7 -5.7 10.5-18.6 20-32.4 29.1 -12.6 8.2-26.7 16.1-42 23.6C846.3 182.1 830.4 190.7 842.3 184.4L842.3 184.4zM827.1 199L827.1 199 827.1 199zM828.4 199.6h0C828.4 199.6 828.4 199.6 828.4 199.6zM832.7 200.5h0H832.7zM837 198.9c-0.2 0.1-0.4 0.1-0.6 0.2 -0.5 0.2-0.9 0.3-1.4 0.4 -0.3 0.1-0.6 0.1-0.9 0.2 -0.1 0-0.7 0.1-0.7 0 0 0-0.8 0-0.7 0 -0.3 0-1-0.1-1.1-0.1 -0.3-0.1-1.4-0.3-1.3-0.3 -0.2-0.1-0.8-0.4-0.8-0.4 0 0-0.3-0.5-0.3-0.5 0-0.4 0.1-0.8 0.2-1.2 0.1 0 0.2 0 0.2 0 0.1 0 0.6 0 0.8-0.1 -0.2 0.5-0.3 0.9-0.3 1.4 0 0 0.1 0.2 0.2 0.3 0 0 0.3 0.2 0.5 0.3 0 0 0.5 0.2 0.8 0.2 -0.1 0 0.5 0.1 0.9 0.1 0 0 0.4 0 0.5 0 0 0 0.4 0 0.6 0 0.3 0 0.5-0.1 0.8-0.1 0.5-0.1 1-0.3 1.4-0.4 0.4-0.1 0.7-0.2 1.1-0.4C836.8 198.6 836.9 198.7 837 198.9L837 198.9zM829.3 197.2c1.9-6.4 14.2-12 23.7-16.8 4.2-2.1 8.3-4.3 12.6-6.4 4-2 23.3-13.2 10.4-5.5 -7 4.1-14.4 8.2-22 12.1 -9 4.7-20.9 10.1-23.5 16.2 -0.2 0.1-0.4 0.1-0.6 0.2C829.6 197.1 829.5 197.1 829.3 197.2L829.3 197.2zM830 198.5v0V198.5zM830.2 198.8v0C830.2 198.8 830.2 198.8 830.2 198.8zM830.7 199.1L830.7 199.1 830.7 199.1zM832.4 199.4h0H832.4zM832.9 199.4h0H832.9zM873 174.4c-5.2 3.1-9.8 5.8-13.2 7.6 -3.2 1.7-6.4 3.4-9.3 5.1 3-2 6.1-3.9 8.7-5.3C863.7 179.4 868.4 176.9 873 174.4zM766.9 178.6c26.4-11.1 56.1-21.3 86.7-31 3.9-1.2 46-13.9 46-13.8 -37.1 11.1-72.9 22.7-106.5 35C784.4 171.9 775.4 175.2 766.9 178.6L766.9 178.6zM911.8 145.8c-11.4 9.3-25.8 18.1-41.2 26.5 0 0 27.8-16.7 37.2-23.8C909.1 147.5 910.7 146.7 911.8 145.8L911.8 145.8zM886.4 136.6c6.9-2.1 14-4.2 21-6.3 6.1-1.8 10.6-4.1 16.7-6 1-0.3 2-0.6 3.3-0.8 0.4-0.1 0.7-0.1 1.2-0.1 0.1 0 0.3 0 0.4 0 0.1 0 0.2 0.1 0.3 0.1 0.1 0 0.2 0.1 0.3 0.2 0.1 0.1 0.2 0.2 0.2 0.3 0.2 0.3 0.2 0.5 0.1 0.8 -0.1 1-0.6 1.9-1.2 2.8 -2.2 4.1-18.6 21.8-6.4 8.1 2.3-2.6 4.5-5.3 6.1-8.1 0.6-0.9 1.1-1.8 1.2-2.8 0-0.3 0-0.5-0.1-0.8 0-0.1-0.1-0.2-0.2-0.2 -0.1 0-0.1-0.1-0.2-0.1 -0.1 0-0.1 0-0.2-0.1 -0.1 0-0.2 0-0.3 0 -0.4 0-0.7 0-1.1 0.1 -0.3 0-0.6 0.1-0.9 0.2 -0.8 0.2-1.6 0.4-2.3 0.6 -6 1.8-10.5 4.2-16.6 6 -2.9 0.8-40.3 12.1-40.3 12.1C873.7 140.6 880.2 138.6 886.4 136.6L886.4 136.6zM931 128.7c0 0-5.8 7.9-9.5 11.5 -20.8 19.8 4.2-5.3 9-11.6C930.9 128 931 128.7 931 128.7z"/><path fill="#B2B4B7" d="M983.4 151.9c-0.4 0.1-0.7 0.2-1.1 0.3 7.9-2.9 16.8-5.5 25.9-8 1.5-0.4 4.4-1.6 6.8-1.7 -1.2 1.1-7 2-9.6 2.7C1003.3 145.8 983.3 151.9 983.4 151.9L983.4 151.9z"/><path fill="#B2B4B7" d="M957.2 161.8c18.7-7.8 0 0 0 0C957.2 161.8 957.2 161.8 957.2 161.8z"/><path fill="#B2B4B7" d="M865.6 177c-2.7 1.5-5.5 2.9-8.3 4.4 -3 1.6-6.4 3.2-9.6 5 0.5-0.3 0.9-0.5 1.3-0.8 2.5-1.5 5.1-2.9 7.8-4.3 12.6-6.6 24.7-13.3 36-20.3 7.6-4.7 3.7-1.9-0.4 0.8L865.6 177 865.6 177zM847.6 186.4c-2.7 1.5-5.2 3-7.4 4.5C842.5 189.3 845.2 187.8 847.6 186.4zM840.3 190.9c-2.6 1.9-4.6 3.9-5.5 5.9 0.7-0.2 1.3-0.5 2-0.7 5-1.8 9.8-3.7 14.7-5.5 9.6-3.6 18.7-7.4 29.8-10.5l9.2-3.2c-3 1.1-6.1 2.2-9.2 3.3 -11 3.1-20.1 7-29.6 10.6 -4.9 1.8-9.7 3.7-14.7 5.5 -0.8 0.3-1.6 0.6-2.4 0.9 -0.2 0.6-0.4 1.2-0.4 1.8 0 0 0-0.2-0.2-0.3 0 0-0.1-0.1-0.2-0.1 0.1-0.4 0.2-0.8 0.3-1.3 -0.6 0.2-1.1 0.4-1.7 0.6 -0.2 0.1-0.5 0.2-0.7 0.2 -0.1 0-0.2 0-0.2 0 0 0-0.3 0-0.4 0 -0.1 0-0.2 0-0.1 0 0.4-0.1 0.8-0.2 1.1-0.4l1.1-0.4c0.3-0.1 0.7-0.2 1-0.3C835.2 194.9 837.5 192.8 840.3 190.9L840.3 190.9zM833.9 198.5c-0.1 0-0.2-0.1-0.2-0.1l0 0 0 0M832.9 198.2c0 0-0.5-0.1-0.8-0.1 0 0-0.1 0-0.2 0 -0.1 0-0.3 0.1-0.5 0.1 -0.1 0-0.2 0 0 0 0 0 0.3 0 0.3 0 0 0 0.4 0 0.4 0 0.1 0 0.5 0.1 0.5 0.1 0.1 0 0.7 0.2 0.7 0.2 0.1 0 0.4 0.2 0.4 0.2 0 0 0.2 0.2 0.2 0.2 0-0.1 0-0.2 0-0.3M832 198.1h0H832z"/><path fill="#B2B4B7" d="M900.8 130.9c-19.1 5.8-38.2 11.6-56.8 17.5 -20.4 6.5-40.2 13.3-58.7 20.4 -3.2 1.2-20.1 8.2-7.8 3.4l37.3-13.6 56.6-18.3c11.4-3.5 22.8-7 34.4-10.5 1.2-0.3 2.3-0.7 3.3-1.1 -1.1 0.4-2.3 0.7-3.6 1C903.9 130.1 902.3 130.5 900.8 130.9L900.8 130.9z"/><polygon fill="#989B9F" points="244.8 255.1 904.8 255.1 904.8 268.5 244.8 268.5 "/></svg>