<?xml version="1.0" encoding="utf-8"?>
<!-- Generator: Adobe Illustrator 16.0.0, SVG Export Plug-In . SVG Version: 6.00 Build 0)  -->
<!DOCTYPE svg PUBLIC "-//W3C//DTD SVG 1.1//EN" "http://www.w3.org/Graphics/SVG/1.1/DTD/svg11.dtd">
<svg version="1.1" id="Layer_1" xmlns="http://www.w3.org/2000/svg" xmlns:xlink="http://www.w3.org/1999/xlink" x="0px" y="0px"
	 width="1024px" height="475.9px" viewBox="0 0 1024 475.9" enable-background="new 0 0 1024 475.9" xml:space="preserve">
<path fill="#7D8286" d="M190,351.9v-65.501l0,0h4.9l0,0H221c14.3,0,23.9,1.9,28.6,5.701c4.8,3.799,7.1,11.299,7.1,22.6v0.2v8.5
	c0,11.399-2.2,19-6.6,22.8c-4.5,3.8-13.4,5.7-26.7,5.7h-28.5l0,0H190L190,351.9z M199.8,344.8L199.8,344.8h23.5
	c9.9,0,16.4-1.3,19.3-3.899c2.9-2.601,4.3-8.4,4.3-17.4V315c0-9-1.6-14.8-4.8-17.399c-3.2-2.601-10.2-3.9-21.2-3.9h-21.2l0,0v51.1
	H199.8z M299.4,352.6c-8.9,0-15-1.5-18.3-4.5c-3.3-3-5-8.5-5-16.5V326.4c0-8,1.8-13.601,5.4-16.601c3.6-3,10.2-4.6,19.8-4.6
	c8.9,0,15,1.6,18.4,4.8c3.3,3.2,5,8.9,5,17.2v0.3v3.3l0,0h-39.6l0,0v0.8c0,6,1,10,3.1,12c2,2,6.2,3,12.3,3c6.4,0,10.5-0.5,12.3-1.6
	c1.9-1.1,2.8-3.5,2.8-7.2l0,0h9.1l0,0c0,5.7-1.8,9.601-5.5,11.7C315.6,351.5,309,352.6,299.4,352.6z M315.9,324.4L315.9,324.4
	c-0.2-4.801-1.2-8.101-3-9.801c-2-2.1-6.2-3.199-12.4-3.199c-6.2,0-10.3,1-12.3,3c-1.8,1.699-2.8,5.1-3.1,10.1l0,0h30.8V324.4z
	 M381.601,318.3L381.601,318.3c0-2.899-0.9-4.7-2.801-5.6c-1.8-0.9-5.699-1.3-11.699-1.3c-5.601,0-9.4,0.5-11.4,1.5s-3,2.899-3,5.6
	c0,2.6,1,4.4,3,5.3c1.9,0.9,5.9,1.4,11.9,1.4c9.199,0.1,15.5,1.1,18.899,3c3.4,1.899,5.2,5.3,5.2,10.2c0,5.1-1.8,8.8-5.3,11
	c-3.601,2.199-9.5,3.3-17.9,3.3c-10.399,0-17.1-1-20.3-3s-4.7-6.3-4.7-12.9l0,0h8.9l0,0c0,4.2,0.899,6.8,2.7,8
	c1.8,1.101,6,1.7,12.6,1.7c5.9,0,9.9-0.6,12-1.7c2.1-1.1,3.2-3.2,3.2-6.2c0-2.699-1-4.5-3-5.399c-2-0.9-6.101-1.4-12.3-1.5
	c-9-0.101-15.2-1.101-18.601-2.9c-3.399-1.8-5-5.2-5-10c0-5.2,1.601-8.8,4.9-10.7c3.3-1.899,9.399-2.8,18.399-2.8
	c9.4,0,15.601,0.9,18.7,2.601c3.101,1.699,4.7,5.199,4.7,10.5l0,0h-9.1V318.3z M433.101,352.6c-9,0-15.2-0.899-18.7-2.8
	c-3.5-1.899-5.3-5.3-5.3-10.1v-3.2c0-4.4,1.699-7.7,5.199-9.8c3.4-2.101,8.7-3.2,15.9-3.2c7.9,0,13.4,1.1,16.5,3.2
	c0.6,0.399,1.2,0.899,1.7,1.5l0,0v-9.3c0-2.4-1.2-4.2-3.601-5.301c-2.399-1.1-6.1-1.699-11-1.699c-5,0-8.399,0.6-10.3,1.699
	c-1.899,1.101-2.8,3.2-2.8,6.2l0,0h-9.2l0,0c0-5.399,1.601-9.1,4.9-11.1s9.3-3,18-3c7.6,0,13.399,1.1,17.2,3.3
	c3.899,2.2,5.8,5.5,5.8,9.9V352l0,0l0,0h-8.3l0,0v-4l0,0L448,349C445.101,351.4,440.101,352.6,433.101,352.6L433.101,352.6z
	 M433.8,329.7c-6.199,0-10.3,0.5-12.5,1.6c-2.1,1.101-3.199,3.101-3.199,6.2v1.2c0,3,1.1,5.1,3.199,6.1
	c2.2,1,6.301,1.601,12.5,1.601c5.301,0,9.2-0.601,11.5-2c2.4-1.301,3.5-3.4,3.5-6.301c0-2.899-1.199-5-3.5-6.3
	C443,330.3,439.2,329.7,433.8,329.7L433.8,329.7z M478.3,351.9v-46.2l0,0h4.301H487l0,0v5l0,0l0,0l0.7-0.7
	c3.3-3.3,8.1-4.899,14.5-4.899c5.7,0,9.8,1.1,12.4,3.199c2.5,2.2,3.8,5.7,3.8,10.601v3h-9.2v-3.5c0-2.7-0.6-4.5-1.9-5.601
	c-1.3-1.1-3.5-1.6-6.6-1.6c-4.3,0-7.5,1.1-9.7,3.3s-3.3,5.6-3.5,10.3l0,0V351.9l0,0h-4.6H478.3L478.3,351.9z M535.9,351.9v-46.2l0,0
	h4.3h4.4l0,0v5l0,0l0,0l0.699-0.7c3.301-3.3,8.101-4.899,14.5-4.899c5.7,0,9.801,1.1,12.4,3.199c2.5,2.2,3.8,5.7,3.8,10.601v3h-9.2
	v-3.5c0-2.7-0.6-4.5-1.899-5.601c-1.3-1.1-3.5-1.6-6.601-1.6c-4.3,0-7.5,1.1-9.699,3.3c-2.2,2.2-3.301,5.6-3.5,10.3l0,0V351.9l0,0
	H540.5H535.9L535.9,351.9z M616.8,352.6c-9.5,0-16-1.5-19.6-4.5s-5.4-8.5-5.4-16.5V326.4c0-8,1.801-13.601,5.4-16.601
	s10.1-4.6,19.6-4.6s16,1.5,19.601,4.6c3.6,3,5.399,8.601,5.399,16.601v5.199c0,8-1.8,13.5-5.399,16.5
	C632.9,351.1,626.3,352.6,616.8,352.6L616.8,352.6z M616.8,346.4c6.4,0,10.601-1,12.801-3c2.1-2,3.199-6,3.199-12v-5.2
	c0-6-1.1-10-3.199-12c-2.101-2-6.4-3-12.801-3c-6.399,0-10.6,1-12.8,3c-2.1,2-3.2,6-3.2,12v5.2c0,6,1.101,10,3.2,12
	C606.2,345.4,610.4,346.4,616.8,346.4z M660.9,351.9v-65.501l0,0h4.6h4.601l0,0V351.9l0,0h-4.5H660.9z M690.3,351.9v-65.501l0,0
	h4.601h4.6l0,0V351.9l0,0h-4.6H690.3z M743.3,352.6c-9.5,0-16-1.5-19.6-4.5s-5.4-8.5-5.4-16.5V326.4c0-8,1.801-13.601,5.4-16.601
	s10.1-4.6,19.6-4.6s16,1.5,19.601,4.6c3.6,3,5.399,8.601,5.399,16.601v5.199c0,8-1.8,13.5-5.399,16.5
	C759.3,351.1,752.8,352.6,743.3,352.6L743.3,352.6z M743.3,346.4c6.4,0,10.601-1,12.801-3c2.1-2,3.199-6,3.199-12v-5.2
	c0-6-1.1-10-3.199-12c-2.101-2-6.4-3-12.801-3c-6.399,0-10.6,1-12.8,3c-2.1,2-3.2,6-3.2,12v5.2c0,6,1.101,10,3.2,12
	C732.7,345.4,736.9,346.4,743.3,346.4z M824,318.3L824,318.3c0-2.899-0.899-4.7-2.8-5.6c-1.8-0.9-5.7-1.3-11.7-1.3
	c-5.6,0-9.399,0.5-11.399,1.5s-3,2.899-3,5.6c0,2.6,1,4.4,3,5.3c1.899,0.9,5.899,1.4,11.8,1.4c9.2,0.1,15.5,1.1,19,3
	c3.399,1.899,5.1,5.3,5.1,10.2c0,5.1-1.8,8.8-5.3,11c-3.6,2.199-9.5,3.3-17.9,3.3c-10.399,0-17.1-1-20.3-3s-4.8-6.3-4.8-12.9l0,0
	h8.9l0,0c0,4.2,0.899,6.8,2.699,8c1.801,1.101,6,1.7,12.601,1.7c5.899,0,9.899-0.6,12.1-1.7c2.101-1.1,3.2-3.2,3.2-6.2
	c0-2.699-1-4.5-3-5.399c-2-0.9-6.1-1.4-12.3-1.5c-9-0.101-15.2-1.101-18.601-2.9c-3.399-1.8-5-5.2-5-10c0-5.2,1.601-8.8,4.9-10.7
	c3.3-1.899,9.4-2.8,18.4-2.8c9.399,0,15.6,0.9,18.699,2.601c3.101,1.699,4.7,5.199,4.7,10.5l0,0h-9V318.3z"/>
<path fill="#7D8286" d="M187.45,427v-61.1l0,0h4.6h4.6l0,0V427l0,0h-4.6H187.45z M217.149,427v-43.1l0,0h3.9h3.8l0,0v6l0,0l0,0
	c0.601-0.801,1.3-1.4,2-2c3.7-3.101,9.101-4.601,16.2-4.601c6.4,0,11,1.2,13.9,3.601c2.8,2.399,4.199,6.399,4.199,11.8v28.2l0,0
	h-4.199h-4.301l0,0v-28.4c0-3.5-0.8-6-2.5-7.5c-1.699-1.4-4.6-2.2-8.8-2.2c-5.1,0-9,1-11.5,3.101c-2.6,2.1-3.899,5.3-4.1,9.6l0,0
	v25.3l0,0h-4.2h-4.4V427z M279.25,427v-43.1l0,0h4h4.1l0,0v5.5l0,0l0,0l1.601-1.5c3.699-3.101,9.1-4.601,16.1-4.601
	c6.4,0,11,1.5,13.8,4.4c0.9,0.899,1.601,2,2.2,3.2l0,0c0.8-1.101,1.7-2.101,2.8-3c3.7-3.101,9.2-4.601,16.5-4.601
	c6.4,0,11,1.2,13.8,3.601c2.8,2.399,4.2,6.3,4.2,11.8V427l0,0h-4.2h-4.3l0,0v-28.5c0-3.5-0.8-6-2.5-7.4c-1.7-1.399-4.6-2.1-8.7-2.1
	c-5.3,0-9.199,1-11.699,3.1c-2.5,2.101-3.801,5.301-3.801,9.601l0,0V427l0,0h-4.3h-4.3l0,0v-28.4c0-3.5-0.8-6-2.5-7.399
	c-1.7-1.4-4.6-2.2-8.7-2.2c-5.1,0-9,1-11.5,3.1c-2.5,2.101-3.899,5.301-4,9.601l0,0V427l0,0h-4.2H279.25L279.25,427z M399.05,427.6
	c-8.8,0-15-1.399-18.3-4.199c-3.301-2.801-5-8-5-15.4v-4.8c0-7.5,1.699-12.7,5-15.5c3.399-2.8,9.5-4.3,18.3-4.3
	c8.899,0,15,1.399,18.3,4.3c3.3,2.8,5,8,5,15.5v4.8c0,7.5-1.7,12.6-5,15.4C413.949,426.2,407.85,427.6,399.05,427.6z M399.05,421.8
	c6,0,9.899-0.899,11.899-2.8s3-5.6,3-11.2V403c0-5.6-1-9.3-3-11.2c-2-1.8-5.899-2.8-11.899-2.8s-9.9,0.9-11.9,2.8
	c-2,1.9-3,5.601-3,11.2v4.8c0,5.601,1,9.3,3,11.2C389.05,420.9,393.05,421.8,399.05,421.8z M439.949,365.9L439.949,365.9h4.301h4.3
	l0,0v22.8l0,0l0.8-0.8c2.9-3,8.1-4.5,15.6-4.5s12.7,1.399,15.601,4.3c2.899,2.899,4.399,8,4.399,15.399v4.801
	c0,7.3-1.5,12.5-4.399,15.3c-2.9,2.899-8.101,4.3-15.601,4.3c-7.399,0-12.6-1.5-15.6-4.5l-0.8-0.8l0,0v4.7l0,0h-8.5l0,0v-61H439.949
	z M464.949,421.7c4.5,0,7.601-0.9,9.101-2.8c1.6-1.9,2.399-5.5,2.399-11V403.1c0-5.5-0.899-9.1-2.699-11
	c-1.801-1.899-5.301-2.8-10.5-2.8c-5.801,0-9.7,1-11.7,3s-3,5.8-3,11.5l0,0v3.601l0,0c0,5.699,1.1,9.5,3.399,11.5
	C454.149,420.7,458.55,421.7,464.949,421.7L464.949,421.7z M503.149,427v-43.1l0,0h4.2h4.3l0,0V427l0,0h-4.2H503.149L503.149,427z
	 M503.05,365.9h8.7v7.1h-8.7V365.9z M530.649,427v-61.1l0,0h4.3h4.301l0,0V427l0,0h-4.2H530.649L530.649,427z M558.05,427v-43.1l0,0
	h4.2h4.3l0,0V427l0,0h-4.2H558.05L558.05,427z M557.949,365.9h8.7v7.1h-8.7V365.9z M606.55,427.6c-8.4,0-14.2-0.899-17.4-2.6
	c-3.3-1.8-4.899-4.9-4.899-9.4v-3c0-4.199,1.6-7.199,4.8-9.199s8.2-3,14.8-3c7.4,0,12.5,1,15.4,3c0.6,0.399,1.1,0.899,1.6,1.399l0,0
	v-8.7c0-2.199-1.1-3.899-3.3-4.899c-2.2-1.101-5.601-1.601-10.3-1.601c-4.601,0-7.801,0.5-9.601,1.601c-1.7,1.1-2.6,3-2.6,5.8l0,0
	h-8.5l0,0c0-5,1.5-8.5,4.6-10.4c3.101-1.899,8.7-2.8,16.8-2.8c7.101,0,12.5,1,16.101,3.101c3.6,2.1,5.399,5.1,5.399,9.199V427l0,0
	l0,0h-7.699l0,0v-3.8l0,0l-1,1C617.75,426.4,613.05,427.6,606.55,427.6L606.55,427.6z M607.25,406.2c-5.801,0-9.601,0.5-11.601,1.5
	s-3,2.899-3,5.7v1.1c0,2.8,1,4.7,3,5.7s5.9,1.5,11.601,1.5c5,0,8.6-0.601,10.8-1.8c2.2-1.2,3.3-3.2,3.3-5.9s-1.1-4.7-3.3-5.9
	C615.85,406.8,612.25,406.2,607.25,406.2L607.25,406.2z M648.85,427v-43.1l0,0h4h4.1l0,0v4.699l0,0l0,0l0.7-0.699
	c3.101-3.101,7.601-4.601,13.5-4.601c5.3,0,9.2,1,11.601,3c2.399,2,3.6,5.3,3.6,9.9v2.8h-8.5v-3.2c0-2.5-0.6-4.2-1.8-5.3
	c-1.2-1-3.3-1.5-6.2-1.5c-4,0-7,1-9.1,3.1c-2,2.101-3.101,5.301-3.301,9.601l0,0V427l0,0h-4.199H648.85L648.85,427z M702.25,427
	v-43.1l0,0h4.199h4.301l0,0V427l0,0h-4.2H702.25z M702.149,365.9h8.7v7.1h-8.7V365.9z M751.75,427.6c-8.801,0-15-1.399-18.301-4.199
	c-3.3-2.801-5-8-5-15.4v-4.8c0-7.5,1.7-12.7,5-15.5c3.4-2.8,9.5-4.3,18.301-4.3c8.8,0,14.899,1.399,18.3,4.3c3.3,2.8,5,8,5,15.5v4.8
	c0,7.5-1.7,12.6-5,15.4C766.75,426.2,760.649,427.6,751.75,427.6z M751.75,421.8c6,0,9.899-0.899,11.899-2.8s3-5.6,3-11.2V402.9
	c0-5.601-1-9.301-3-11.2c-2-1.8-5.899-2.8-11.899-2.8s-9.9,0.899-11.9,2.8c-2,1.899-3,5.6-3,11.2v4.899c0,5.601,1,9.3,3,11.2
	S745.85,421.8,751.75,421.8z M827.05,395.6L827.05,395.6c0-2.699-0.9-4.399-2.601-5.199c-1.699-0.801-5.3-1.2-10.899-1.2
	c-5.2,0-8.7,0.5-10.601,1.399c-1.899,0.9-2.8,2.7-2.8,5.2c0,2.4,0.9,4.101,2.8,4.9c1.801,0.8,5.5,1.3,11.101,1.3
	c8.6,0.1,14.399,1,17.7,2.8c3.199,1.7,4.8,4.9,4.8,9.5c0,4.8-1.7,8.2-5,10.2s-8.9,3.1-16.7,3.1c-9.7,0-16-0.899-19-2.8
	c-3-1.899-4.4-5.899-4.4-12l0,0h8.301l0,0c0,3.9,0.8,6.4,2.5,7.4c1.6,1.1,5.6,1.6,11.699,1.6c5.5,0,9.301-0.5,11.2-1.5
	c2-1,3-3,3-5.8c0-2.5-0.899-4.2-2.8-5.1c-1.9-0.9-5.7-1.301-11.5-1.4c-8.4-0.1-14.2-1-17.3-2.7c-3.101-1.7-4.7-4.8-4.7-9.3
	c0-4.9,1.5-8.2,4.6-10c3.101-1.8,8.801-2.6,17.2-2.6c8.7,0,14.601,0.8,17.4,2.5c2.899,1.6,4.399,4.899,4.399,9.8l0,0h-8.399V395.6z"
	/>
<path fill="#B2B4B7" d="M983.4,151.9c-0.4,0.1-0.7,0.2-1.101,0.3c7.9-2.9,16.8-5.5,25.9-8c1.5-0.4,4.399-1.6,6.8-1.7
	c-1.2,1.1-7,2-9.6,2.7C1003.3,145.8,983.3,151.9,983.4,151.9L983.4,151.9z"/>
<g>
	<path fill="#C22825" d="M364.478,197.8c-19.7,10.4-40.2,22.2-40.8,35.9c0,0.1,0,0.2,0,0.3c0,0,0.4,1.3,1.2,1.9c0,0,1.9,1.2,3.2,1.8
		c0.1,0,3.4,1.1,5.5,1.5c-0.1,0,3.6,0.6,5.8,0.699c0,0,2.3,0.101,3.3,0.101c-0.1,0,2.4-0.101,3.5-0.2c1.4-0.199,2.6-0.4,3.7-0.699
		c1.4-0.4,2.8-0.801,4.1-1.301c4.1-1.5,8.1-3,12.2-4.4c12.9-4.8,25.8-9.6,38.9-14.4c23.601-8.6,47-17.4,72.101-25.6
		c1.699-0.5,3.399-1.1,5.1-1.6c11.2-3.9,22-7.9,32.8-12c15.101-5.7,113.7-47.7,55.601-25.2c-19.5,7.6-38,15.4-57.7,22.9
		c-2.101,0.8-18,5.4-29.101,9.6c-2.3,0.9-4.6,1.7-7,2.6c-27.899,8.5-51.899,18.4-76.899,27.8c-12.8,4.8-25.6,9.7-38.6,14.5
		c-3.3,1.2-6.6,2.4-10,3.6c0.1-0.5,0.2-0.9,0.3-1.3c2.7-0.9,5.4-1.9,8-2.8c4.4-1.5,8.7-3,13.1-4.5c9-3.1,17.6-6.4,26.3-9.7
		c24.8-9.4,48.3-19.5,76.2-27.9c40.401-14.3,77.1-29.7,116-44.5c16.8-6.4,118.1-49.2,53.5-23.2c-16.7,6.7-33.9,13.5-52.3,19.2
		c-0.101,0,47.1-18.7,61.7-24.5c38.8-15.4,74.8-31.6,121.6-44.5c3.6-1,29.1-8.7,20.8-6.7c-85.7,20.7-134.3,52.8-212,75.6
		c-19.7,2.9,4.7-2.7,11.5-5.4c12.8-5.1,126.4-51,126.3-51c-95.699,23.7-155.899,62-236.1,90.8c-8.7,3.1-17.4,6.2-26.3,9.2
		c-29.101,8.1-53,18.3-77.9,27.8c-4.7,1.8-9.3,3.5-14,5.3c1.4-1,2.9-1.9,4.3-2.9c11.8-7.9,25.2-15.4,39.2-22.7
		c23.101-12.2,45.101-24.6,66.601-37.2c30.399-17.8,72.1-36.9,86-58c0,0-6.801,4.4-17.7,11.5c8-6.2,15.5-12.5,22.399-18.9
		c4-3.8,8.301-7.5,12.601-11.3c10-8.7,16.8-18.1,21.7-27.6c1.6-2.5,3-5.1,3.3-7.7c0.1-0.9,0-1.9-0.601-2.9c-0.3-0.5-0.699-1-1.3-1.5
		c-0.8-0.6-1.8-1.2-3.1-1.8c-1.601-0.7-3.7-1.2-5.9-1.6c-2.1-0.4-4.3-0.6-6.399-0.7c-2.9-0.1-5.601,0.1-8,0.4
		c-4.2,0.6-7.601,1.6-10.9,2.6c-15.8,4.8-27.5,10.9-43.5,15.6c-143.101,42.5-282.9,86.9-396.601,138.5c-9.8,4.4-61.5,33.4-86.5,47.5
		c-13.1,6.801-28.2,14.6-28.8,22.301c5.3-0.4,29.3-16.701,38.4-23.601c4.2-2.4,8.6-4.9,10.4-5.9c10.9-6,22.3-11.9,34.1-17.7
		c-7,3.8-13.5,7.6-19.5,11.5l242.4-98.4c70.2-24.2,145.1-46.8,221.601-68.9c15.8-4.5,27.4-10.4,42.7-15c-0.601,1.5-1.5,2.9-2.4,4.4
		c-14.899,27.6-48.899,52.6-85.1,76.3c-33,21.5-70.2,42.1-110.2,62C375.178,191.7,333.278,214.3,364.478,197.8L364.478,197.8z
		 M324.878,236L324.878,236L324.878,236z M328.078,237.8L328.078,237.8L328.078,237.8z M339.478,240L339.478,240L339.478,240z
		 M350.678,235.8c-0.5,0.2-1.1,0.4-1.6,0.5c-1.2,0.4-2.4,0.8-3.8,1.2c-0.7,0.2-1.5,0.4-2.4,0.5c-0.2,0-2,0.1-1.8,0.1
		c-0.1,0-2.1,0-2,0c-0.7,0-2.7-0.3-2.8-0.3c-0.8-0.2-3.7-0.9-3.5-0.9c-0.5-0.2-2.1-1-2.1-1c-0.1-0.1-0.9-1.3-0.9-1.3
		c0.1-1.1,0.3-2.1,0.6-3.2c0.2,0,0.5-0.1,0.6-0.1c0.2,0,1.5-0.1,2.2-0.2c-0.4,1.2-0.7,2.4-0.9,3.7c0,0,0.2,0.5,0.5,0.8
		c0,0,0.8,0.5,1.3,0.7c0.1,0,1.4,0.5,2.2,0.6c-0.1,0,1.4,0.2,2.3,0.3c0,0,0.9,0,1.3,0c0,0,1,0,1.5-0.1c0.8-0.1,1.4-0.2,2-0.4
		c1.3-0.3,2.5-0.7,3.7-1.1c1-0.3,1.9-0.6,2.9-0.9C350.178,235,350.478,235.4,350.678,235.8L350.678,235.8z M330.378,231.3
		c4.9-16.8,37.3-31.6,62.2-44.2c11-5.6,21.8-11.2,32.9-16.8c10.5-5.3,61.2-34.6,27.399-14.5c-18.3,10.9-37.699,21.4-57.7,31.9
		c-23.6,12.3-54.9,26.4-61.7,42.5c-0.6,0.2-1.1,0.4-1.7,0.6C331.478,231,330.978,231.2,330.378,231.3L330.378,231.3z M332.378,234.9
		L332.378,234.9L332.378,234.9z M332.878,235.6L332.878,235.6L332.878,235.6z M334.178,236.3L334.178,236.3
		C334.078,236.3,334.078,236.3,334.178,236.3z M338.678,237.2L338.678,237.2L338.678,237.2z M339.978,237.3L339.978,237.3
		L339.978,237.3z M445.078,171.7c-13.5,8.1-25.7,15.1-34.8,19.8c-8.5,4.4-16.7,8.9-24.5,13.5c7.8-5.2,16-10.3,22.9-13.9
		C420.877,184.7,433.078,178.2,445.078,171.7L445.078,171.7z M166.678,182.6c69.3-29.1,147.3-55.8,227.5-81.4
		c10.2-3.2,120.7-36.4,120.601-36.3c-97.401,29.2-191.4,59.6-279.4,91.9C212.578,165.1,189.178,173.7,166.678,182.6L166.678,182.6z
		 M547.078,96.4c-29.8,24.5-67.8,47.4-108,69.6c-0.1,0,72.9-43.9,97.5-62.6C539.778,101,544.078,98.8,547.078,96.4L547.078,96.4z
		 M480.377,72.4c18.2-5.6,36.701-11.1,55.201-16.5c16.101-4.7,27.9-10.8,43.7-15.6c2.6-0.8,5.4-1.6,8.7-2.1c0.899-0.1,2-0.2,3.1-0.2
		c0.4,0,0.7,0,1.101,0.1c0.3,0.1,0.6,0.1,0.8,0.2c0.3,0.1,0.6,0.3,0.8,0.4c0.3,0.2,0.4,0.5,0.6,0.7c0.4,0.7,0.4,1.4,0.4,2.1
		c-0.3,2.5-1.7,4.9-3.2,7.3c-5.7,10.9-48.8,57.2-16.7,21.2c6.101-6.9,11.9-14,15.9-21.2c1.5-2.3,3-4.7,3.3-7.3
		c0.101-0.7,0-1.3-0.399-2c-0.101-0.2-0.301-0.4-0.5-0.6c-0.101-0.1-0.301-0.2-0.601-0.4c-0.1-0.1-0.3-0.1-0.5-0.1s-0.5-0.1-0.7-0.1
		c-1,0-2,0.1-2.8,0.2c-0.899,0.1-1.7,0.3-2.399,0.4c-2.2,0.5-4.2,1-6.101,1.6c-15.8,4.8-27.5,10.9-43.6,15.7
		c-7.5,2.2-105.8,31.9-105.701,31.8C447.078,82.7,464.078,77.7,480.377,72.4L480.377,72.4z M597.479,51.6c0,0-15.101,20.7-25,30.2
		c-54.5,51.9,11.1-14,23.6-30.5C597.179,49.9,597.378,51.7,597.479,51.6L597.479,51.6z"/>
	<path fill="#C22825" d="M734.878,86.2c-0.899,0.3-1.899,0.6-2.8,0.9c20.7-7.6,44-14.4,67.9-20.9c4-1.1,11.5-4.3,17.7-4.4
		c-3.2,2.8-18.4,5.2-25.101,7C787.078,70.2,734.778,86.2,734.878,86.2L734.878,86.2z"/>
	<path fill="#C22825" d="M666.078,112.4C715.078,92,666.078,112.5,666.078,112.4L666.078,112.4z"/>
	<path fill="#C22825" d="M425.678,178.5c-7.2,3.8-14.5,7.7-21.801,11.5c-7.899,4.1-16.8,8.5-25.3,13.1c1.2-0.7,2.4-1.4,3.5-2
		c6.6-3.8,13.5-7.6,20.601-11.4c33-17.4,64.899-35,94.399-53.2c20-12.4,9.601-5-1.1,2L425.678,178.5L425.678,178.5z M378.678,203
		c-7,3.8-13.7,7.8-19.4,11.9C365.278,210.8,372.178,206.8,378.678,203z M359.278,214.9c-6.8,5-12.1,10.2-14.5,15.6
		c1.8-0.6,3.5-1.3,5.3-1.9c13-4.8,25.8-9.6,38.7-14.4c25.2-9.4,49.2-19.6,78.3-27.7l24.101-8.5c-8,2.9-16,5.8-24.301,8.6
		c-28.8,8.2-52.699,18.3-77.6,27.7c-12.8,4.8-25.5,9.7-38.5,14.5c-2.1,0.8-4.2,1.6-6.3,2.3c-0.6,1.6-1,3.1-1.1,4.8
		c0,0-0.1-0.5-0.4-0.7c0,0-0.2-0.2-0.5-0.3c0.1-1.1,0.4-2.2,0.8-3.3c-1.4,0.5-2.9,1-4.4,1.5c-0.6,0.2-1.2,0.4-1.8,0.6
		c-0.2,0-0.5,0-0.6,0c0,0-0.8,0-1.1,0.1c-0.3,0-0.6,0.1-0.2,0c1.1-0.3,2-0.6,3-0.9l2.9-1c0.9-0.3,1.7-0.6,2.6-0.9
		C345.978,225.3,351.978,220,359.278,214.9L359.278,214.9z M342.478,234.9c-0.2-0.1-0.4-0.2-0.6-0.3l0,0l0,0 M339.878,234
		c0.1,0-1.3-0.2-2.1-0.3c0,0-0.3,0-0.6,0c-0.4,0.1-0.8,0.2-1.2,0.4c-0.2,0.1-0.4,0.1,0,0l0.8-0.1c0.1,0,1,0,1,0
		c0.4,0,1.3,0.1,1.4,0.2c0.4,0.1,1.9,0.5,1.8,0.4c0.2,0.1,1.1,0.5,1.1,0.5c0.1,0.1,0.4,0.7,0.4,0.6c0-0.3,0-0.6,0.1-0.9
		 M337.678,233.7L337.678,233.7L337.678,233.7z"/>
	<path fill="#C22825" d="M518.078,57.4c-50.201,15.1-100.201,30.4-149,46c-53.4,17.2-105.4,34.8-154.1,53.5
		c-8.4,3.2-52.7,21.6-20.5,8.8l97.8-35.8l148.5-48.1c29.9-9.2,59.9-18.4,90.201-27.5c3.1-0.9,6-1.9,8.8-2.9c-3,1-6,1.9-9.3,2.7
		C526.278,55.2,522.179,56.3,518.078,57.4L518.078,57.4z"/>
	<path fill="#F3BE00" d="M644.979,192.3c-9,4.8-18.3,10.1-18.601,16.4c0,0,0,0.1,0,0.2c0,0,0.2,0.6,0.5,0.9c0,0,0.801,0.6,1.5,0.8
		c0,0,1.601,0.5,2.5,0.7c-0.1,0,1.7,0.3,2.7,0.3c0,0,1,0,1.5,0c-0.1,0,1.101,0,1.601-0.1c0.6-0.1,1.199-0.2,1.699-0.3
		c0.7-0.2,1.301-0.4,1.9-0.6c1.9-0.7,3.7-1.3,5.5-2c5.9-2.2,11.8-4.4,17.7-6.6c10.8-3.9,21.399-7.9,32.8-11.7
		c0.8-0.3,1.5-0.5,2.3-0.7c5.101-1.8,10-3.6,15-5.5c6.9-2.6,51.8-21.7,25.3-11.5c-8.899,3.4-17.3,7-26.3,10.4
		c-1,0.4-8.2,2.5-13.3,4.4c-1,0.4-2.1,0.8-3.2,1.2c-12.7,3.9-23.7,8.4-35,12.7c-5.8,2.2-11.7,4.4-17.6,6.6c-1.5,0.6-3,1.1-4.601,1.6
		c0-0.2,0.101-0.4,0.101-0.6c1.2-0.4,2.399-0.8,3.6-1.3c2-0.7,4-1.4,6-2.1c4.101-1.4,8-2.9,12-4.4c11.3-4.3,22-8.9,34.7-12.7
		c18.4-6.5,35.1-13.5,52.9-20.3c7.699-2.9,53.8-22.4,24.399-10.6c-7.6,3.1-15.399,6.1-23.8,8.8c0,0,21.5-8.5,28.1-11.2
		c17.7-7,34.101-14.4,55.4-20.3c1.6-0.5,13.3-4,9.5-3.1c-39,9.4-61.2,24-96.6,34.5c-9,1.3,2.2-1.2,5.3-2.5
		c5.8-2.3,57.6-23.2,57.6-23.2c-43.6,10.8-71,28.2-107.6,41.4c-3.9,1.4-7.9,2.8-12,4.2c-13.3,3.7-24.1,8.4-35.5,12.7
		c-2.1,0.8-4.2,1.6-6.4,2.4c0.7-0.4,1.3-0.9,1.9-1.3c5.4-3.6,11.5-7,17.9-10.4c10.5-5.6,20.6-11.2,30.399-16.9
		c13.8-8.1,32.8-16.8,39.2-26.4c0,0-3.1,2-8.1,5.2c3.699-2.8,7.1-5.7,10.199-8.6c1.801-1.7,3.801-3.4,5.7-5.1
		c4.5-4,7.7-8.2,9.9-12.6c0.7-1.1,1.4-2.3,1.5-3.5c0-0.4,0-0.9-0.3-1.3c-0.101-0.2-0.3-0.5-0.601-0.7c-0.3-0.3-0.8-0.6-1.399-0.8
		c-0.7-0.3-1.7-0.6-2.7-0.7c-0.9-0.2-1.9-0.3-2.9-0.3c-1.3,0-2.6,0-3.6,0.2c-1.9,0.3-3.5,0.7-5,1.2c-7.2,2.2-12.5,5-19.8,7.1
		c-65.2,19.4-128.9,39.6-180.7,63.1c-4.5,2-28,15.2-39.401,21.6c-6,3.1-12.899,6.6-13.1,10.2c2.4-0.2,13.4-7.6,17.5-10.7
		c1.9-1.1,3.9-2.2,4.8-2.7c5-2.7,10.201-5.4,15.5-8.1c-3.2,1.7-6.2,3.5-8.9,5.3l110.4-44.8c32-11,66.1-21.3,101-31.4
		c7.2-2.1,12.5-4.7,19.5-6.9c-0.3,0.7-0.7,1.3-1.1,2c-6.8,12.6-22.3,24-38.8,34.8c-15,9.8-32,19.2-50.2,28.2
		c-5.5,2.7-24.601,13-10.3,5.5h-0.101V192.3z M626.878,209.7L626.878,209.7L626.878,209.7z M628.378,210.5L628.378,210.5
		L628.378,210.5z M633.578,211.5L633.578,211.5L633.578,211.5z M638.679,209.6c-0.2,0.1-0.5,0.2-0.7,0.2c-0.5,0.2-1.101,0.4-1.7,0.5
		c-0.3,0.1-0.7,0.2-1.1,0.2c-0.101,0-0.9,0.1-0.801,0.1c-0.1,0-1,0-0.899,0c-0.3,0-1.2-0.1-1.3-0.1c-0.4-0.1-1.7-0.4-1.601-0.4
		c-0.2-0.1-0.899-0.5-0.899-0.5c-0.101-0.1-0.4-0.6-0.4-0.6c0-0.5,0.1-1,0.3-1.5c0.101,0,0.2,0,0.3,0c0.101,0,0.7,0,1-0.1
		c-0.199,0.6-0.3,1.1-0.399,1.7c0,0,0.1,0.2,0.2,0.4c0,0,0.3,0.2,0.6,0.3c0,0,0.6,0.2,1,0.3c-0.1,0,0.7,0.1,1.1,0.1
		c0,0,0.4,0,0.601,0c0,0,0.5,0,0.7,0c0.3,0,0.6-0.1,0.899-0.2c0.601-0.2,1.101-0.3,1.7-0.5c0.4-0.1,0.9-0.3,1.3-0.4
		C638.479,209.2,638.578,209.4,638.679,209.6L638.679,209.6z M629.479,207.5c2.2-7.7,17-14.4,28.399-20.1c5-2.5,9.9-5.1,15-7.6
		c4.801-2.4,27.9-15.8,12.5-6.6c-8.3,4.9-17.199,9.8-26.3,14.5c-10.8,5.6-25,12-28.1,19.4c-0.3,0.1-0.5,0.2-0.8,0.3
		C629.878,207.4,629.679,207.5,629.479,207.5L629.479,207.5z M630.378,209.2L630.378,209.2L630.378,209.2z M630.578,209.5
		L630.578,209.5L630.578,209.5z M631.179,209.8L631.179,209.8L631.179,209.8z M633.179,210.2L633.179,210.2L633.179,210.2z
		 M633.778,210.3L633.778,210.3L633.778,210.3z M681.679,180.4c-6.2,3.7-11.7,6.9-15.801,9c-3.899,2-7.6,4.1-11.199,6.1
		c3.6-2.4,7.3-4.7,10.399-6.3C670.679,186.3,676.179,183.3,681.679,180.4L681.679,180.4z M554.878,185.3
		c31.601-13.2,67.101-25.4,103.7-37.1c4.601-1.5,55-16.6,55-16.6c-44.399,13.3-87.2,27.2-127.3,41.9
		C575.778,177.4,565.078,181.3,554.878,185.3L554.878,185.3z M728.179,146.1c-13.601,11.2-30.9,21.6-49.2,31.7
		c0,0,33.2-20,44.399-28.5C724.878,148.2,726.778,147.2,728.179,146.1L728.179,146.1z M697.778,135.1c8.3-2.5,16.7-5,25.1-7.5
		c7.301-2.1,12.7-4.9,19.9-7.1c1.2-0.4,2.4-0.7,4-1c0.4-0.1,0.9-0.1,1.4-0.1c0.199,0,0.3,0,0.5,0c0.1,0,0.3,0.1,0.399,0.1
		c0.2,0.1,0.3,0.1,0.3,0.2c0.101,0.1,0.2,0.2,0.301,0.3c0.199,0.3,0.199,0.6,0.199,1c-0.1,1.1-0.8,2.2-1.399,3.3
		c-2.601,5-22.2,26.1-7.601,9.6c2.801-3.2,5.4-6.4,7.2-9.7c0.7-1.1,1.4-2.2,1.5-3.3c0-0.3,0-0.6-0.2-0.9c-0.1-0.1-0.1-0.2-0.199-0.3
		c-0.101-0.1-0.2-0.1-0.301-0.2c-0.1,0-0.1-0.1-0.199-0.1c-0.101,0-0.2,0-0.301,0c-0.5,0-0.899,0-1.3,0.1
		c-0.399,0.1-0.8,0.1-1.1,0.2c-1,0.2-1.9,0.5-2.8,0.7c-7.2,2.2-12.5,5-19.9,7.1c-3.4,1-48.2,14.5-48.2,14.5
		C682.578,139.8,690.378,137.5,697.778,135.1L697.778,135.1z M751.078,125.7c0,0-6.899,9.4-11.399,13.8
		c-24.801,23.6,5.1-6.4,10.8-13.9C750.979,124.9,751.078,125.7,751.078,125.7L751.078,125.7z"/>
	<path fill="#F3BE00" d="M813.679,141.4c-0.4,0.1-0.801,0.3-1.301,0.4c9.5-3.5,20.101-6.5,30.9-9.5c1.8-0.5,5.2-2,8.1-2
		c-1.5,1.3-8.399,2.4-11.5,3.2C837.479,134.1,813.679,141.4,813.679,141.4L813.679,141.4z"/>
	<path fill="#F3BE00" d="M782.378,153.3C804.679,144,782.378,153.3,782.378,153.3L782.378,153.3z"/>
	<path fill="#F3BE00" d="M672.878,183.5c-3.3,1.7-6.6,3.5-9.899,5.2c-3.601,1.9-7.601,3.9-11.5,6c0.5-0.3,1.1-0.6,1.6-0.9
		c3-1.8,6.101-3.5,9.4-5.2c15-7.9,29.6-15.9,43-24.2c9.1-5.6,4.399-2.3-0.5,0.9L672.878,183.5L672.878,183.5z M651.378,194.6
		c-3.199,1.7-6.3,3.5-8.8,5.4C645.278,198.2,648.479,196.4,651.378,194.6z M642.578,200.1c-3.1,2.3-5.5,4.6-6.6,7.1
		c0.8-0.3,1.6-0.6,2.399-0.9c5.9-2.2,11.801-4.4,17.601-6.6c11.5-4.3,22.399-8.9,35.7-12.6l11-3.9c-3.601,1.3-7.301,2.6-11.101,3.9
		c-13.1,3.7-24,8.4-35.399,12.6c-5.801,2.2-11.601,4.4-17.5,6.6c-1,0.4-1.9,0.7-2.9,1.1c-0.3,0.7-0.4,1.4-0.5,2.2
		c0,0-0.1-0.2-0.2-0.3c0,0-0.1-0.1-0.3-0.2c0.1-0.5,0.2-1,0.4-1.5c-0.7,0.2-1.301,0.5-2,0.7c-0.301,0.1-0.601,0.2-0.801,0.3
		c-0.1,0-0.199,0-0.3,0c0,0-0.399,0-0.5,0c-0.1,0-0.3,0.1-0.1,0c0.5-0.1,0.899-0.3,1.399-0.4l1.301-0.4c0.399-0.1,0.8-0.3,1.199-0.4
		C636.578,204.8,639.278,202.4,642.578,200.1L642.578,200.1z M634.979,209.2c-0.101-0.1-0.2-0.1-0.3-0.1l0,0l0,0 M633.679,208.8
		c0.1,0-0.601-0.1-1-0.1c0,0-0.101,0-0.301,0c-0.199,0.1-0.399,0.1-0.6,0.2c-0.1,0-0.2,0,0,0h0.4c0,0,0.5,0,0.399,0
		c0.2,0,0.601,0.1,0.601,0.1c0.199,0,0.899,0.2,0.8,0.2c0.1,0,0.5,0.2,0.5,0.2l0.2,0.3c0-0.1,0-0.3,0-0.4 M632.778,208.6
		L632.778,208.6L632.778,208.6z"/>
	<path fill="#F3BE00" d="M714.979,128.3c-22.9,6.9-45.7,13.8-67.9,21c-24.3,7.8-48,15.9-70.2,24.4c-3.8,1.5-24,9.8-9.3,4
		l44.601-16.3l67.699-21.9c13.601-4.2,27.301-8.4,41.101-12.5c1.399-0.4,2.7-0.9,4-1.3c-1.4,0.4-2.7,0.9-4.2,1.3
		C718.679,127.3,716.778,127.8,714.979,128.3L714.979,128.3z"/>
	<path fill="#B2B4B7" d="M844.078,184.4c-7.5,4-15.3,8.5-15.6,13.7v0.1c0,0,0.1,0.5,0.399,0.7c0,0,0.7,0.5,1.2,0.7
		c0,0,1.3,0.4,2.101,0.6c-0.101,0,1.399,0.2,2.199,0.3c0,0,0.9,0,1.301,0c0,0,0.899,0,1.3-0.1c0.5-0.1,1-0.2,1.399-0.3
		c0.5-0.1,1-0.3,1.5-0.5c1.601-0.6,3.101-1.1,4.601-1.7c4.899-1.8,9.8-3.7,14.8-5.5c9-3.3,17.9-6.6,27.5-9.7c0.6-0.2,1.3-0.4,2-0.6
		c4.3-1.5,8.4-3,12.5-4.6c5.7-2.1,43.3-18.2,21.2-9.6c-7.4,2.9-14.5,5.9-22,8.7c-0.8,0.3-6.9,2.1-11.101,3.6
		c-0.899,0.3-1.8,0.7-2.699,1c-10.601,3.2-19.801,7-29.301,10.6c-4.899,1.8-9.8,3.7-14.699,5.5c-1.301,0.5-2.5,0.9-3.801,1.4
		c0-0.2,0.101-0.3,0.101-0.5c1-0.3,2-0.7,3.1-1.1c1.7-0.6,3.3-1.2,5-1.7c3.4-1.2,6.7-2.5,10-3.7c9.4-3.6,18.4-7.4,29-10.6
		c15.4-5.4,29.4-11.3,44.2-17c6.4-2.4,45-18.8,20.4-8.8c-6.4,2.6-12.9,5.1-19.9,7.3c0,0,18-7.1,23.5-9.3c14.8-5.9,28.5-12,46.3-17
		c1.4-0.4,11.101-3.3,7.9-2.5c-32.601,7.9-51.2,20.1-80.8,28.8c-7.5,1.1,1.8-1,4.399-2.1c4.9-2,48.2-19.4,48.101-19.4
		c-36.5,9-59.4,23.6-90,34.6c-3.301,1.2-6.601,2.3-10,3.5c-11.101,3.1-20.2,7-29.7,10.6c-1.8,0.7-3.5,1.3-5.3,2
		c0.5-0.4,1.1-0.7,1.6-1.1c4.5-3,9.6-5.9,14.9-8.7c8.8-4.6,17.199-9.4,25.399-14.2c11.601-6.8,27.5-14.1,32.8-22.1
		c0,0-2.6,1.7-6.8,4.4c3.101-2.4,5.9-4.8,8.5-7.2c1.5-1.4,3.101-2.9,4.8-4.3c3.801-3.3,6.4-6.9,8.301-10.5c0.6-1,1.1-1.9,1.199-3
		c0-0.4,0-0.7-0.199-1.1c-0.101-0.2-0.301-0.4-0.5-0.6c-0.301-0.2-0.7-0.5-1.2-0.7c-0.601-0.3-1.4-0.5-2.3-0.6
		c-0.801-0.1-1.601-0.2-2.4-0.3c-1.1,0-2.1,0-3,0.2c-1.6,0.2-2.9,0.6-4.1,1c-6,1.8-10.5,4.2-16.601,6
		c-54.5,16.2-107.8,33.1-151.1,52.8c-3.7,1.7-23.4,12.7-33,18.1c-5,2.6-10.8,5.6-11,8.5c2-0.1,11.2-6.4,14.6-9
		c1.601-0.9,3.3-1.9,4-2.2c4.2-2.3,8.5-4.5,13-6.7c-2.7,1.4-5.1,2.9-7.399,4.4l92.399-37.5c26.8-9.2,55.3-17.8,84.5-26.2
		c6-1.7,10.5-4,16.3-5.7c-0.199,0.6-0.6,1.1-0.899,1.7c-5.7,10.5-18.601,20-32.4,29.1c-12.6,8.2-26.7,16.1-42,23.6
		C848.078,182.1,832.179,190.7,844.078,184.4L844.078,184.4z M828.878,199L828.878,199L828.878,199z M830.179,199.6L830.179,199.6
		L830.179,199.6z M834.479,200.5L834.479,200.5L834.479,200.5z M838.778,198.9c-0.2,0.1-0.4,0.1-0.6,0.2c-0.5,0.2-0.9,0.3-1.4,0.4
		c-0.3,0.1-0.6,0.1-0.9,0.2c-0.1,0-0.699,0.1-0.699,0c0,0-0.801,0-0.7,0c-0.3,0-1-0.1-1.101-0.1c-0.3-0.1-1.399-0.3-1.3-0.3
		c-0.2-0.1-0.8-0.4-0.8-0.4l-0.3-0.5c0-0.4,0.1-0.8,0.2-1.2c0.1,0,0.199,0,0.199,0c0.101,0,0.601,0,0.801-0.1
		c-0.2,0.5-0.301,0.9-0.301,1.4c0,0,0.101,0.2,0.2,0.3c0,0,0.3,0.2,0.5,0.3c0,0,0.5,0.2,0.8,0.2c-0.1,0,0.5,0.1,0.9,0.1
		c0,0,0.4,0,0.5,0c0,0,0.4,0,0.6,0c0.301,0,0.5-0.1,0.801-0.1c0.5-0.1,1-0.3,1.399-0.4c0.4-0.1,0.7-0.2,1.101-0.4
		C838.578,198.6,838.679,198.7,838.778,198.9L838.778,198.9z M831.078,197.2c1.9-6.4,14.2-12,23.7-16.8c4.2-2.1,8.3-4.3,12.6-6.4
		c4-2,23.301-13.2,10.4-5.5c-7,4.1-14.4,8.2-22,12.1c-9,4.7-20.9,10.1-23.5,16.2c-0.2,0.1-0.4,0.1-0.6,0.2
		C831.378,197.1,831.278,197.1,831.078,197.2L831.078,197.2z M831.778,198.5L831.778,198.5L831.778,198.5z M831.979,198.8
		L831.979,198.8L831.979,198.8z M832.479,199.1L832.479,199.1L832.479,199.1z M834.179,199.4L834.179,199.4L834.179,199.4z
		 M834.679,199.4L834.679,199.4L834.679,199.4z M874.778,174.4c-5.2,3.1-9.8,5.8-13.2,7.6c-3.2,1.7-6.399,3.4-9.3,5.1
		c3-2,6.1-3.9,8.7-5.3C865.479,179.4,870.179,176.9,874.778,174.4z M768.679,178.6c26.399-11.1,56.1-21.3,86.699-31
		c3.9-1.2,46-13.9,46-13.8c-37.1,11.1-72.899,22.7-106.5,35C786.179,171.9,777.179,175.2,768.679,178.6L768.679,178.6z
		 M913.578,145.8c-11.399,9.3-25.8,18.1-41.2,26.5c0,0,27.801-16.7,37.2-23.8C910.878,147.5,912.479,146.7,913.578,145.8
		L913.578,145.8z M888.179,136.6c6.899-2.1,14-4.2,21-6.3c6.1-1.8,10.6-4.1,16.699-6c1-0.3,2-0.6,3.301-0.8
		c0.399-0.1,0.699-0.1,1.199-0.1c0.101,0,0.301,0,0.4,0s0.2,0.1,0.3,0.1c0.101,0,0.2,0.1,0.3,0.2c0.101,0.1,0.2,0.2,0.2,0.3
		c0.2,0.3,0.2,0.5,0.101,0.8c-0.101,1-0.601,1.9-1.2,2.8c-2.2,4.1-18.601,21.8-6.4,8.1c2.3-2.6,4.5-5.3,6.101-8.1
		c0.6-0.9,1.1-1.8,1.199-2.8c0-0.3,0-0.5-0.1-0.8c0-0.1-0.1-0.2-0.2-0.2c-0.1,0-0.1-0.1-0.2-0.1c-0.1,0-0.1,0-0.199-0.1
		c-0.101,0-0.2,0-0.301,0c-0.399,0-0.699,0-1.1,0.1c-0.3,0-0.6,0.1-0.9,0.2c-0.8,0.2-1.6,0.4-2.3,0.6c-6,1.8-10.5,4.2-16.6,6
		c-2.9,0.8-40.3,12.1-40.3,12.1C875.479,140.6,881.979,138.6,888.179,136.6L888.179,136.6z M932.778,128.7c0,0-5.8,7.9-9.5,11.5
		c-20.8,19.8,4.2-5.3,9-11.6C932.679,128,932.778,128.7,932.778,128.7z"/>
	<path fill="#B2B4B7" d="M958.979,161.8C977.679,154,958.979,161.8,958.979,161.8L958.979,161.8z"/>
	<path fill="#B2B4B7" d="M867.378,177c-2.699,1.5-5.5,2.9-8.3,4.4c-3,1.6-6.399,3.2-9.6,5c0.5-0.3,0.899-0.5,1.3-0.8
		c2.5-1.5,5.1-2.9,7.8-4.3c12.601-6.6,24.7-13.3,36-20.3c7.601-4.7,3.7-1.9-0.399,0.8L867.378,177L867.378,177z M849.378,186.4
		c-2.699,1.5-5.199,3-7.399,4.5C844.278,189.3,846.979,187.8,849.378,186.4z M842.078,190.9c-2.6,1.9-4.6,3.9-5.5,5.9
		c0.7-0.2,1.3-0.5,2-0.7c5-1.8,9.8-3.7,14.7-5.5c9.6-3.6,18.7-7.4,29.8-10.5l9.2-3.2c-3,1.1-6.1,2.2-9.2,3.3
		c-11,3.1-20.1,7-29.6,10.6c-4.9,1.8-9.7,3.7-14.7,5.5c-0.8,0.3-1.6,0.6-2.4,0.9c-0.199,0.6-0.399,1.2-0.399,1.8c0,0,0-0.2-0.2-0.3
		c0,0-0.1-0.1-0.2-0.1c0.101-0.4,0.2-0.8,0.3-1.3c-0.6,0.2-1.1,0.4-1.699,0.6c-0.2,0.1-0.5,0.2-0.7,0.2c-0.101,0-0.2,0-0.2,0
		s-0.3,0-0.4,0c-0.1,0-0.2,0-0.1,0c0.4-0.1,0.8-0.2,1.1-0.4l1.101-0.4c0.3-0.1,0.699-0.2,1-0.3
		C836.979,194.9,839.278,192.8,842.078,190.9L842.078,190.9z M835.679,198.5c-0.101,0-0.2-0.1-0.2-0.1l0,0l0,0 M834.679,198.2
		c0,0-0.5-0.1-0.801-0.1c0,0-0.1,0-0.199,0c-0.101,0-0.301,0.1-0.5,0.1c-0.101,0-0.2,0,0,0h0.3h0.399c0.101,0,0.5,0.1,0.5,0.1
		c0.101,0,0.7,0.2,0.7,0.2c0.101,0,0.4,0.2,0.4,0.2l0.2,0.2c0-0.1,0-0.2,0-0.3 M833.778,198.1L833.778,198.1L833.778,198.1z"/>
	<path fill="#B2B4B7" d="M902.578,130.9c-19.1,5.8-38.2,11.6-56.8,17.5c-20.4,6.5-40.2,13.3-58.7,20.4c-3.2,1.2-20.1,8.2-7.8,3.4
		l37.3-13.6l56.601-18.3c11.399-3.5,22.8-7,34.399-10.5c1.2-0.3,2.3-0.7,3.3-1.1c-1.1,0.4-2.3,0.7-3.6,1
		C905.679,130.1,904.078,130.5,902.578,130.9L902.578,130.9z"/>
</g>
<polygon fill="#989B9F" points="182,255.101 842,255.101 842,268.5 182,268.5 "/>
</svg>
