<svg version="1.1" id="Layer_1" xmlns="http://www.w3.org/2000/svg" xmlns:xlink="http://www.w3.org/1999/xlink" x="0px" y="0px"
	 width="1024px" height="475.949px" viewBox="0 0 1024 475.949" enable-background="new 0 0 1024 475.949" xml:space="preserve">
<g id="Capa_x0020_1_1_">
	<path fill="#7D8286" d="M251.301,351.931v-65.459l0,0h4.913l0,0h26.105c14.33,0,23.868,1.894,28.638,5.694
		c4.75,3.801,7.131,11.336,7.131,22.614v0.244v8.469c0.041,11.396-2.184,18.966-6.644,22.757
		c-4.456,3.781-13.372,5.681-26.739,5.681h-28.492l0,0H251.301z M261.148,344.799L261.148,344.799h23.5
		c9.94,0,16.37-1.315,19.264-3.924c2.893-2.6,4.339-8.414,4.339-17.411v-8.489c0-8.994-1.592-14.812-4.774-17.434
		c-3.164-2.632-10.228-3.937-21.158-3.937h-21.17l0,0V344.799L261.148,344.799z M360.712,352.575
		c-8.854,0-14.958-1.516-18.322-4.537c-3.34-3.025-5.024-8.546-5.024-16.541v-5.2c0-8.03,1.806-13.565,5.426-16.604
		c3.612-3.036,10.225-4.565,19.819-4.565c8.925,0,15.047,1.581,18.373,4.756c3.307,3.169,4.989,8.909,5.025,17.232v0.25v3.318l0,0
		h-39.585l0,0v0.774c0,5.993,1.028,9.97,3.068,11.955c2.043,1.981,6.164,2.966,12.323,2.966c6.36,0,10.458-0.549,12.34-1.617
		c1.859-1.074,2.798-3.469,2.798-7.168l0,0h9.055l0,0c0,5.684-1.829,9.605-5.459,11.744
		C376.923,351.501,370.306,352.575,360.712,352.575z M377.152,324.358L377.152,324.358c-0.229-4.786-1.223-8.072-2.961-9.846
		c-2.044-2.131-6.166-3.195-12.376-3.195c-6.159,0-10.28,0.989-12.323,2.967c-1.77,1.724-2.784,5.082-3.068,10.073l0,0H377.152
		L377.152,324.358z M442.92,318.254L442.92,318.254c0-2.863-0.924-4.744-2.762-5.625c-1.831-0.869-5.731-1.311-11.709-1.311
		c-5.587,0-9.38,0.507-11.404,1.516c-2.006,0.999-3.015,2.883-3.015,5.625c0,2.613,0.974,4.357,2.964,5.252
		c1.931,0.881,5.892,1.363,11.853,1.425c9.177,0.107,15.481,1.116,18.949,3.009c3.438,1.861,5.151,5.258,5.151,10.191
		c0,5.138-1.771,8.791-5.309,10.961c-3.562,2.19-9.505,3.277-17.873,3.277c-10.37,0-17.141-1.001-20.326-3.013
		c-3.161-2.007-4.749-6.292-4.749-12.858l0,0h8.886l0,0c0,4.191,0.888,6.839,2.672,7.978c1.776,1.125,5.969,1.701,12.561,1.701
		c5.909,0,9.921-0.562,12.049-1.662c2.134-1.099,3.198-3.176,3.198-6.208c0-2.701-0.992-4.51-2.997-5.421
		c-2.024-0.924-6.105-1.425-12.286-1.51c-9-0.121-15.197-1.093-18.59-2.922c-3.358-1.835-5.042-5.167-5.042-9.986
		c0-5.242,1.623-8.818,4.895-10.714c3.27-1.894,9.413-2.831,18.413-2.831c9.359,0,15.589,0.884,18.694,2.628
		c3.109,1.744,4.668,5.242,4.668,10.497l0,0H442.92L442.92,318.254z M494.37,352.575c-8.959,0-15.188-0.937-18.696-2.831
		c-3.528-1.9-5.275-5.273-5.275-10.119v-3.175c0-4.444,1.719-7.731,5.167-9.846c3.434-2.128,8.744-3.189,15.893-3.189
		c7.884,0,13.363,1.074,16.471,3.234c0.63,0.423,1.206,0.927,1.694,1.497l0,0v-9.319c0-2.395-1.191-4.158-3.574-5.304
		c-2.39-1.142-6.058-1.718-11.04-1.718c-4.969,0-8.384,0.576-10.264,1.718c-1.861,1.146-2.802,3.228-2.802,6.241l0,0h-9.158l0,0
		c0-5.389,1.64-9.104,4.948-11.109c3.293-2.03,9.305-3.042,18.019-3.042c7.622,0,13.37,1.116,17.23,3.334
		c3.864,2.213,5.803,5.502,5.803,9.859v33.124l0,0l0,0h-8.255l0,0v-4.042l0,0l-1.124,1.028
		C506.369,351.357,501.371,352.575,494.37,352.575L494.37,352.575z M495.114,329.701c-6.177,0-10.333,0.533-12.467,1.584
		c-2.129,1.077-3.196,3.12-3.196,6.153v1.161c0,3.035,1.085,5.079,3.232,6.121c2.15,1.041,6.305,1.572,12.488,1.572
		c5.331,0,9.175-0.644,11.541-1.956c2.372-1.302,3.543-3.416,3.543-6.345c0-2.918-1.171-5.03-3.543-6.335
		C504.346,330.348,500.479,329.701,495.114,329.701L495.114,329.701z M539.648,351.931v-46.158l0,0h4.337h4.357l0,0v4.991l0,0l0,0
		l0.738-0.732c3.31-3.27,8.128-4.903,14.452-4.903c5.711,0,9.827,1.086,12.378,3.244c2.548,2.17,3.813,5.697,3.813,10.571v3.006
		h-9.162v-3.481c0-2.671-0.632-4.548-1.894-5.649c-1.289-1.086-3.488-1.629-6.632-1.629c-4.302,0-7.535,1.116-9.706,3.332
		c-2.17,2.219-3.342,5.639-3.521,10.263l0,0v27.146l0,0h-4.552H539.648L539.648,351.931z M597.191,351.931v-46.158l0,0h4.337h4.356
		l0,0v4.991l0,0l0,0l0.738-0.732c3.31-3.27,8.135-4.903,14.453-4.903c5.711,0,9.83,1.086,12.378,3.244
		c2.547,2.17,3.813,5.697,3.813,10.571v3.006h-9.16v-3.481c0-2.671-0.631-4.548-1.899-5.649c-1.282-1.086-3.481-1.629-6.632-1.629
		c-4.295,0-7.529,1.116-9.699,3.332c-2.17,2.219-3.341,5.639-3.523,10.263l0,0v27.146l0,0h-4.553H597.191L597.191,351.931z
		 M678.131,352.575c-9.481,0-16.024-1.516-19.613-4.537c-3.583-3.025-5.372-8.546-5.372-16.541v-5.2
		c0-8.03,1.789-13.565,5.372-16.604c3.589-3.036,10.132-4.565,19.613-4.565c9.491,0,16.035,1.529,19.624,4.565
		c3.582,3.039,5.368,8.574,5.368,16.604v5.2c0,7.995-1.786,13.516-5.368,16.541C694.166,351.059,687.622,352.575,678.131,352.575
		L678.131,352.575z M678.131,346.382c6.404,0,10.644-0.985,12.762-2.966c2.107-1.985,3.176-5.962,3.176-11.965v-5.199
		c0-6.003-1.068-9.983-3.176-11.967c-2.118-1.978-6.357-2.967-12.762-2.967c-6.396,0-10.64,0.989-12.752,2.967
		c-2.111,1.984-3.178,5.964-3.178,11.967v5.199c0,6.003,1.066,9.98,3.178,11.965C667.491,345.397,671.734,346.382,678.131,346.382z
		 M722.184,351.931v-65.459l0,0h4.553h4.607l0,0v65.459l0,0h-4.55H722.184z M751.614,351.931v-65.459l0,0h4.555h4.607l0,0v65.459
		l0,0h-4.556H751.614z M804.605,352.575c-9.489,0-16.028-1.516-19.621-4.537c-3.578-3.025-5.369-8.546-5.369-16.541v-5.2
		c0-8.03,1.791-13.565,5.369-16.604c3.593-3.036,10.132-4.565,19.621-4.565c9.481,0,16.027,1.529,19.62,4.565
		c3.579,3.039,5.361,8.574,5.361,16.604v5.2c0,7.995-1.782,13.516-5.361,16.541C820.626,351.059,814.087,352.575,804.605,352.575
		L804.605,352.575z M804.605,346.382c6.396,0,10.64-0.985,12.754-2.966c2.115-1.985,3.182-5.962,3.182-11.965v-5.199
		c0-6.003-1.066-9.983-3.182-11.967c-2.114-1.978-6.358-2.967-12.754-2.967c-6.397,0-10.647,0.989-12.759,2.967
		c-2.111,1.984-3.172,5.964-3.172,11.967v5.199c0,6.003,1.061,9.98,3.172,11.965C793.958,345.397,798.208,346.382,804.605,346.382z
		 M885.275,318.254L885.275,318.254c0-2.863-0.922-4.744-2.769-5.625c-1.816-0.869-5.721-1.311-11.702-1.311
		c-5.583,0-9.383,0.507-11.4,1.516c-2.011,0.999-3.02,2.883-3.02,5.625c0,2.613,0.973,4.357,2.968,5.252
		c1.934,0.881,5.89,1.363,11.843,1.425c9.184,0.107,15.488,1.116,18.957,3.009c3.436,1.861,5.147,5.258,5.147,10.191
		c0,5.138-1.768,8.791-5.31,10.961c-3.56,2.19-9.502,3.277-17.867,3.277c-10.376,0-17.147-1.001-20.326-3.013
		c-3.162-2.007-4.757-6.292-4.757-12.858l0,0h8.896l0,0c0,4.191,0.885,6.839,2.669,7.978c1.773,1.125,5.968,1.701,12.56,1.701
		c5.906,0,9.917-0.562,12.051-1.662c2.132-1.099,3.193-3.176,3.193-6.208c0-2.701-0.989-4.51-2.998-5.421
		c-2.024-0.924-6.104-1.425-12.285-1.51c-8.998-0.121-15.189-1.093-18.586-2.922c-3.365-1.835-5.043-5.167-5.043-9.986
		c0-5.242,1.627-8.818,4.896-10.714c3.27-1.894,9.414-2.831,18.412-2.831c9.355,0,15.587,0.884,18.696,2.628
		c3.111,1.744,4.66,5.242,4.66,10.497l0,0H885.275L885.275,318.254z"/>
	<path fill="#7D8286" d="M250.557,426.982v-61.073l0,0h4.602h4.582l0,0v61.073l0,0h-4.582H250.557z M280.341,426.982v-43.067l0,0
		h3.858h3.843l0,0v5.951l0,0l0,0c0.589-0.759,1.251-1.415,1.975-1.979c3.724-3.054,9.119-4.571,16.196-4.571
		c6.424,0,11.046,1.203,13.877,3.632c2.828,2.426,4.246,6.37,4.246,11.817v28.217l0,0h-4.246h-4.3l0,0v-28.38
		c0-3.533-0.844-6.013-2.549-7.464c-1.68-1.438-4.615-2.161-8.764-2.161c-5.12,0-8.967,1.038-11.514,3.104
		c-2.56,2.083-3.913,5.263-4.075,9.574l0,0v25.327l0,0h-4.25H280.341L280.341,426.982z M342.389,426.982v-43.067l0,0h4.049h4.063
		l0,0v5.459l0,0l0,0l1.566-1.486c3.688-3.054,9.07-4.571,16.148-4.571c6.371,0,10.975,1.455,13.804,4.374
		c0.866,0.891,1.604,1.951,2.228,3.218l0,0c0.825-1.127,1.737-2.125,2.765-2.977c3.692-3.083,9.2-4.615,16.519-4.615
		c6.36,0,10.961,1.203,13.791,3.618c2.833,2.408,4.248,6.326,4.248,11.753v28.295l0,0h-4.248h-4.297l0,0v-28.464
		c0-3.505-0.844-5.968-2.528-7.396c-1.672-1.434-4.566-2.145-8.7-2.145c-5.273,0-9.192,1.038-11.716,3.104
		c-2.545,2.083-3.809,5.263-3.809,9.574l0,0v25.327l0,0h-4.251h-4.296l0,0V398.56c0-3.505-0.841-5.971-2.542-7.422
		c-1.691-1.438-4.586-2.161-8.699-2.161c-5.143,0-8.967,1.038-11.5,3.104c-2.528,2.083-3.874,5.263-4.046,9.574l0,0v25.327l0,0
		h-4.25H342.389L342.389,426.982z M462.163,427.583c-8.848,0-14.953-1.408-18.31-4.233c-3.333-2.82-5.006-7.972-5.006-15.436v-4.849
		c0-7.492,1.673-12.653,5.006-15.488c3.357-2.837,9.462-4.262,18.31-4.262c8.852,0,14.953,1.425,18.305,4.262
		c3.337,2.835,5.008,7.996,5.008,15.488v4.849c0,7.464-1.67,12.615-5.008,15.436C477.116,426.175,471.015,427.583,462.163,427.583z
		 M462.163,421.801c5.969,0,9.932-0.911,11.904-2.758c1.966-1.853,2.966-5.568,2.966-11.168v-4.849c0-5.603-1-9.311-2.966-11.166
		c-1.972-1.846-5.935-2.763-11.904-2.763c-5.968,0-9.929,0.917-11.9,2.763c-1.972,1.855-2.966,5.563-2.966,11.166v4.849
		c0,5.6,0.994,9.315,2.966,11.168C452.234,420.89,456.195,421.801,462.163,421.801z M503.125,365.909L503.125,365.909h4.253h4.295
		l0,0v22.75l0,0l0.842-0.834c2.93-2.999,8.115-4.509,15.563-4.509c7.467,0,12.66,1.438,15.589,4.328
		c2.935,2.89,4.405,8.029,4.405,15.422v4.849c0,7.331-1.471,12.453-4.405,15.346c-2.929,2.885-8.122,4.323-15.589,4.323
		c-7.448,0-12.633-1.493-15.563-4.493l-0.842-0.846l0,0v4.737l0,0h-8.548l0,0V365.909L503.125,365.909z M528.11,421.723
		c4.52,0,7.571-0.945,9.133-2.834c1.589-1.878,2.383-5.547,2.383-11.014v-4.849c0-5.466-0.893-9.139-2.701-11.011
		c-1.783-1.896-5.291-2.843-10.483-2.843c-5.802,0-9.71,0.992-11.729,2.98c-2.029,1.971-3.039,5.818-3.039,11.519l0,0v3.557l0,0
		c0,5.695,1.13,9.549,3.407,11.52C517.32,420.738,521.672,421.723,528.11,421.723L528.11,421.723z M566.261,426.982v-43.067l0,0
		h4.249h4.296l0,0v43.067l0,0h-4.25H566.261L566.261,426.982z M566.156,365.909h8.7v7.093h-8.7V365.909z M593.8,426.982v-61.073l0,0
		h4.25h4.301l0,0v61.073l0,0h-4.249H593.8L593.8,426.982z M621.178,426.982v-43.067l0,0h4.249h4.302l0,0v43.067l0,0h-4.249H621.178
		L621.178,426.982z M621.076,365.909h8.697v7.093h-8.697V365.909z M669.711,427.583c-8.362,0-14.181-0.872-17.45-2.64
		c-3.286-1.769-4.92-4.919-4.92-9.441v-2.955c0-4.151,1.604-7.222,4.818-9.191c3.209-1.988,8.164-2.972,14.835-2.972
		c7.35,0,12.461,0.997,15.357,3.008c0.592,0.399,1.129,0.865,1.584,1.399l0,0v-8.697c0-2.229-1.112-3.876-3.332-4.943
		c-2.229-1.069-5.647-1.604-10.304-1.604c-4.637,0-7.822,0.534-9.576,1.604c-1.737,1.067-2.616,3.013-2.616,5.818l0,0h-8.541l0,0
		c0-5.023,1.536-8.492,4.617-10.367c3.068-1.893,8.678-2.837,16.806-2.837c7.115,0,12.479,1.048,16.084,3.114
		c3.61,2.069,5.41,5.137,5.41,9.204v30.898l0,0l0,0h-7.708l0,0v-3.768l0,0l-1.035,0.956
		C680.904,426.445,676.234,427.583,669.711,427.583L669.711,427.583z M670.4,406.246c-5.763,0-9.641,0.491-11.629,1.48
		c-1.991,0.999-2.986,2.898-2.986,5.74v1.076c0,2.834,1.008,4.748,3.019,5.716c2.005,0.97,5.884,1.465,11.649,1.465
		c4.971,0,8.563-0.604,10.769-1.822c2.213-1.22,3.306-3.188,3.306-5.914c0-2.728-1.093-4.706-3.306-5.926
		C679.017,406.847,675.407,406.246,670.4,406.246L670.4,406.246z M711.95,426.982v-43.067l0,0h4.048h4.067l0,0v4.666l0,0l0,0
		l0.684-0.693c3.088-3.054,7.594-4.571,13.49-4.571c5.326,0,9.176,1.015,11.55,3.026c2.376,2.027,3.554,5.316,3.554,9.859v2.811
		h-8.547v-3.247c0-2.493-0.589-4.247-1.768-5.271c-1.197-1.017-3.253-1.518-6.188-1.518c-4.015,0-7.028,1.038-9.052,3.104
		c-2.024,2.071-3.12,5.263-3.286,9.574l0,0v25.327l0,0h-4.25H711.95L711.95,426.982z M765.41,426.982v-43.067l0,0h4.243h4.304l0,0
		v43.067l0,0h-4.246H765.41z M765.309,365.909h8.697v7.093h-8.697V365.909z M814.938,427.583c-8.85,0-14.954-1.408-18.312-4.233
		c-3.336-2.82-5.005-7.972-5.005-15.436v-4.849c0-7.497,1.669-12.656,5.005-15.488c3.357-2.837,9.462-4.262,18.312-4.262
		c8.847,0,14.948,1.425,18.306,4.262c3.339,2.832,5.007,7.991,5.007,15.488v4.849c0,7.464-1.668,12.615-5.007,15.436
		C829.887,426.175,823.785,427.583,814.938,427.583z M814.938,421.801c5.96,0,9.931-0.911,11.896-2.758
		c1.971-1.855,2.968-5.568,2.968-11.168v-4.852c0-5.6-0.997-9.308-2.968-11.163c-1.966-1.846-5.937-2.763-11.896-2.763
		c-5.968,0-9.934,0.917-11.905,2.763c-1.973,1.855-2.965,5.563-2.965,11.163v4.852c0,5.6,0.992,9.312,2.965,11.168
		C805.005,420.89,808.971,421.801,814.938,421.801z M890.212,395.563L890.212,395.563c0-2.671-0.869-4.425-2.589-5.245
		c-1.7-0.807-5.341-1.22-10.918-1.22c-5.209,0-8.75,0.466-10.643,1.405c-1.869,0.931-2.812,2.685-2.812,5.248
		c0,2.44,0.906,4.067,2.765,4.9c1.804,0.826,5.492,1.275,11.058,1.335c8.562,0.093,14.445,1.037,17.681,2.805
		c3.202,1.737,4.808,4.906,4.808,9.504c0,4.796-1.652,8.206-4.958,10.235c-3.318,2.041-8.863,3.053-16.673,3.053
		c-9.673,0-15.998-0.931-18.963-2.805c-2.954-1.881-4.431-5.879-4.431-12.003l0,0h8.293l0,0c0,3.904,0.826,6.387,2.493,7.44
		c1.649,1.059,5.561,1.585,11.717,1.585c5.512,0,9.253-0.518,11.238-1.543c1.99-1.026,2.987-2.96,2.987-5.797
		c0-2.519-0.925-4.205-2.799-5.057c-1.884-0.859-5.696-1.321-11.46-1.412c-8.395-0.104-14.177-1.009-17.349-2.72
		c-3.137-1.712-4.702-4.822-4.702-9.319c0-4.888,1.513-8.222,4.565-9.995c3.053-1.764,8.785-2.643,17.184-2.643
		c8.729,0,14.55,0.82,17.445,2.45c2.9,1.631,4.352,4.892,4.352,9.797l0,0H890.212L890.212,395.563z"/>
	<path fill="#C22825" d="M362.735,197.805c-19.691,10.429-40.213,22.239-40.825,35.923c0,0.111,0,0.223,0.003,0.33
		c0-0.043,0.374,1.287,1.164,1.947c0.045,0.026,1.86,1.217,3.223,1.754c0.06,0.017,3.425,1.132,5.504,1.533
		c-0.132-0.02,3.627,0.595,5.848,0.729c-0.039,0,2.259,0.098,3.322,0.085c-0.127,0,2.382-0.101,3.472-0.229
		c1.38-0.169,2.587-0.414,3.688-0.706c1.442-0.394,2.751-0.842,4.051-1.285c4.136-1.461,8.146-2.957,12.163-4.45
		c12.851-4.839,25.82-9.642,38.901-14.408c23.631-8.632,46.978-17.396,72.076-25.572c1.679-0.548,3.381-1.089,5.138-1.608
		c11.163-3.929,22.044-7.935,32.846-11.971c15.052-5.651,113.735-47.733,55.601-25.181c-19.483,7.562-38.043,15.389-57.688,22.903
		c-2.123,0.807-17.989,5.434-29.109,9.574c-2.304,0.859-4.646,1.707-7.006,2.554c-27.862,8.506-51.935,18.378-76.912,27.782
		c-12.835,4.833-25.604,9.695-38.619,14.474c-3.315,1.212-6.62,2.427-10.042,3.606c0.066-0.452,0.159-0.901,0.288-1.35
		c2.708-0.916,5.354-1.851,8.006-2.787c4.379-1.505,8.717-3.023,13.077-4.536c9.047-3.149,17.628-6.441,26.279-9.709
		c24.815-9.39,48.255-19.464,76.221-27.868c40.443-14.301,77.132-29.727,116.021-44.493c16.849-6.43,118.082-49.228,53.512-23.197
		c-16.702,6.733-33.875,13.462-52.337,19.204c-0.085,0.025,47.131-18.714,61.724-24.491c38.817-15.396,74.801-31.611,121.606-44.521
		c3.589-0.989,29.102-8.685,20.805-6.701c-85.659,20.689-134.342,52.753-211.989,75.648c-19.688,2.909,4.74-2.703,11.545-5.441
		c12.761-5.141,126.421-50.985,126.329-50.964c-95.718,23.696-155.899,61.99-236.106,90.822c-8.66,3.087-17.389,6.153-26.284,9.167
		c-29.132,8.103-52.978,18.342-77.897,27.774c-4.669,1.76-9.317,3.528-13.971,5.292c1.42-0.973,2.851-1.933,4.259-2.873
		c11.808-7.866,25.236-15.376,39.21-22.737c23.084-12.177,45.145-24.606,66.604-37.178c30.379-17.825,72.062-36.891,85.988-57.979
		c0-0.011-6.829,4.44-17.739,11.473c8.017-6.209,15.514-12.517,22.38-18.934c4.027-3.788,8.251-7.536,12.572-11.272
		c9.976-8.678,16.842-18.086,21.716-27.581c1.567-2.507,3.022-5.063,3.272-7.743c0.078-0.937-0.013-1.902-0.579-2.883
		c-0.293-0.503-0.716-1.003-1.324-1.5c-0.762-0.612-1.796-1.211-3.127-1.761c-1.646-0.665-3.689-1.236-5.941-1.64
		c-2.079-0.371-4.269-0.592-6.394-0.658c-2.935-0.093-5.609,0.1-7.987,0.442c-4.185,0.608-7.628,1.575-10.874,2.556
		c-15.784,4.812-27.491,10.913-43.517,15.641c-143.053,42.536-282.896,86.906-396.625,138.509
		c-9.787,4.426-61.486,33.385-86.48,47.459c-13.145,6.758-28.237,14.57-28.843,22.272c5.279-0.368,29.309-16.692,38.422-23.587
		c4.186-2.354,8.593-4.871,10.433-5.886c10.942-6.009,22.311-11.905,34.065-17.702c-6.953,3.764-13.5,7.607-19.546,11.526
		l242.396-98.404c70.218-24.173,145.147-46.806,221.639-68.887c15.816-4.506,27.426-10.368,42.726-15.043
		c-0.615,1.491-1.522,2.946-2.45,4.386c-14.905,27.636-48.853,52.594-85.06,76.309c-33.015,21.52-70.164,42.12-110.158,61.979
		C373.43,191.696,331.512,214.267,362.735,197.805L362.735,197.805z M323.077,236.005L323.077,236.005
		C323.075,236.005,323.075,236.005,323.077,236.005z M326.3,237.759L326.3,237.759L326.3,237.759z M337.652,240.021h0.003H337.652z
		 M348.936,235.795c-0.525,0.184-1.054,0.36-1.591,0.536c-1.206,0.403-2.426,0.81-3.771,1.165c-0.735,0.195-1.522,0.364-2.446,0.475
		c-0.175,0.025-1.966,0.136-1.838,0.136c-0.139,0-2.097-0.039-1.962-0.032c-0.719-0.042-2.658-0.287-2.773-0.293
		c-0.807-0.166-3.651-0.897-3.55-0.859c-0.464-0.188-2.078-1.028-2.083-1.015c-0.129-0.118-0.873-1.293-0.873-1.252
		c0.073-1.075,0.264-2.145,0.562-3.208c0.241-0.034,0.479-0.073,0.649-0.096c0.215-0.024,1.519-0.109,2.203-0.156
		c-0.429,1.208-0.727,2.426-0.865,3.659c0.011,0,0.158,0.531,0.467,0.789c0.032,0.02,0.755,0.493,1.287,0.701
		c0.05,0.02,1.395,0.459,2.196,0.618c-0.133-0.02,1.435,0.232,2.326,0.287c0.007,0,0.928,0.04,1.344,0.033
		c-0.007,0,1.032-0.042,1.463-0.091c0.755-0.091,1.4-0.228,2-0.387c1.323-0.332,2.508-0.72,3.689-1.102
		c0.964-0.305,1.91-0.61,2.851-0.922C348.397,235.005,348.685,235.426,348.936,235.795L348.936,235.795z M328.646,231.322
		c4.889-16.791,37.345-31.581,62.236-44.207c11.002-5.58,21.779-11.221,32.928-16.76c10.512-5.265,61.176-34.577,27.421-14.463
		c-18.294,10.853-37.689,21.44-57.717,31.876c-23.64,12.288-54.927,26.429-61.682,42.485c-0.554,0.19-1.116,0.378-1.678,0.568
		C329.656,230.99,329.16,231.159,328.646,231.322L328.646,231.322z M330.598,234.854v0.001V234.854z M331.064,235.643v0.005
		C331.062,235.643,331.062,235.641,331.064,235.643z M332.351,236.344h0.002C332.348,236.344,332.348,236.344,332.351,236.344z
		 M336.874,237.249h0.015H336.874z M338.217,237.281h0.008H338.217z M443.308,171.671c-13.545,8.113-25.723,15.122-34.777,19.836
		c-8.492,4.416-16.741,8.896-24.497,13.489c7.847-5.189,15.989-10.264,22.88-13.887C419.137,184.681,431.319,178.21,443.308,171.671
		L443.308,171.671z M164.933,182.571c69.336-29.079,147.312-55.8,227.51-81.434c10.182-3.25,120.726-36.354,120.64-36.328
		c-97.448,29.209-191.414,59.645-279.433,91.895C210.794,165.082,187.36,173.654,164.933,182.571L164.933,182.571z M545.346,96.361
		c-29.85,24.479-67.838,47.402-108.012,69.597c-0.062,0.034,72.854-43.938,97.505-62.561
		C538.044,100.971,542.257,98.796,545.346,96.361L545.346,96.361z M478.596,72.405c18.208-5.569,36.668-11.058,55.168-16.536
		c16.12-4.711,27.859-10.824,43.734-15.618c2.603-0.79,5.355-1.606,8.727-2.09c0.918-0.128,1.966-0.25,3.104-0.211
		c0.357,0.011,0.729,0.039,1.076,0.101c0.326,0.062,0.612,0.145,0.847,0.244c0.332,0.135,0.562,0.287,0.752,0.442
		c0.272,0.22,0.442,0.454,0.572,0.677c0.403,0.709,0.423,1.406,0.361,2.086c-0.261,2.516-1.692,4.926-3.18,7.286
		c-5.696,10.88-48.806,57.183-16.704,21.15c6.116-6.949,11.882-13.975,15.885-21.249c1.529-2.35,3.02-4.746,3.273-7.258
		c0.052-0.662,0.045-1.345-0.358-2.035c-0.121-0.205-0.28-0.42-0.534-0.625c-0.149-0.124-0.338-0.249-0.604-0.356
		c-0.146-0.062-0.319-0.114-0.521-0.15c-0.234-0.042-0.481-0.062-0.723-0.068c-1.019-0.031-1.952,0.086-2.772,0.208
		c-0.858,0.128-1.659,0.281-2.433,0.447c-2.194,0.482-4.166,1.044-6.066,1.627c-15.754,4.838-27.525,10.945-43.648,15.663
		c-7.493,2.209-105.828,31.854-105.744,31.831C445.27,82.741,462.311,77.694,478.596,72.405L478.596,72.405z M595.655,51.622
		c0.017-0.039-15.111,20.708-24.977,30.209c-54.508,51.851,11.135-13.988,23.616-30.456
		C595.447,49.912,595.639,51.661,595.655,51.622L595.655,51.622z"/>
	<path fill="#C22825" d="M733.052,86.156c-0.934,0.288-1.858,0.572-2.789,0.86c20.743-7.601,44.023-14.369,67.899-20.918
		c4.018-1.103,11.506-4.278,17.749-4.417c-3.237,2.829-18.354,5.191-25.142,7.048C785.311,70.22,733.006,86.196,733.052,86.156
		L733.052,86.156z"/>
	<path fill="#C22825" d="M664.283,112.361c48.981-20.362-0.02,0.06-0.013,0.018C664.273,112.374,664.273,112.37,664.283,112.361z"/>
	<path fill="#C22825" d="M423.933,178.458c-7.199,3.833-14.461,7.653-21.771,11.463c-7.908,4.111-16.797,8.482-25.28,13.091
		c1.184-0.685,2.357-1.365,3.507-2.038c6.586-3.85,13.456-7.632,20.556-11.353c33.007-17.351,64.896-34.978,94.369-53.168
		c19.999-12.364,9.635-5.017-1.118,2.043L423.933,178.458L423.933,178.458z M376.882,203.012c-6.999,3.807-13.725,7.78-19.376,11.9
		C363.5,210.75,370.381,206.79,376.882,203.012z M357.506,214.913c-6.836,4.977-12.121,10.175-14.477,15.581
		c1.772-0.639,3.537-1.28,5.296-1.923c13.01-4.77,25.804-9.604,38.682-14.416c25.157-9.392,49.173-19.552,78.319-27.68l24.136-8.495
		c-7.979,2.902-16.024,5.787-24.256,8.609c-28.848,8.174-52.712,18.324-77.643,27.732c-12.82,4.829-25.522,9.689-38.463,14.481
		c-2.104,0.774-4.207,1.554-6.336,2.32c-0.615,1.566-0.982,3.147-1.064,4.75c0,0.042-0.143-0.451-0.417-0.682
		c-0.003,0-0.244-0.158-0.544-0.329c0.128-1.118,0.406-2.218,0.821-3.306c-1.439,0.509-2.89,1.023-4.373,1.521
		c-0.605,0.207-1.211,0.41-1.843,0.607c-0.227-0.008-0.462-0.013-0.622-0.01c-0.032,0.001-0.821,0.031-1.146,0.07
		c-0.284,0.035-0.592,0.11-0.207,0.009c1.072-0.283,2.032-0.611,3-0.935l2.877-0.988c0.863-0.299,1.715-0.602,2.567-0.905
		C344.237,225.298,350.223,219.959,357.506,214.913L357.506,214.913z M340.74,234.862c-0.205-0.116-0.437-0.243-0.645-0.321
		c0.003,0,0,0-0.003-0.001l0.003,0.001 M338.055,233.972c0.137,0.021-1.316-0.216-2.141-0.272c-0.012,0-0.28-0.01-0.57-0.016
		c-0.393,0.119-0.789,0.241-1.204,0.354c-0.239,0.061-0.438,0.082-0.011,0.029c0.038-0.003,0.792-0.053,0.803-0.055
		c0.116,0.001,1.014,0.021,0.96,0.013c0.376,0.025,1.349,0.148,1.419,0.153c0.374,0.08,1.887,0.467,1.848,0.447
		c0.2,0.082,1.06,0.532,1.067,0.526c0.052,0.053,0.438,0.652,0.438,0.613c0.017-0.302,0.044-0.603,0.075-0.902 M335.915,233.7
		h-0.012H335.915z"/>
	<path fill="#C22825" d="M516.284,57.415c-50.229,15.137-100.247,30.356-148.957,45.999
		c-53.44,17.163-105.404,34.843-154.122,53.484c-8.395,3.216-52.717,21.588-20.51,8.842l97.817-35.801l148.511-48.123
		c29.893-9.222,59.871-18.415,90.173-27.499c3.114-0.925,5.978-1.933,8.781-2.949c-2.967,0.958-5.986,1.915-9.318,2.748
		C524.528,55.21,520.408,56.312,516.284,57.415L516.284,57.415z"/>
	<path fill="#F3BE00" d="M643.199,192.271c-8.975,4.752-18.325,10.132-18.603,16.368c-0.003,0.048-0.003,0.1,0,0.15
		c0-0.02,0.166,0.586,0.531,0.888c0.02,0.011,0.846,0.553,1.464,0.797c0.026,0.008,1.565,0.519,2.506,0.699
		c-0.06-0.008,1.655,0.272,2.667,0.333c-0.017,0,1.029,0.043,1.513,0.037c-0.058,0.002,1.085-0.043,1.585-0.104
		c0.632-0.075,1.179-0.184,1.679-0.319c0.658-0.182,1.25-0.384,1.85-0.589c1.883-0.662,3.708-1.344,5.543-2.027
		c5.852-2.201,11.76-4.391,17.721-6.561c10.77-3.934,21.403-7.926,32.837-11.652c0.768-0.252,1.542-0.5,2.346-0.733
		c5.086-1.791,10.041-3.617,14.964-5.455c6.859-2.577,51.82-21.749,25.331-11.471c-8.876,3.444-17.333,7.013-26.28,10.433
		c-0.967,0.371-8.197,2.476-13.267,4.361c-1.05,0.395-2.114,0.78-3.191,1.164c-12.693,3.88-23.665,8.378-35.043,12.662
		c-5.847,2.201-11.668,4.412-17.597,6.593c-1.51,0.551-3.013,1.106-4.574,1.643c0.029-0.208,0.071-0.409,0.13-0.616
		c1.236-0.415,2.44-0.842,3.647-1.269c1.998-0.684,3.973-1.38,5.958-2.065c4.122-1.438,8.036-2.94,11.974-4.427
		c11.307-4.279,21.985-8.868,34.73-12.695c18.43-6.52,35.144-13.546,52.863-20.276c7.677-2.926,53.802-22.428,24.381-10.568
		c-7.61,3.068-15.437,6.135-23.85,8.751c-0.033,0.012,21.475-8.528,28.125-11.162c17.688-7.011,34.08-14.398,55.412-20.283
		c1.63-0.451,13.255-3.958,9.471-3.057c-39.022,9.43-61.206,24.04-96.588,34.473c-8.967,1.321,2.16-1.234,5.262-2.479
		c5.821-2.344,57.607-23.235,57.562-23.223c-43.613,10.798-71.036,28.245-107.579,41.383c-3.947,1.407-7.923,2.805-11.977,4.176
		c-13.272,3.693-24.137,8.355-35.492,12.655c-2.129,0.802-4.243,1.604-6.365,2.408c0.651-0.442,1.302-0.875,1.942-1.305
		c5.379-3.588,11.5-7.008,17.861-10.36c10.521-5.552,20.576-11.214,30.351-16.939c13.841-8.125,32.83-16.812,39.178-26.417
		c0-0.01-3.113,2.02-8.085,5.227c3.656-2.831,7.07-5.706,10.203-8.629c1.829-1.725,3.759-3.434,5.727-5.136
		c4.543-3.952,7.673-8.237,9.895-12.564c0.714-1.146,1.377-2.312,1.491-3.529c0.035-0.426-0.004-0.867-0.264-1.316
		c-0.134-0.23-0.325-0.455-0.605-0.682c-0.345-0.282-0.816-0.553-1.425-0.799c-0.749-0.305-1.683-0.564-2.708-0.75
		c-0.943-0.168-1.945-0.268-2.911-0.299c-1.338-0.043-2.554,0.045-3.639,0.202c-1.906,0.273-3.478,0.719-4.955,1.165
		c-7.197,2.189-12.526,4.97-19.824,7.124c-65.183,19.381-128.898,39.598-180.717,63.108c-4.458,2.019-28.019,15.213-39.406,21.625
		c-5.988,3.083-12.865,6.64-13.143,10.15c2.408-0.168,13.356-7.604,17.508-10.749c1.909-1.068,3.916-2.219,4.756-2.682
		c4.983-2.738,10.165-5.425,15.518-8.067c-3.169,1.72-6.151,3.469-8.907,5.255l110.444-44.837
		c31.994-11.012,66.136-21.328,100.99-31.387c7.204-2.053,12.494-4.721,19.464-6.854c-0.279,0.677-0.69,1.345-1.116,2
		c-6.791,12.59-22.256,23.961-38.755,34.766c-15.046,9.802-31.973,19.192-50.193,28.239c-5.453,2.715-24.553,12.998-10.327,5.496
		H643.199z M625.128,209.678L625.128,209.678L625.128,209.678z M626.592,210.475L626.592,210.475L626.592,210.475z M631.765,211.507
		L631.765,211.507L631.765,211.507z M636.906,209.582c-0.237,0.083-0.479,0.163-0.723,0.241c-0.55,0.188-1.105,0.369-1.722,0.533
		c-0.331,0.09-0.695,0.168-1.108,0.218c-0.085,0.01-0.898,0.061-0.841,0.059c-0.064,0-0.956-0.017-0.894-0.011
		c-0.329-0.02-1.215-0.135-1.266-0.135c-0.365-0.075-1.663-0.409-1.621-0.394c-0.208-0.082-0.943-0.463-0.943-0.46
		c-0.059-0.054-0.396-0.591-0.396-0.569c0.032-0.49,0.116-0.976,0.253-1.459c0.111-0.021,0.218-0.037,0.297-0.046
		c0.101-0.011,0.692-0.05,1.005-0.075c-0.198,0.551-0.335,1.106-0.396,1.668c0.007,0,0.071,0.244,0.211,0.359
		c0.02,0.013,0.349,0.228,0.589,0.319c0.02,0.008,0.632,0.212,0.999,0.282c-0.055-0.01,0.654,0.105,1.062,0.133
		c0.003-0.001,0.426,0.015,0.608,0.014c0,0,0.475-0.017,0.67-0.041c0.345-0.041,0.638-0.105,0.908-0.175
		c0.604-0.152,1.148-0.328,1.686-0.501c0.438-0.137,0.875-0.276,1.297-0.419C636.662,209.22,636.795,209.413,636.906,209.582
		L636.906,209.582z M627.665,207.546c2.227-7.656,17.014-14.393,28.354-20.147c5.015-2.54,9.924-5.11,15.007-7.633
		c4.789-2.4,27.872-15.755,12.49-6.589c-8.339,4.942-17.17,9.77-26.3,14.521c-10.77,5.6-25.024,12.04-28.102,19.36
		c-0.252,0.083-0.512,0.173-0.766,0.26C628.121,207.39,627.899,207.469,627.665,207.546L627.665,207.546z M628.551,209.151v0.003
		V209.151z M628.762,209.51h0.004H628.762z M629.351,209.829v0.003C629.351,209.829,629.351,209.829,629.351,209.829z
		 M631.411,210.244h0.003H631.411z M632.02,210.257h0.006H632.02z M679.904,180.365c-6.172,3.696-11.717,6.888-15.842,9.037
		c-3.876,2.013-7.634,4.051-11.164,6.145c3.575-2.366,7.285-4.675,10.426-6.326C668.891,186.292,674.441,183.342,679.904,180.365
		L679.904,180.365z M553.069,185.33c31.595-13.249,67.119-25.426,103.665-37.101c4.634-1.484,55.001-16.564,54.963-16.558
		c-44.401,13.313-87.214,27.181-127.313,41.871C573.965,177.36,563.286,181.269,553.069,185.33L553.069,185.33z M726.397,146.052
		c-13.601,11.15-30.907,21.593-49.214,31.71c-0.029,0.017,33.192-20.019,44.427-28.503
		C723.072,148.152,724.989,147.16,726.397,146.052L726.397,146.052z M695.988,135.138c8.29-2.542,16.704-5.042,25.132-7.536
		c7.347-2.147,12.696-4.931,19.933-7.114c1.184-0.363,2.434-0.734,3.973-0.954c0.417-0.062,0.895-0.111,1.415-0.096
		c0.163,0.004,0.325,0.018,0.488,0.046c0.149,0.027,0.28,0.065,0.384,0.109c0.153,0.065,0.258,0.132,0.345,0.201
		c0.124,0.104,0.202,0.209,0.264,0.312c0.179,0.322,0.192,0.639,0.159,0.95c-0.116,1.147-0.768,2.242-1.444,3.32
		c-2.597,4.954-22.239,26.055-7.614,9.638c2.789-3.167,5.418-6.371,7.237-9.684c0.696-1.071,1.376-2.163,1.497-3.305
		c0.022-0.306,0.016-0.614-0.17-0.929c-0.056-0.093-0.124-0.191-0.241-0.287c-0.071-0.055-0.155-0.109-0.272-0.159
		c-0.065-0.028-0.15-0.054-0.238-0.068c-0.107-0.018-0.224-0.028-0.328-0.033c-0.469-0.015-0.892,0.044-1.263,0.093
		c-0.394,0.063-0.761,0.13-1.112,0.209c-0.996,0.214-1.895,0.474-2.76,0.741c-7.182,2.203-12.546,4.987-19.893,7.132
		c-3.41,1.009-48.215,14.517-48.183,14.506C680.799,139.846,688.562,137.545,695.988,135.138L695.988,135.138z M749.317,125.665
		c0.01-0.021-6.883,9.435-11.375,13.768c-24.84,23.624,5.068-6.375,10.76-13.879C749.226,124.885,749.311,125.686,749.317,125.665
		L749.317,125.665z"/>
	<path fill="#F3BE00" d="M811.926,141.406c-0.426,0.128-0.85,0.256-1.276,0.386c9.456-3.462,20.06-6.544,30.94-9.527
		c1.832-0.504,5.245-1.952,8.09-2.017c-1.481,1.29-8.365,2.368-11.46,3.216C835.737,134.14,811.906,141.419,811.926,141.406
		L811.926,141.406z"/>
	<path fill="#F3BE00" d="M780.586,153.34c22.321-9.278-0.007,0.029-0.004,0.008C780.582,153.346,780.586,153.344,780.586,153.34z"/>
	<path fill="#F3BE00" d="M671.077,183.455c-3.276,1.747-6.586,3.49-9.921,5.226c-3.602,1.872-7.649,3.864-11.515,5.964
		c0.54-0.31,1.073-0.625,1.598-0.931c3.003-1.752,6.133-3.476,9.367-5.167c15.036-7.908,29.57-15.94,42.991-24.23
		c9.117-5.635,4.394-2.281-0.504,0.932L671.077,183.455L671.077,183.455z M649.642,194.644c-3.189,1.734-6.251,3.543-8.831,5.421
		C643.543,198.173,646.681,196.365,649.642,194.644z M640.811,200.065c-3.117,2.27-5.524,4.638-6.592,7.103
		c0.807-0.295,1.607-0.586,2.408-0.881c5.931-2.171,11.758-4.373,17.629-6.565c11.462-4.279,22.405-8.909,35.684-12.61l11-3.872
		c-3.637,1.321-7.301,2.634-11.056,3.921c-13.146,3.727-24.019,8.35-35.372,12.637c-5.844,2.198-11.632,4.416-17.531,6.599
		c-0.956,0.35-1.916,0.708-2.886,1.056c-0.28,0.718-0.446,1.438-0.488,2.167c0,0.018-0.058-0.207-0.182-0.312
		c0,0-0.117-0.073-0.254-0.151c0.059-0.505,0.186-1.009,0.378-1.507c-0.658,0.234-1.321,0.464-1.992,0.694
		c-0.279,0.091-0.553,0.186-0.839,0.275c-0.104-0.003-0.215-0.003-0.286-0.003c-0.014,0-0.374,0.016-0.521,0.031
		c-0.13,0.013-0.273,0.052-0.098,0.006c0.488-0.131,0.931-0.28,1.367-0.426l1.314-0.45c0.394-0.139,0.78-0.277,1.168-0.416
		C634.765,204.797,637.495,202.37,640.811,200.065L640.811,200.065z M633.171,209.156c-0.091-0.051-0.198-0.109-0.287-0.146h-0.003
		h0.003 M631.947,208.754c0.06,0.01-0.596-0.101-0.973-0.125c-0.004,0-0.127-0.003-0.257-0.01c-0.176,0.059-0.361,0.109-0.554,0.159
		c-0.11,0.029-0.195,0.038-0.007,0.015c0.02,0,0.365-0.023,0.371-0.026c0.046,0.003,0.459,0.011,0.433,0.007
		c0.173,0.011,0.615,0.071,0.648,0.073c0.176,0.034,0.861,0.215,0.842,0.202c0.092,0.037,0.482,0.242,0.492,0.241
		c0.017,0.022,0.198,0.298,0.198,0.277c0.007-0.137,0.017-0.274,0.029-0.41 M630.975,208.628h-0.004H630.975z"/>
	<path fill="#F3BE00" d="M713.158,128.303c-22.888,6.896-45.674,13.834-67.871,20.959c-24.348,7.824-48.024,15.88-70.222,24.371
		c-3.824,1.466-24.02,9.836-9.345,4.03l44.569-16.312l67.665-21.929c13.617-4.204,27.28-8.387,41.089-12.526
		c1.418-0.423,2.72-0.88,3.996-1.347c-1.351,0.438-2.724,0.872-4.243,1.254C716.913,127.301,715.035,127.804,713.158,128.303
		L713.158,128.303z"/>
	<path fill="#B2B4B7" d="M842.251,184.403c-7.503,3.976-15.326,8.477-15.554,13.688c0,0.044,0,0.084,0,0.127
		c0-0.015,0.144,0.49,0.443,0.742c0.02,0.01,0.709,0.465,1.229,0.669c0.02,0.006,1.305,0.434,2.096,0.585
		c-0.053-0.007,1.387,0.225,2.229,0.278c-0.014-0.003,0.861,0.035,1.266,0.026c-0.047,0.004,0.91-0.032,1.323-0.08
		c0.523-0.069,0.986-0.161,1.409-0.273c0.547-0.148,1.042-0.317,1.54-0.488c1.574-0.555,3.104-1.124,4.636-1.696
		c4.894-1.844,9.839-3.674,14.821-5.49c9.005-3.29,17.898-6.63,27.464-9.744c0.639-0.208,1.288-0.414,1.96-0.612
		c4.256-1.498,8.396-3.026,12.52-4.563c5.727-2.149,43.33-18.187,21.179-9.592c-7.422,2.881-14.496,5.863-21.977,8.726
		c-0.812,0.308-6.855,2.072-11.095,3.645c-0.881,0.333-1.771,0.654-2.671,0.975c-10.614,3.244-19.789,7.003-29.307,10.586
		c-4.89,1.841-9.758,3.694-14.714,5.515c-1.262,0.46-2.521,0.927-3.826,1.375c0.021-0.171,0.062-0.345,0.107-0.513
		c1.031-0.346,2.036-0.707,3.053-1.061c1.665-0.575,3.317-1.154,4.984-1.729c3.445-1.202,6.715-2.457,10.015-3.701
		c9.448-3.58,18.384-7.417,29.041-10.623c15.412-5.448,29.39-11.323,44.208-16.952c6.419-2.449,44.993-18.756,20.395-8.837
		c-6.364,2.567-12.911,5.127-19.946,7.319c-0.031,0.01,17.957-7.137,23.519-9.333c14.795-5.868,28.499-12.045,46.337-16.968
		c1.369-0.374,11.092-3.306,7.925-2.546c-32.638,7.879-51.19,20.095-80.774,28.82c-7.506,1.108,1.811-1.027,4.399-2.071
		c4.862-1.96,48.172-19.43,48.138-19.421c-36.473,9.031-59.407,23.624-89.968,34.606c-3.299,1.178-6.624,2.346-10.014,3.495
		c-11.103,3.089-20.188,6.989-29.685,10.587c-1.776,0.666-3.55,1.338-5.32,2.008c0.54-0.368,1.087-0.732,1.621-1.092
		c4.5-2.995,9.617-5.86,14.94-8.66c8.796-4.645,17.206-9.38,25.379-14.167c11.574-6.798,27.46-14.059,32.767-22.096
		c0-0.005-2.603,1.693-6.76,4.371c3.056-2.362,5.912-4.768,8.529-7.212c1.531-1.448,3.143-2.87,4.789-4.296
		c3.801-3.304,6.417-6.893,8.278-10.509c0.591-0.957,1.145-1.934,1.242-2.952c0.033-0.358-0.006-0.721-0.222-1.096
		c-0.109-0.191-0.272-0.382-0.5-0.575c-0.29-0.232-0.694-0.46-1.194-0.669c-0.625-0.254-1.406-0.468-2.261-0.624
		c-0.798-0.142-1.628-0.228-2.435-0.251c-1.122-0.035-2.142,0.038-3.049,0.168c-1.598,0.234-2.908,0.6-4.142,0.974
		c-6.013,1.832-10.477,4.159-16.588,5.959c-54.505,16.207-107.794,33.117-151.128,52.778c-3.729,1.687-23.43,12.722-32.953,18.083
		c-5.008,2.578-10.754,5.555-10.985,8.486c2.008-0.138,11.161-6.36,14.64-8.988c1.591-0.896,3.272-1.854,3.972-2.24
		c4.172-2.287,8.502-4.533,12.982-6.745c-2.651,1.434-5.144,2.894-7.45,4.389l92.364-37.493
		c26.752-9.211,55.307-17.837,84.454-26.249c6.026-1.716,10.451-3.952,16.281-5.732c-0.233,0.566-0.582,1.121-0.934,1.67
		c-5.684,10.531-18.617,20.037-32.414,29.071c-12.575,8.204-26.735,16.056-41.974,23.622
		C846.327,182.075,830.354,190.674,842.251,184.403L842.251,184.403z M827.141,198.96L827.141,198.96L827.141,198.96z
		 M828.37,199.629h0.003C828.37,199.629,828.37,199.629,828.37,199.629z M832.695,200.492h0.003H832.695z M836.993,198.881
		c-0.196,0.064-0.404,0.136-0.599,0.202c-0.466,0.156-0.931,0.31-1.441,0.447c-0.284,0.072-0.582,0.137-0.934,0.18
		c-0.066,0.007-0.75,0.05-0.703,0.046c-0.05,0.004-0.798-0.008-0.742-0.008c-0.277-0.016-1.017-0.11-1.062-0.11
		c-0.305-0.062-1.389-0.342-1.35-0.327c-0.172-0.072-0.795-0.392-0.795-0.392c-0.048-0.041-0.335-0.49-0.335-0.472
		c0.03-0.413,0.104-0.818,0.216-1.219c0.094-0.017,0.186-0.032,0.247-0.042c0.085-0.006,0.579-0.042,0.839-0.058
		c-0.163,0.461-0.272,0.924-0.324,1.391c0,0.005,0.058,0.207,0.175,0.303c0.014,0.01,0.287,0.188,0.488,0.265
		c0.016,0.01,0.534,0.179,0.839,0.236c-0.051-0.003,0.548,0.091,0.889,0.112c0,0,0.352,0.014,0.508,0.014
		c0,0,0.394-0.017,0.557-0.037c0.293-0.033,0.534-0.09,0.765-0.146c0.504-0.129,0.953-0.277,1.405-0.42
		c0.368-0.119,0.726-0.233,1.083-0.353C836.791,198.576,836.901,198.739,836.993,198.881L836.993,198.881z M829.261,197.179
		c1.869-6.402,14.232-12.036,23.717-16.85c4.194-2.121,8.298-4.271,12.551-6.387c4.003-2.004,23.307-13.175,10.443-5.507
		c-6.969,4.132-14.358,8.172-21.988,12.144c-9.013,4.684-20.934,10.067-23.505,16.191c-0.215,0.07-0.426,0.145-0.642,0.217
		C829.648,197.05,829.46,197.113,829.261,197.179L829.261,197.179z M830.011,198.519v0.005V198.519z M830.186,198.822v0.003
		C830.186,198.822,830.186,198.822,830.186,198.822z M830.674,199.087L830.674,199.087L830.674,199.087z M832.398,199.435h0.007
		H832.398z M832.909,199.449h0.003H832.909z M872.953,174.448c-5.161,3.089-9.8,5.759-13.249,7.557
		c-3.235,1.679-6.378,3.393-9.335,5.14c2.99-1.977,6.094-3.908,8.723-5.291C863.744,179.401,868.388,176.937,872.953,174.448z
		 M766.881,178.6c26.421-11.081,56.134-21.262,86.692-31.029c3.879-1.238,46.002-13.851,45.969-13.841
		c-37.131,11.127-72.935,22.727-106.479,35.015C784.36,171.931,775.425,175.201,766.881,178.6L766.881,178.6z M911.835,145.75
		c-11.374,9.329-25.848,18.063-41.159,26.52c-0.02,0.013,27.767-16.744,37.158-23.839
		C909.054,147.505,910.658,146.677,911.835,145.75L911.835,145.75z M886.403,136.623c6.935-2.125,13.97-4.215,21.021-6.302
		c6.143-1.795,10.613-4.126,16.666-5.952c0.989-0.301,2.039-0.613,3.325-0.792c0.352-0.052,0.745-0.098,1.181-0.082
		c0.136,0.001,0.276,0.011,0.41,0.033c0.127,0.026,0.231,0.057,0.321,0.097c0.124,0.046,0.216,0.109,0.287,0.168
		c0.104,0.086,0.169,0.173,0.219,0.259c0.151,0.267,0.162,0.534,0.139,0.79c-0.104,0.964-0.645,1.878-1.21,2.777
		c-2.173,4.149-18.598,21.791-6.364,8.06c2.325-2.644,4.526-5.325,6.052-8.094c0.579-0.895,1.146-1.81,1.243-2.764
		c0.02-0.253,0.02-0.514-0.134-0.777c-0.049-0.078-0.107-0.163-0.206-0.241c-0.057-0.043-0.129-0.091-0.226-0.135
		c-0.059-0.021-0.124-0.041-0.202-0.059c-0.088-0.013-0.183-0.02-0.274-0.024c-0.39-0.008-0.748,0.037-1.058,0.079
		c-0.328,0.049-0.633,0.111-0.927,0.173c-0.833,0.182-1.587,0.397-2.31,0.618c-6.007,1.845-10.484,4.174-16.634,5.969
		c-2.856,0.839-40.327,12.136-40.294,12.128C873.701,140.564,880.196,138.639,886.403,136.623L886.403,136.623z M931.006,128.702
		c0-0.015-5.758,7.892-9.52,11.515c-20.772,19.755,4.242-5.331,8.999-11.606C930.926,128.048,931,128.72,931.006,128.702z"/>
	<path fill="#B2B4B7" d="M983.36,151.859c-0.354,0.107-0.711,0.216-1.062,0.327c7.901-2.899,16.773-5.477,25.869-7.974
		c1.529-0.42,4.389-1.63,6.764-1.682c-1.233,1.077-6.993,1.978-9.575,2.686C1003.273,145.784,983.34,151.873,983.36,151.859
		L983.36,151.859z"/>
	<path fill="#B2B4B7" d="M957.156,161.846c18.665-7.762-0.009,0.021-0.003,0.003C957.153,161.849,957.153,161.849,957.156,161.846z"
		/>
	<path fill="#B2B4B7" d="M865.567,177.033c-2.737,1.458-5.506,2.914-8.29,4.367c-3.018,1.565-6.403,3.233-9.636,4.99
		c0.453-0.264,0.897-0.521,1.338-0.777c2.505-1.466,5.128-2.908,7.832-4.326c12.576-6.611,24.726-13.326,35.958-20.259
		c7.622-4.709,3.672-1.912-0.424,0.779L865.567,177.033L865.567,177.033z M847.642,186.389c-2.664,1.452-5.229,2.964-7.382,4.536
		C842.543,189.337,845.166,187.824,847.642,186.389z M840.26,190.925c-2.605,1.896-4.621,3.879-5.52,5.933
		c0.677-0.241,1.349-0.486,2.018-0.73c4.959-1.814,9.833-3.657,14.743-5.493c9.586-3.581,18.738-7.449,29.843-10.547l9.199-3.24
		c-3.046,1.104-6.107,2.205-9.247,3.285c-10.991,3.113-20.085,6.981-29.583,10.565c-4.884,1.84-9.729,3.692-14.654,5.521
		c-0.801,0.294-1.608,0.589-2.418,0.881c-0.232,0.596-0.374,1.199-0.407,1.812c0,0.014-0.048-0.176-0.157-0.265
		c0,0-0.09-0.059-0.208-0.122c0.05-0.425,0.157-0.846,0.317-1.261c-0.551,0.195-1.104,0.389-1.67,0.581
		c-0.233,0.075-0.463,0.156-0.699,0.229c-0.088-0.001-0.177-0.003-0.237-0.001c-0.014,0-0.313,0.015-0.438,0.026
		c-0.11,0.014-0.228,0.044-0.077,0.004c0.406-0.108,0.774-0.232,1.139-0.358l1.097-0.378c0.335-0.111,0.657-0.227,0.979-0.344
		C835.206,194.881,837.48,192.848,840.26,190.925L840.26,190.925z M833.868,198.526c-0.076-0.042-0.166-0.093-0.244-0.123l0,0l0,0
		 M832.851,198.186c0.048,0.008-0.504-0.082-0.82-0.104c-0.003,0-0.102-0.003-0.218-0.003c-0.148,0.043-0.3,0.087-0.455,0.135
		c-0.092,0.021-0.166,0.026-0.008,0.008c0.014-0.001,0.304-0.018,0.31-0.021c0.044,0.004,0.388,0.01,0.362,0.008
		c0.143,0.01,0.514,0.056,0.539,0.056c0.144,0.031,0.723,0.18,0.706,0.169c0.078,0.034,0.407,0.208,0.41,0.205
		c0.017,0.017,0.166,0.247,0.166,0.23c0.006-0.114,0.014-0.226,0.025-0.343 M832.03,198.082h-0.003H832.03z"/>
	<path fill="#B2B4B7" d="M900.759,130.911c-19.138,5.767-38.195,11.562-56.757,17.528c-20.363,6.54-40.161,13.275-58.725,20.38
		c-3.202,1.223-20.088,8.224-7.819,3.368l37.272-13.645l56.597-18.34c11.38-3.505,22.809-7.01,34.359-10.475
		c1.184-0.348,2.271-0.734,3.345-1.121c-1.133,0.366-2.285,0.727-3.553,1.047C903.902,130.073,902.335,130.49,900.759,130.911
		L900.759,130.911z"/>
	<polygon fill="#989B9F" points="244.778,255.125 904.768,255.125 904.768,268.504 244.778,268.504 	"/>
</g>
</svg>
