<?xml version="1.0" encoding="utf-8"?>
<!-- Generator: Adobe Illustrator 16.0.0, SVG Export Plug-In . SVG Version: 6.00 Build 0)  -->
<!DOCTYPE svg PUBLIC "-//W3C//DTD SVG 1.1//EN" "http://www.w3.org/Graphics/SVG/1.1/DTD/svg11.dtd">
<svg version="1.1" id="Layer_1" xmlns="http://www.w3.org/2000/svg" xmlns:xlink="http://www.w3.org/1999/xlink" x="0px" y="0px"
	 width="150px" height="160px" viewBox="0 0 150 160" enable-background="new 0 0 150 160" xml:space="preserve">
<path fill="#7D8286" d="M27.832,96.691v-9.594l0,0h0.718l0,0h3.823c2.095,0,3.501,0.277,4.189,0.834
	c0.703,0.557,1.04,1.656,1.04,3.311v0.029v1.246c0,1.67-0.322,2.783-0.967,3.34c-0.659,0.557-1.963,0.834-3.911,0.834H28.55l0,0
	H27.832z M29.268,95.652L29.268,95.652h3.442c1.45,0,2.402-0.191,2.827-0.572s0.63-1.23,0.63-2.549v-1.244
	c0-1.318-0.234-2.168-0.703-2.549s-1.494-0.572-3.105-0.572h-3.105l0,0v7.486H29.268z M43.857,96.795
	c-1.304,0-2.197-0.221-2.681-0.66s-0.732-1.244-0.732-2.416v-0.762c0-1.172,0.264-1.992,0.791-2.432s1.494-0.674,2.9-0.674
	c1.304,0,2.197,0.234,2.695,0.703c0.483,0.469,0.732,1.303,0.732,2.52v0.043v0.484l0,0h-5.801l0,0v0.117
	c0,0.879,0.146,1.465,0.454,1.758c0.293,0.293,0.908,0.439,1.802,0.439c0.938,0,1.538-0.074,1.802-0.234
	c0.278-0.162,0.41-0.514,0.41-1.055l0,0h1.333l0,0c0,0.834-0.264,1.406-0.806,1.713C46.23,96.633,45.264,96.795,43.857,96.795z
	 M46.274,92.664L46.274,92.664c-0.029-0.703-0.176-1.188-0.439-1.436c-0.293-0.309-0.908-0.469-1.816-0.469
	s-1.509,0.146-1.802,0.439c-0.264,0.248-0.41,0.746-0.454,1.479l0,0h4.512V92.664z M55.898,91.77L55.898,91.77
	c0-0.424-0.132-0.688-0.41-0.82c-0.264-0.131-0.835-0.189-1.714-0.189c-0.82,0-1.377,0.072-1.67,0.219s-0.439,0.426-0.439,0.82
	c0,0.381,0.146,0.645,0.439,0.777c0.278,0.131,0.864,0.205,1.743,0.205c1.348,0.014,2.271,0.16,2.769,0.439
	c0.498,0.277,0.762,0.775,0.762,1.494c0,0.746-0.264,1.289-0.776,1.611c-0.527,0.322-1.392,0.482-2.622,0.482
	c-1.523,0-2.505-0.146-2.974-0.439s-0.688-0.922-0.688-1.889l0,0h1.304l0,0c0,0.615,0.132,0.996,0.396,1.172
	c0.264,0.16,0.879,0.248,1.846,0.248c0.864,0,1.45-0.088,1.758-0.248c0.308-0.162,0.469-0.469,0.469-0.908
	c0-0.396-0.146-0.66-0.439-0.791c-0.293-0.133-0.894-0.205-1.802-0.221c-1.318-0.014-2.227-0.16-2.725-0.424
	s-0.732-0.762-0.732-1.465c0-0.762,0.234-1.289,0.718-1.568c0.483-0.277,1.377-0.41,2.695-0.41c1.377,0,2.285,0.133,2.739,0.381
	c0.454,0.25,0.688,0.762,0.688,1.539l0,0h-1.333V91.77z M63.442,96.795c-1.318,0-2.227-0.133-2.739-0.41
	c-0.513-0.279-0.776-0.777-0.776-1.48v-0.469c0-0.645,0.249-1.127,0.762-1.436c0.498-0.307,1.274-0.469,2.329-0.469
	c1.157,0,1.963,0.162,2.417,0.469c0.088,0.059,0.176,0.133,0.249,0.221l0,0v-1.363c0-0.352-0.176-0.615-0.527-0.775
	c-0.352-0.162-0.894-0.25-1.611-0.25c-0.732,0-1.23,0.088-1.509,0.25c-0.278,0.16-0.41,0.469-0.41,0.908l0,0h-1.348l0,0
	c0-0.791,0.234-1.334,0.718-1.627s1.362-0.439,2.637-0.439c1.113,0,1.963,0.162,2.52,0.484c0.571,0.322,0.85,0.805,0.85,1.449v4.85
	l0,0l0,0h-1.216l0,0v-0.586l0,0l-0.161,0.146C65.2,96.619,64.468,96.795,63.442,96.795L63.442,96.795z M63.545,93.439
	c-0.908,0-1.509,0.074-1.831,0.234c-0.308,0.162-0.469,0.455-0.469,0.908v0.176c0,0.439,0.161,0.748,0.469,0.895
	c0.322,0.146,0.923,0.234,1.831,0.234c0.776,0,1.348-0.088,1.685-0.293c0.352-0.191,0.513-0.498,0.513-0.924
	c0-0.424-0.176-0.732-0.513-0.922C64.893,93.527,64.336,93.439,63.545,93.439L63.545,93.439z M70.063,96.691v-6.768l0,0h0.63h0.645
	l0,0v0.732l0,0l0,0l0.103-0.102c0.483-0.484,1.187-0.719,2.124-0.719c0.835,0,1.436,0.162,1.816,0.469
	c0.366,0.322,0.557,0.836,0.557,1.553v0.439H74.59v-0.512c0-0.396-0.088-0.66-0.278-0.82c-0.19-0.162-0.513-0.234-0.967-0.234
	c-0.63,0-1.099,0.16-1.421,0.482s-0.483,0.82-0.513,1.51l0,0v3.969l0,0h-0.674H70.063L70.063,96.691z M78.501,96.691v-6.768l0,0
	h0.63h0.645l0,0v0.732l0,0l0,0l0.103-0.102c0.483-0.484,1.187-0.719,2.124-0.719c0.835,0,1.436,0.162,1.816,0.469
	c0.366,0.322,0.557,0.836,0.557,1.553v0.439h-1.348v-0.512c0-0.396-0.088-0.66-0.278-0.82c-0.19-0.162-0.513-0.234-0.967-0.234
	c-0.63,0-1.099,0.16-1.421,0.482s-0.483,0.82-0.513,1.51l0,0v3.969l0,0h-0.674H78.501L78.501,96.691z M90.352,96.795
	c-1.392,0-2.344-0.221-2.871-0.66s-0.791-1.244-0.791-2.416v-0.762c0-1.172,0.264-1.992,0.791-2.432s1.479-0.674,2.871-0.674
	s2.344,0.219,2.871,0.674c0.527,0.439,0.791,1.26,0.791,2.432v0.762c0,1.172-0.264,1.977-0.791,2.416
	C92.71,96.574,91.743,96.795,90.352,96.795L90.352,96.795z M90.352,95.887c0.938,0,1.553-0.146,1.875-0.439
	c0.308-0.293,0.469-0.879,0.469-1.758v-0.762c0-0.879-0.161-1.465-0.469-1.758s-0.938-0.439-1.875-0.439s-1.553,0.146-1.875,0.439
	c-0.308,0.293-0.469,0.879-0.469,1.758v0.762c0,0.879,0.161,1.465,0.469,1.758C88.799,95.74,89.414,95.887,90.352,95.887z
	 M96.812,96.691v-9.594l0,0h0.674h0.674l0,0v9.594l0,0H97.5H96.812z M101.118,96.691v-9.594l0,0h0.674h0.674l0,0v9.594l0,0h-0.674
	H101.118z M108.882,96.795c-1.392,0-2.344-0.221-2.871-0.66s-0.791-1.244-0.791-2.416v-0.762c0-1.172,0.264-1.992,0.791-2.432
	s1.479-0.674,2.871-0.674s2.344,0.219,2.871,0.674c0.527,0.439,0.791,1.26,0.791,2.432v0.762c0,1.172-0.264,1.977-0.791,2.416
	S110.273,96.795,108.882,96.795L108.882,96.795z M108.882,95.887c0.938,0,1.553-0.146,1.875-0.439
	c0.308-0.293,0.469-0.879,0.469-1.758v-0.762c0-0.879-0.161-1.465-0.469-1.758s-0.938-0.439-1.875-0.439s-1.553,0.146-1.875,0.439
	c-0.308,0.293-0.469,0.879-0.469,1.758v0.762c0,0.879,0.161,1.465,0.469,1.758C107.329,95.74,107.944,95.887,108.882,95.887z
	 M120.703,91.77L120.703,91.77c0-0.424-0.132-0.688-0.41-0.82c-0.264-0.131-0.835-0.189-1.714-0.189c-0.82,0-1.377,0.072-1.67,0.219
	s-0.439,0.426-0.439,0.82c0,0.381,0.146,0.645,0.439,0.777c0.278,0.131,0.864,0.205,1.729,0.205c1.348,0.014,2.271,0.16,2.783,0.439
	c0.498,0.277,0.747,0.775,0.747,1.494c0,0.746-0.264,1.289-0.776,1.611c-0.527,0.322-1.392,0.482-2.622,0.482
	c-1.523,0-2.505-0.146-2.974-0.439s-0.703-0.922-0.703-1.889l0,0h1.304l0,0c0,0.615,0.132,0.996,0.396,1.172
	c0.264,0.16,0.879,0.248,1.846,0.248c0.864,0,1.45-0.088,1.772-0.248c0.308-0.162,0.469-0.469,0.469-0.908
	c0-0.396-0.146-0.66-0.439-0.791c-0.293-0.133-0.894-0.205-1.802-0.221c-1.318-0.014-2.227-0.16-2.725-0.424
	s-0.732-0.762-0.732-1.465c0-0.762,0.234-1.289,0.718-1.568c0.483-0.277,1.377-0.41,2.695-0.41c1.377,0,2.285,0.133,2.739,0.381
	c0.454,0.25,0.688,0.762,0.688,1.539l0,0h-1.318V91.77z"/>
<path fill="#7D8286" d="M27.458,107.693v-8.951l0,0h0.674h0.674l0,0v8.951l0,0h-0.674H27.458z M31.809,107.693v-6.314l0,0h0.571
	h0.557l0,0v0.879l0,0l0,0c0.088-0.117,0.19-0.205,0.293-0.293c0.542-0.453,1.333-0.674,2.373-0.674c0.938,0,1.611,0.176,2.036,0.527
	c0.41,0.352,0.615,0.938,0.615,1.729v4.131l0,0h-0.615h-0.63l0,0v-4.16c0-0.512-0.117-0.879-0.366-1.098
	c-0.249-0.205-0.674-0.322-1.289-0.322c-0.747,0-1.318,0.146-1.685,0.453c-0.381,0.309-0.571,0.777-0.601,1.406l0,0v3.707l0,0
	h-0.615h-0.645V107.693z M40.906,107.693v-6.314l0,0h0.586h0.601l0,0v0.807l0,0l0,0l0.234-0.221
	c0.542-0.453,1.333-0.674,2.358-0.674c0.938,0,1.611,0.221,2.021,0.645c0.132,0.133,0.234,0.293,0.322,0.469l0,0
	c0.117-0.16,0.249-0.307,0.41-0.439c0.542-0.453,1.348-0.674,2.417-0.674c0.938,0,1.611,0.176,2.021,0.527s0.615,0.924,0.615,1.729
	v4.146l0,0h-0.615h-0.63l0,0v-4.176c0-0.512-0.117-0.879-0.366-1.084s-0.674-0.307-1.274-0.307c-0.776,0-1.348,0.146-1.714,0.453
	c-0.366,0.309-0.557,0.777-0.557,1.406l0,0v3.707l0,0h-0.63h-0.63l0,0v-4.16c0-0.514-0.117-0.879-0.366-1.084
	s-0.674-0.322-1.274-0.322c-0.747,0-1.318,0.146-1.685,0.453c-0.366,0.309-0.571,0.777-0.586,1.406l0,0v3.707l0,0H41.55H40.906
	L40.906,107.693z M58.455,107.781c-1.289,0-2.197-0.205-2.681-0.615s-0.732-1.172-0.732-2.256v-0.703c0-1.1,0.249-1.861,0.732-2.271
	c0.498-0.41,1.392-0.629,2.681-0.629c1.304,0,2.197,0.205,2.681,0.629c0.483,0.41,0.732,1.172,0.732,2.271v0.703
	c0,1.098-0.249,1.846-0.732,2.256C60.637,107.576,59.744,107.781,58.455,107.781z M58.455,106.932c0.879,0,1.45-0.133,1.743-0.41
	c0.293-0.279,0.439-0.82,0.439-1.641v-0.703c0-0.82-0.146-1.363-0.439-1.641c-0.293-0.264-0.864-0.41-1.743-0.41
	s-1.45,0.131-1.743,0.41c-0.293,0.277-0.439,0.82-0.439,1.641v0.703c0,0.82,0.146,1.361,0.439,1.641
	C56.99,106.799,57.576,106.932,58.455,106.932z M64.446,98.742L64.446,98.742h0.63h0.63l0,0v3.34l0,0l0.117-0.117
	c0.425-0.439,1.187-0.658,2.285-0.658s1.86,0.205,2.285,0.629c0.425,0.426,0.645,1.172,0.645,2.256v0.703
	c0,1.07-0.22,1.832-0.645,2.242c-0.425,0.424-1.187,0.629-2.285,0.629c-1.084,0-1.846-0.219-2.285-0.658l-0.117-0.117l0,0v0.688l0,0
	H64.46l0,0v-8.936H64.446z M68.108,106.916c0.659,0,1.113-0.131,1.333-0.41c0.234-0.277,0.352-0.805,0.352-1.611v-0.703
	c0-0.805-0.132-1.332-0.396-1.611c-0.264-0.277-0.776-0.41-1.538-0.41c-0.85,0-1.421,0.146-1.714,0.439s-0.439,0.85-0.439,1.686l0,0
	v0.527l0,0c0,0.834,0.161,1.391,0.498,1.684C66.526,106.77,67.17,106.916,68.108,106.916L68.108,106.916z M73.704,107.693v-6.314
	l0,0h0.615h0.63l0,0v6.314l0,0h-0.615H73.704L73.704,107.693z M73.689,98.742h1.274v1.041h-1.274V98.742z M77.732,107.693v-8.951
	l0,0h0.629h0.631l0,0v8.951l0,0h-0.615H77.732L77.732,107.693z M81.746,107.693v-6.314l0,0h0.615h0.629l0,0v6.314l0,0h-0.615H81.746
	L81.746,107.693z M81.73,98.742h1.275v1.041H81.73V98.742z M88.85,107.781c-1.23,0-2.08-0.133-2.549-0.381
	c-0.482-0.264-0.717-0.719-0.717-1.377v-0.439c0-0.615,0.234-1.055,0.703-1.348s1.201-0.439,2.168-0.439
	c1.084,0,1.83,0.146,2.256,0.439c0.088,0.059,0.16,0.131,0.234,0.205l0,0v-1.275c0-0.322-0.162-0.57-0.484-0.717
	c-0.322-0.162-0.82-0.234-1.508-0.234c-0.674,0-1.143,0.072-1.406,0.234c-0.25,0.16-0.381,0.439-0.381,0.85l0,0H85.92l0,0
	c0-0.732,0.221-1.246,0.674-1.523c0.455-0.279,1.275-0.41,2.461-0.41c1.041,0,1.832,0.146,2.359,0.453
	c0.527,0.309,0.791,0.748,0.791,1.348v4.527l0,0l0,0h-1.129l0,0v-0.557l0,0l-0.146,0.146
	C90.49,107.605,89.803,107.781,88.85,107.781L88.85,107.781z M88.953,104.646c-0.85,0-1.406,0.072-1.699,0.219
	s-0.439,0.426-0.439,0.836v0.16c0,0.41,0.146,0.689,0.439,0.836s0.863,0.219,1.699,0.219c0.732,0,1.26-0.088,1.582-0.264
	s0.482-0.469,0.482-0.863c0-0.396-0.16-0.689-0.482-0.865C90.213,104.734,89.686,104.646,88.953,104.646L88.953,104.646z
	 M95.047,107.693v-6.314l0,0h0.586h0.6l0,0v0.689l0,0l0,0l0.104-0.104c0.453-0.453,1.113-0.674,1.977-0.674
	c0.777,0,1.348,0.146,1.699,0.439s0.527,0.777,0.527,1.451v0.41h-1.244v-0.469c0-0.367-0.088-0.615-0.264-0.777
	c-0.176-0.146-0.484-0.219-0.908-0.219c-0.586,0-1.025,0.146-1.334,0.453c-0.293,0.309-0.453,0.777-0.482,1.406l0,0v3.707l0,0
	h-0.615H95.047L95.047,107.693z M102.869,107.693v-6.314l0,0h0.615h0.629l0,0v6.314l0,0h-0.615H102.869z M102.854,98.742h1.275
	v1.041h-1.275V98.742z M110.119,107.781c-1.289,0-2.197-0.205-2.68-0.615c-0.484-0.41-0.732-1.172-0.732-2.256v-0.703
	c0-1.1,0.248-1.861,0.732-2.271c0.498-0.41,1.391-0.629,2.68-0.629s2.184,0.205,2.682,0.629c0.482,0.41,0.732,1.172,0.732,2.271
	v0.703c0,1.098-0.25,1.846-0.732,2.256C112.316,107.576,111.424,107.781,110.119,107.781z M110.119,106.932
	c0.879,0,1.451-0.133,1.744-0.41c0.293-0.279,0.439-0.82,0.439-1.641v-0.719c0-0.82-0.146-1.361-0.439-1.641
	c-0.293-0.264-0.865-0.41-1.744-0.41s-1.449,0.133-1.742,0.41c-0.293,0.279-0.439,0.82-0.439,1.641v0.719
	c0,0.82,0.146,1.361,0.439,1.641C108.67,106.799,109.256,106.932,110.119,106.932z M121.15,103.094L121.15,103.094
	c0-0.396-0.133-0.645-0.381-0.762c-0.25-0.117-0.777-0.176-1.598-0.176c-0.762,0-1.273,0.072-1.553,0.205
	c-0.277,0.131-0.41,0.395-0.41,0.762c0,0.352,0.133,0.6,0.41,0.717c0.264,0.117,0.807,0.191,1.627,0.191
	c1.26,0.014,2.109,0.146,2.592,0.41c0.469,0.248,0.703,0.717,0.703,1.391c0,0.703-0.248,1.201-0.732,1.494
	c-0.482,0.293-1.303,0.455-2.445,0.455c-1.422,0-2.344-0.133-2.783-0.41c-0.439-0.279-0.645-0.865-0.645-1.758l0,0h1.215l0,0
	c0,0.57,0.117,0.938,0.367,1.084c0.234,0.16,0.82,0.234,1.713,0.234c0.807,0,1.363-0.074,1.641-0.221
	c0.293-0.146,0.439-0.439,0.439-0.85c0-0.365-0.131-0.615-0.41-0.746c-0.277-0.133-0.834-0.191-1.684-0.205
	c-1.23-0.016-2.08-0.146-2.535-0.396c-0.453-0.248-0.688-0.703-0.688-1.361c0-0.719,0.219-1.201,0.674-1.465
	c0.453-0.264,1.289-0.381,2.52-0.381c1.273,0,2.139,0.117,2.549,0.365c0.424,0.234,0.645,0.719,0.645,1.436l0,0h-1.23V103.094z"/>
<path fill="#B2B4B7" d="M144.053,67.395c-0.059,0.015-0.103,0.029-0.161,0.044c1.157-0.425,2.461-0.806,3.794-1.172
	c0.22-0.059,0.645-0.234,0.996-0.249c-0.176,0.161-1.025,0.293-1.406,0.396C146.968,66.501,144.038,67.395,144.053,67.395
	L144.053,67.395z"/>
<path fill="#B2B4B7" d="M140.215,68.845C142.954,67.703,140.215,68.845,140.215,68.845L140.215,68.845z"/>
<g>
	<path fill="#C22825" d="M53.39,74.119c-2.886,1.523-5.889,3.252-5.977,5.259c0,0.015,0,0.029,0,0.044c0,0,0.059,0.19,0.176,0.278
		c0,0,0.278,0.176,0.469,0.264c0.015,0,0.498,0.161,0.806,0.22c-0.015,0,0.527,0.088,0.85,0.103c0,0,0.337,0.015,0.483,0.015
		c-0.015,0,0.352-0.015,0.513-0.029c0.205-0.029,0.381-0.059,0.542-0.103c0.205-0.059,0.41-0.117,0.601-0.19
		c0.601-0.22,1.187-0.439,1.787-0.645c1.89-0.703,3.779-1.406,5.698-2.109c3.457-1.26,6.885-2.549,10.562-3.75
		c0.249-0.073,0.498-0.161,0.747-0.234c1.641-0.571,3.223-1.157,4.805-1.758c2.212-0.835,16.656-6.987,8.145-3.691
		c-2.856,1.113-5.566,2.256-8.453,3.354c-0.308,0.117-2.637,0.791-4.263,1.406c-0.337,0.132-0.674,0.249-1.025,0.381
		c-4.087,1.245-7.603,2.695-11.265,4.072c-1.875,0.703-3.75,1.421-5.654,2.124c-0.483,0.176-0.967,0.352-1.465,0.527
		c0.015-0.073,0.029-0.132,0.044-0.19c0.396-0.132,0.791-0.278,1.172-0.41c0.645-0.22,1.274-0.439,1.919-0.659
		c1.318-0.454,2.578-0.938,3.853-1.421c3.633-1.377,7.075-2.856,11.162-4.087c5.918-2.095,11.294-4.351,16.993-6.519
		c2.461-0.938,17.3-7.207,7.837-3.398c-2.446,0.981-4.966,1.978-7.661,2.812c-0.015,0,6.899-2.739,9.038-3.589
		c5.684-2.256,10.957-4.629,17.812-6.519c0.527-0.146,4.263-1.274,3.047-0.981c-12.554,3.032-19.673,7.734-31.055,11.074
		c-2.886,0.425,0.688-0.396,1.685-0.791c1.875-0.747,18.516-7.471,18.501-7.471c-14.019,3.472-22.837,9.082-34.585,13.301
		c-1.274,0.454-2.549,0.908-3.853,1.348c-4.263,1.187-7.764,2.681-11.411,4.072c-0.688,0.264-1.362,0.513-2.051,0.776
		c0.205-0.146,0.425-0.278,0.63-0.425c1.729-1.157,3.691-2.256,5.742-3.325c3.384-1.787,6.606-3.604,9.756-5.449
		c4.453-2.607,10.562-5.405,12.598-8.496c0,0-0.996,0.645-2.593,1.685c1.172-0.908,2.271-1.831,3.281-2.769
		c0.586-0.557,1.216-1.099,1.846-1.655c1.465-1.274,2.461-2.651,3.179-4.043c0.234-0.366,0.439-0.747,0.483-1.128
		c0.015-0.132,0-0.278-0.088-0.425c-0.044-0.073-0.103-0.146-0.19-0.22c-0.117-0.088-0.264-0.176-0.454-0.264
		c-0.234-0.103-0.542-0.176-0.864-0.234c-0.308-0.059-0.63-0.088-0.938-0.103c-0.425-0.015-0.82,0.015-1.172,0.059
		c-0.615,0.088-1.113,0.234-1.597,0.381c-2.314,0.703-4.028,1.597-6.372,2.285c-20.962,6.226-41.441,12.729-58.096,20.288
		c-1.436,0.645-9.009,4.893-12.671,6.958c-1.919,0.997-4.131,2.139-4.219,3.266c0.776-0.059,4.292-2.445,5.625-3.457
		c0.615-0.352,1.26-0.718,1.523-0.864c1.597-0.879,3.267-1.743,4.995-2.593c-1.025,0.557-1.978,1.113-2.856,1.685l35.508-14.414
		c10.283-3.545,21.255-6.855,32.461-10.093c2.314-0.659,4.014-1.523,6.255-2.197c-0.088,0.22-0.22,0.425-0.352,0.645
		c-2.183,4.043-7.163,7.705-12.466,11.177c-4.834,3.149-10.283,6.167-16.143,9.082C54.958,73.225,48.82,76.536,53.39,74.119
		L53.39,74.119z M47.589,79.714L47.589,79.714L47.589,79.714z M48.058,79.978L48.058,79.978L48.058,79.978z M49.728,80.3
		L49.728,80.3L49.728,80.3z M51.369,79.685c-0.073,0.029-0.161,0.059-0.234,0.073c-0.176,0.059-0.352,0.117-0.557,0.176
		c-0.103,0.029-0.22,0.059-0.352,0.073c-0.029,0-0.293,0.015-0.264,0.015c-0.015,0-0.308,0-0.293,0c-0.103,0-0.396-0.044-0.41-0.044
		c-0.117-0.029-0.542-0.132-0.513-0.132c-0.073-0.029-0.308-0.146-0.308-0.146c-0.015-0.015-0.132-0.19-0.132-0.19
		c0.015-0.161,0.044-0.308,0.088-0.469c0.029,0,0.073-0.015,0.088-0.015c0.029,0,0.22-0.015,0.322-0.029
		c-0.059,0.176-0.103,0.352-0.132,0.542c0,0,0.029,0.073,0.073,0.117c0,0,0.117,0.073,0.19,0.103c0.015,0,0.205,0.073,0.322,0.088
		c-0.015,0,0.205,0.029,0.337,0.044c0,0,0.132,0,0.19,0c0,0,0.146,0,0.22-0.015c0.117-0.015,0.205-0.029,0.293-0.059
		c0.19-0.044,0.366-0.103,0.542-0.161c0.146-0.044,0.278-0.088,0.425-0.132C51.295,79.568,51.339,79.626,51.369,79.685
		L51.369,79.685z M48.395,79.026c0.718-2.461,5.464-4.629,9.111-6.475c1.611-0.82,3.193-1.641,4.819-2.461
		c1.538-0.776,8.965-5.068,4.014-2.124c-2.681,1.597-5.522,3.135-8.452,4.673c-3.457,1.802-8.042,3.867-9.038,6.226
		c-0.088,0.029-0.161,0.059-0.249,0.088C48.556,78.982,48.483,79.011,48.395,79.026L48.395,79.026z M48.688,79.553L48.688,79.553
		L48.688,79.553z M48.761,79.656L48.761,79.656L48.761,79.656z M48.952,79.758L48.952,79.758
		C48.937,79.758,48.937,79.758,48.952,79.758z M49.611,79.89L49.611,79.89L49.611,79.89z M49.801,79.905L49.801,79.905
		L49.801,79.905z M65.197,70.295c-1.978,1.187-3.765,2.212-5.098,2.9c-1.245,0.645-2.446,1.304-3.589,1.978
		c1.143-0.762,2.344-1.509,3.354-2.036C61.652,72.2,63.439,71.248,65.197,70.295L65.197,70.295z M24.416,71.892
		c10.151-4.263,21.577-8.174,33.325-11.924c1.494-0.469,17.681-5.332,17.666-5.317c-14.268,4.277-28.037,8.73-40.928,13.462
		C31.139,69.329,27.711,70.588,24.416,71.892L24.416,71.892z M80.139,59.265c-4.365,3.589-9.932,6.943-15.821,10.195
		c-0.015,0,10.679-6.431,14.283-9.17C79.069,59.939,79.699,59.617,80.139,59.265L80.139,59.265z M70.368,55.75
		c2.666-0.82,5.376-1.626,8.086-2.417c2.358-0.688,4.087-1.582,6.401-2.285c0.381-0.117,0.791-0.234,1.274-0.308
		c0.132-0.015,0.293-0.029,0.454-0.029c0.059,0,0.103,0,0.161,0.015c0.044,0.015,0.088,0.015,0.117,0.029
		c0.044,0.015,0.088,0.044,0.117,0.059c0.044,0.029,0.059,0.073,0.088,0.103c0.059,0.103,0.059,0.205,0.059,0.308
		c-0.044,0.366-0.249,0.718-0.469,1.069c-0.835,1.597-7.148,8.379-2.446,3.105c0.894-1.011,1.743-2.051,2.329-3.105
		c0.22-0.337,0.439-0.688,0.483-1.069c0.015-0.103,0-0.19-0.059-0.293c-0.015-0.029-0.044-0.059-0.073-0.088
		c-0.015-0.015-0.044-0.029-0.088-0.059c-0.015-0.015-0.044-0.015-0.073-0.015s-0.073-0.015-0.103-0.015
		c-0.146,0-0.293,0.015-0.41,0.029c-0.132,0.015-0.249,0.044-0.352,0.059c-0.322,0.073-0.615,0.146-0.894,0.234
		c-2.314,0.703-4.028,1.597-6.387,2.3c-1.099,0.322-15.499,4.673-15.484,4.658C65.49,57.258,67.98,56.526,70.368,55.75L70.368,55.75
		z M87.521,52.703c0,0-2.212,3.032-3.662,4.424c-7.983,7.603,1.626-2.051,3.457-4.468C87.478,52.454,87.507,52.717,87.521,52.703
		L87.521,52.703z"/>
	<path fill="#C22825" d="M107.648,57.771c-0.132,0.044-0.278,0.088-0.41,0.132c3.032-1.113,6.445-2.109,9.946-3.062
		c0.586-0.161,1.685-0.63,2.593-0.645c-0.469,0.41-2.695,0.762-3.677,1.025C115.295,55.427,107.634,57.771,107.648,57.771
		L107.648,57.771z"/>
	<path fill="#C22825" d="M97.57,61.609C104.748,58.621,97.57,61.624,97.57,61.609L97.57,61.609z"/>
	<path fill="#C22825" d="M62.355,71.292c-1.055,0.557-2.124,1.128-3.193,1.685c-1.157,0.601-2.461,1.245-3.706,1.919
		c0.176-0.103,0.352-0.205,0.513-0.293c0.967-0.557,1.978-1.113,3.018-1.67c4.834-2.549,9.507-5.127,13.828-7.793
		c2.93-1.816,1.406-0.732-0.161,0.293L62.355,71.292L62.355,71.292z M55.47,74.88c-1.025,0.557-2.007,1.143-2.842,1.743
		C53.507,76.023,54.518,75.437,55.47,74.88z M52.628,76.624c-0.996,0.732-1.772,1.494-2.124,2.285
		c0.264-0.088,0.513-0.19,0.776-0.278c1.904-0.703,3.779-1.406,5.669-2.109c3.691-1.377,7.207-2.871,11.47-4.058l3.53-1.245
		c-1.172,0.425-2.344,0.85-3.56,1.26c-4.219,1.201-7.72,2.681-11.367,4.058c-1.875,0.703-3.735,1.421-5.64,2.124
		c-0.308,0.117-0.615,0.234-0.923,0.337c-0.088,0.234-0.146,0.454-0.161,0.703c0,0-0.015-0.073-0.059-0.103
		c0,0-0.029-0.029-0.073-0.044c0.015-0.161,0.059-0.322,0.117-0.483c-0.205,0.073-0.425,0.146-0.645,0.22
		c-0.088,0.029-0.176,0.059-0.264,0.088c-0.029,0-0.073,0-0.088,0c0,0-0.117,0-0.161,0.015c-0.044,0-0.088,0.015-0.029,0
		c0.161-0.044,0.293-0.088,0.439-0.132l0.425-0.146c0.132-0.044,0.249-0.088,0.381-0.132C50.68,78.147,51.559,77.371,52.628,76.624
		L52.628,76.624z M50.167,79.553c-0.029-0.015-0.059-0.029-0.088-0.044l0,0l0,0 M49.787,79.421c0.015,0-0.19-0.029-0.308-0.044
		c0,0-0.044,0-0.088,0c-0.059,0.015-0.117,0.029-0.176,0.059c-0.029,0.015-0.059,0.015,0,0l0.117-0.015c0.015,0,0.146,0,0.146,0
		c0.059,0,0.19,0.015,0.205,0.029c0.059,0.015,0.278,0.073,0.264,0.059c0.029,0.015,0.161,0.073,0.161,0.073
		c0.015,0.015,0.059,0.103,0.059,0.088c0-0.044,0-0.088,0.015-0.132 M49.464,79.377L49.464,79.377L49.464,79.377z"/>
	<path fill="#C22825" d="M75.891,53.552c-7.354,2.212-14.678,4.453-21.827,6.738c-7.822,2.52-15.439,5.098-22.573,7.837
		c-1.23,0.469-7.72,3.164-3.003,1.289l14.326-5.244l21.753-7.046c4.38-1.348,8.774-2.695,13.213-4.028
		c0.454-0.132,0.879-0.278,1.289-0.425c-0.439,0.146-0.879,0.278-1.362,0.396C77.092,53.23,76.491,53.391,75.891,53.552
		L75.891,53.552z"/>
	<path fill="#F3BE00" d="M94.479,73.313c-1.318,0.703-2.681,1.479-2.725,2.402c0,0,0,0.015,0,0.029c0,0,0.029,0.088,0.073,0.132
		c0,0,0.117,0.088,0.22,0.117c0,0,0.234,0.073,0.366,0.103c-0.015,0,0.249,0.044,0.396,0.044c0,0,0.146,0,0.22,0
		c-0.015,0,0.161,0,0.234-0.015c0.088-0.015,0.176-0.029,0.249-0.044c0.103-0.029,0.19-0.059,0.278-0.088
		c0.278-0.103,0.542-0.19,0.806-0.293c0.864-0.322,1.729-0.645,2.593-0.967c1.582-0.571,3.135-1.157,4.805-1.714
		c0.117-0.044,0.22-0.073,0.337-0.103c0.747-0.264,1.465-0.527,2.197-0.806c1.011-0.381,7.588-3.179,3.706-1.685
		c-1.304,0.498-2.534,1.025-3.853,1.523c-0.146,0.059-1.201,0.366-1.948,0.645c-0.146,0.059-0.308,0.117-0.469,0.176
		c-1.86,0.571-3.472,1.23-5.127,1.86c-0.85,0.322-1.714,0.645-2.578,0.967c-0.22,0.088-0.439,0.161-0.674,0.234
		c0-0.029,0.015-0.059,0.015-0.088c0.176-0.059,0.352-0.117,0.527-0.19c0.293-0.103,0.586-0.205,0.879-0.308
		c0.601-0.205,1.172-0.425,1.758-0.645c1.655-0.63,3.223-1.304,5.083-1.86c2.695-0.952,5.142-1.978,7.749-2.974
		c1.128-0.425,7.881-3.281,3.574-1.553c-1.113,0.454-2.256,0.894-3.486,1.289c0,0,3.149-1.245,4.116-1.641
		c2.593-1.025,4.995-2.109,8.115-2.974c0.234-0.073,1.948-0.586,1.392-0.454c-5.713,1.377-8.965,3.516-14.15,5.054
		c-1.318,0.19,0.322-0.176,0.776-0.366c0.85-0.337,8.438-3.398,8.438-3.398c-6.387,1.582-10.4,4.131-15.762,6.064
		c-0.571,0.205-1.157,0.41-1.758,0.615c-1.948,0.542-3.53,1.23-5.2,1.86c-0.308,0.117-0.615,0.234-0.938,0.352
		c0.103-0.059,0.19-0.132,0.278-0.19c0.791-0.527,1.685-1.025,2.622-1.523c1.538-0.82,3.018-1.641,4.453-2.476
		c2.021-1.187,4.805-2.461,5.742-3.867c0,0-0.454,0.293-1.187,0.762c0.542-0.41,1.04-0.835,1.494-1.26
		c0.264-0.249,0.557-0.498,0.835-0.747c0.659-0.586,1.128-1.201,1.45-1.846c0.103-0.161,0.205-0.337,0.22-0.513
		c0-0.059,0-0.132-0.044-0.19c-0.015-0.029-0.044-0.073-0.088-0.103c-0.044-0.044-0.117-0.088-0.205-0.117
		c-0.103-0.044-0.249-0.088-0.396-0.103c-0.132-0.029-0.278-0.044-0.425-0.044c-0.19,0-0.381,0-0.527,0.029
		c-0.278,0.044-0.513,0.103-0.732,0.176c-1.055,0.322-1.831,0.732-2.9,1.04c-9.551,2.842-18.882,5.801-26.47,9.243
		c-0.659,0.293-4.102,2.227-5.772,3.164c-0.879,0.454-1.89,0.967-1.919,1.494c0.352-0.029,1.963-1.113,2.563-1.567
		c0.278-0.161,0.571-0.322,0.703-0.396c0.732-0.396,1.495-0.791,2.271-1.187c-0.469,0.249-0.908,0.513-1.304,0.776l16.172-6.562
		c4.688-1.611,9.683-3.12,14.795-4.6c1.055-0.308,1.831-0.688,2.856-1.011c-0.044,0.103-0.103,0.19-0.161,0.293
		c-0.996,1.846-3.267,3.516-5.684,5.098c-2.197,1.436-4.688,2.812-7.354,4.131c-0.806,0.396-3.604,1.904-1.509,0.806h-0.015V73.313z
		 M91.828,75.862L91.828,75.862L91.828,75.862z M92.048,75.979L92.048,75.979L92.048,75.979z M92.81,76.125L92.81,76.125
		L92.81,76.125z M93.557,75.847c-0.029,0.015-0.073,0.029-0.103,0.029c-0.073,0.029-0.161,0.059-0.249,0.073
		c-0.044,0.015-0.103,0.029-0.161,0.029c-0.015,0-0.132,0.015-0.117,0.015c-0.015,0-0.146,0-0.132,0
		c-0.044,0-0.176-0.015-0.19-0.015c-0.059-0.015-0.249-0.059-0.234-0.059c-0.029-0.015-0.132-0.073-0.132-0.073
		c-0.015-0.015-0.059-0.088-0.059-0.088c0-0.073,0.015-0.146,0.044-0.22c0.015,0,0.029,0,0.044,0s0.103,0,0.146-0.015
		c-0.029,0.088-0.044,0.161-0.059,0.249c0,0,0.015,0.029,0.029,0.059c0,0,0.044,0.029,0.088,0.044c0,0,0.088,0.029,0.146,0.044
		c-0.015,0,0.103,0.015,0.161,0.015c0,0,0.059,0,0.088,0c0,0,0.073,0,0.103,0c0.044,0,0.088-0.015,0.132-0.029
		c0.088-0.029,0.161-0.044,0.249-0.073c0.059-0.015,0.132-0.044,0.19-0.059C93.527,75.789,93.542,75.818,93.557,75.847
		L93.557,75.847z M92.209,75.54c0.322-1.128,2.49-2.109,4.16-2.944c0.732-0.366,1.45-0.747,2.197-1.113
		c0.703-0.352,4.087-2.314,1.831-0.967c-1.216,0.718-2.52,1.436-3.853,2.124c-1.582,0.82-3.662,1.758-4.116,2.842
		c-0.044,0.015-0.073,0.029-0.117,0.044C92.268,75.525,92.238,75.54,92.209,75.54L92.209,75.54z M92.341,75.789L92.341,75.789
		L92.341,75.789z M92.37,75.833L92.37,75.833L92.37,75.833z M92.458,75.876L92.458,75.876L92.458,75.876z M92.751,75.935
		L92.751,75.935L92.751,75.935z M92.839,75.95L92.839,75.95L92.839,75.95z M99.855,71.57c-0.908,0.542-1.714,1.011-2.314,1.318
		c-0.571,0.293-1.113,0.601-1.641,0.894c0.527-0.352,1.069-0.688,1.523-0.923C98.244,72.434,99.05,71.995,99.855,71.57L99.855,71.57
		z M81.281,72.288c4.629-1.934,9.829-3.721,15.19-5.435c0.674-0.22,8.057-2.432,8.057-2.432c-6.504,1.948-12.773,3.984-18.647,6.138
		C84.343,71.13,82.775,71.702,81.281,72.288L81.281,72.288z M106.667,66.545c-1.992,1.641-4.526,3.164-7.207,4.644
		c0,0,4.863-2.93,6.504-4.175C106.184,66.853,106.462,66.707,106.667,66.545L106.667,66.545z M102.214,64.934
		c1.216-0.366,2.446-0.732,3.677-1.099c1.069-0.308,1.86-0.718,2.915-1.04c0.176-0.059,0.352-0.103,0.586-0.146
		c0.059-0.015,0.132-0.015,0.205-0.015c0.029,0,0.044,0,0.073,0c0.015,0,0.044,0.015,0.059,0.015
		c0.029,0.015,0.044,0.015,0.044,0.029c0.015,0.015,0.029,0.029,0.044,0.044c0.029,0.044,0.029,0.088,0.029,0.146
		c-0.015,0.161-0.117,0.322-0.205,0.483c-0.381,0.732-3.252,3.823-1.113,1.406c0.41-0.469,0.791-0.938,1.055-1.421
		c0.103-0.161,0.205-0.322,0.22-0.483c0-0.044,0-0.088-0.029-0.132c-0.015-0.015-0.015-0.029-0.029-0.044s-0.029-0.015-0.044-0.029
		c-0.015,0-0.015-0.015-0.029-0.015s-0.029,0-0.044,0c-0.073,0-0.132,0-0.19,0.015s-0.117,0.015-0.161,0.029
		c-0.146,0.029-0.278,0.073-0.41,0.103c-1.055,0.322-1.831,0.732-2.915,1.04c-0.498,0.146-7.061,2.124-7.061,2.124
		C99.987,65.623,101.13,65.286,102.214,64.934L102.214,64.934z M110.021,63.557c0,0-1.011,1.377-1.67,2.021
		c-3.633,3.457,0.747-0.938,1.582-2.036C110.007,63.44,110.021,63.557,110.021,63.557L110.021,63.557z"/>
	<path fill="#F3BE00" d="M119.191,65.857c-0.059,0.015-0.117,0.044-0.19,0.059c1.392-0.513,2.944-0.952,4.526-1.392
		c0.264-0.073,0.762-0.293,1.187-0.293c-0.22,0.19-1.23,0.352-1.685,0.469C122.678,64.788,119.191,65.857,119.191,65.857
		L119.191,65.857z"/>
	<path fill="#F3BE00" d="M114.606,67.6C117.873,66.238,114.606,67.6,114.606,67.6L114.606,67.6z"/>
	<path fill="#F3BE00" d="M98.566,72.024c-0.483,0.249-0.967,0.513-1.45,0.762c-0.527,0.278-1.113,0.571-1.685,0.879
		c0.073-0.044,0.161-0.088,0.234-0.132c0.439-0.264,0.894-0.513,1.377-0.762c2.197-1.157,4.336-2.329,6.299-3.545
		c1.333-0.82,0.645-0.337-0.073,0.132L98.566,72.024L98.566,72.024z M95.417,73.65c-0.469,0.249-0.923,0.513-1.289,0.791
		C94.523,74.177,94.992,73.914,95.417,73.65z M94.128,74.456c-0.454,0.337-0.806,0.674-0.967,1.04
		c0.117-0.044,0.234-0.088,0.352-0.132c0.864-0.322,1.729-0.645,2.578-0.967c1.685-0.63,3.281-1.304,5.229-1.846l1.611-0.571
		c-0.527,0.19-1.069,0.381-1.626,0.571c-1.919,0.542-3.516,1.23-5.186,1.846c-0.85,0.322-1.699,0.645-2.563,0.967
		c-0.146,0.059-0.278,0.103-0.425,0.161c-0.044,0.103-0.059,0.205-0.073,0.322c0,0-0.015-0.029-0.029-0.044
		c0,0-0.015-0.015-0.044-0.029c0.015-0.073,0.029-0.146,0.059-0.22c-0.103,0.029-0.19,0.073-0.293,0.103
		c-0.044,0.015-0.088,0.029-0.117,0.044c-0.015,0-0.029,0-0.044,0c0,0-0.059,0-0.073,0s-0.044,0.015-0.015,0
		c0.073-0.015,0.132-0.044,0.205-0.059l0.19-0.059c0.059-0.015,0.117-0.044,0.176-0.059C93.249,75.144,93.645,74.792,94.128,74.456
		L94.128,74.456z M93.015,75.789c-0.015-0.015-0.029-0.015-0.044-0.015l0,0l0,0 M92.824,75.73c0.015,0-0.088-0.015-0.146-0.015
		c0,0-0.015,0-0.044,0c-0.029,0.015-0.059,0.015-0.088,0.029c-0.015,0-0.029,0,0,0h0.059c0,0,0.073,0,0.059,0
		c0.029,0,0.088,0.015,0.088,0.015c0.029,0,0.132,0.029,0.117,0.029c0.015,0,0.073,0.029,0.073,0.029l0.029,0.044
		c0-0.015,0-0.044,0-0.059 M92.692,75.701L92.692,75.701L92.692,75.701z"/>
	<path fill="#F3BE00" d="M104.733,63.938c-3.354,1.011-6.694,2.021-9.946,3.076c-3.56,1.143-7.031,2.329-10.283,3.574
		c-0.557,0.22-3.516,1.436-1.362,0.586l6.533-2.388l9.917-3.208c1.992-0.615,3.999-1.23,6.021-1.831
		c0.205-0.059,0.396-0.132,0.586-0.19c-0.205,0.059-0.396,0.132-0.615,0.19C105.275,63.792,104.997,63.865,104.733,63.938
		L104.733,63.938z"/>
	<path fill="#B2B4B7" d="M123.645,72.156c-1.099,0.586-2.241,1.245-2.285,2.007v0.015c0,0,0.015,0.073,0.059,0.103
		c0,0,0.103,0.073,0.176,0.103c0,0,0.19,0.059,0.308,0.088c-0.015,0,0.205,0.029,0.322,0.044c0,0,0.132,0,0.19,0
		c0,0,0.132,0,0.19-0.015c0.073-0.015,0.146-0.029,0.205-0.044c0.073-0.015,0.146-0.044,0.22-0.073
		c0.234-0.088,0.454-0.161,0.674-0.249c0.718-0.264,1.436-0.542,2.168-0.806c1.318-0.483,2.622-0.967,4.028-1.421
		c0.088-0.029,0.19-0.059,0.293-0.088c0.63-0.22,1.23-0.439,1.831-0.674c0.835-0.308,6.343-2.666,3.105-1.406
		c-1.084,0.425-2.124,0.864-3.223,1.274c-0.117,0.044-1.011,0.308-1.626,0.527c-0.132,0.044-0.264,0.103-0.396,0.146
		c-1.553,0.469-2.9,1.025-4.292,1.553c-0.718,0.264-1.436,0.542-2.153,0.806c-0.19,0.073-0.366,0.132-0.557,0.205
		c0-0.029,0.015-0.044,0.015-0.073c0.146-0.044,0.293-0.103,0.454-0.161c0.249-0.088,0.483-0.176,0.732-0.249
		c0.498-0.176,0.981-0.366,1.465-0.542c1.377-0.527,2.695-1.084,4.248-1.553c2.256-0.791,4.307-1.655,6.475-2.49
		c0.938-0.352,6.592-2.754,2.988-1.289c-0.938,0.381-1.89,0.747-2.915,1.069c0,0,2.637-1.04,3.442-1.362
		c2.168-0.864,4.175-1.758,6.782-2.49c0.205-0.059,1.626-0.483,1.157-0.366c-4.775,1.157-7.5,2.944-11.836,4.219
		c-1.099,0.161,0.264-0.146,0.645-0.308c0.718-0.293,7.061-2.842,7.046-2.842c-5.347,1.318-8.701,3.457-13.184,5.068
		c-0.483,0.176-0.967,0.337-1.465,0.513c-1.626,0.454-2.959,1.025-4.351,1.553c-0.264,0.103-0.513,0.19-0.776,0.293
		c0.073-0.059,0.161-0.103,0.234-0.161c0.659-0.439,1.406-0.864,2.183-1.274c1.289-0.674,2.52-1.377,3.721-2.08
		c1.699-0.996,4.028-2.065,4.805-3.237c0,0-0.381,0.249-0.996,0.645c0.454-0.352,0.864-0.703,1.245-1.055
		c0.22-0.205,0.454-0.425,0.703-0.63c0.557-0.483,0.938-1.011,1.216-1.538c0.088-0.146,0.161-0.278,0.176-0.439
		c0-0.059,0-0.103-0.029-0.161c-0.015-0.029-0.044-0.059-0.073-0.088c-0.044-0.029-0.103-0.073-0.176-0.103
		c-0.088-0.044-0.205-0.073-0.337-0.088c-0.117-0.015-0.234-0.029-0.352-0.044c-0.161,0-0.308,0-0.439,0.029
		c-0.234,0.029-0.425,0.088-0.601,0.146c-0.879,0.264-1.538,0.615-2.432,0.879c-7.983,2.373-15.791,4.849-22.134,7.734
		c-0.542,0.249-3.428,1.86-4.834,2.651c-0.732,0.381-1.582,0.82-1.611,1.245c0.293-0.015,1.641-0.938,2.139-1.318
		c0.234-0.132,0.483-0.278,0.586-0.322c0.615-0.337,1.245-0.659,1.904-0.981c-0.396,0.205-0.747,0.425-1.084,0.645l13.535-5.493
		c3.926-1.348,8.101-2.607,12.378-3.838c0.879-0.249,1.538-0.586,2.388-0.835c-0.029,0.088-0.088,0.161-0.132,0.249
		c-0.835,1.538-2.725,2.93-4.746,4.263c-1.846,1.201-3.911,2.358-6.152,3.457C124.23,71.819,121.901,73.079,123.645,72.156
		L123.645,72.156z M121.418,74.294L121.418,74.294L121.418,74.294z M121.608,74.382L121.608,74.382L121.608,74.382z M122.238,74.514
		L122.238,74.514L122.238,74.514z M122.868,74.28c-0.029,0.015-0.059,0.015-0.088,0.029c-0.073,0.029-0.132,0.044-0.205,0.059
		c-0.044,0.015-0.088,0.015-0.132,0.029c-0.015,0-0.103,0.015-0.103,0c0,0-0.117,0-0.103,0c-0.044,0-0.146-0.015-0.161-0.015
		c-0.044-0.015-0.205-0.044-0.19-0.044c-0.029-0.015-0.117-0.059-0.117-0.059l-0.044-0.073c0-0.059,0.015-0.117,0.029-0.176
		c0.015,0,0.029,0,0.029,0c0.015,0,0.088,0,0.117-0.015c-0.029,0.073-0.044,0.132-0.044,0.205c0,0,0.015,0.029,0.029,0.044
		c0,0,0.044,0.029,0.073,0.044c0,0,0.073,0.029,0.117,0.029c-0.015,0,0.073,0.015,0.132,0.015c0,0,0.059,0,0.073,0
		c0,0,0.059,0,0.088,0c0.044,0,0.073-0.015,0.117-0.015c0.073-0.015,0.146-0.044,0.205-0.059s0.103-0.029,0.161-0.059
		C122.839,74.236,122.854,74.25,122.868,74.28L122.868,74.28z M121.74,74.031c0.278-0.938,2.08-1.758,3.472-2.461
		c0.615-0.308,1.216-0.63,1.846-0.938c0.586-0.293,3.413-1.934,1.523-0.806c-1.025,0.601-2.109,1.201-3.223,1.772
		c-1.318,0.688-3.062,1.479-3.442,2.373c-0.029,0.015-0.059,0.015-0.088,0.029C121.784,74.016,121.77,74.016,121.74,74.031
		L121.74,74.031z M121.843,74.221L121.843,74.221L121.843,74.221z M121.872,74.265L121.872,74.265L121.872,74.265z M121.945,74.309
		L121.945,74.309L121.945,74.309z M122.194,74.353L122.194,74.353L122.194,74.353z M122.268,74.353L122.268,74.353L122.268,74.353z
		 M128.142,70.691c-0.762,0.454-1.436,0.85-1.934,1.113c-0.469,0.249-0.938,0.498-1.362,0.747c0.439-0.293,0.894-0.571,1.274-0.776
		C126.779,71.423,127.468,71.057,128.142,70.691z M112.6,71.306c3.867-1.626,8.218-3.12,12.7-4.541
		c0.571-0.176,6.738-2.036,6.738-2.021c-5.435,1.626-10.679,3.325-15.601,5.127C115.163,70.325,113.845,70.808,112.6,71.306
		L112.6,71.306z M133.825,66.501c-1.67,1.362-3.779,2.651-6.035,3.882c0,0,4.072-2.446,5.449-3.486
		C133.43,66.75,133.664,66.633,133.825,66.501L133.825,66.501z M130.104,65.154c1.011-0.308,2.051-0.615,3.076-0.923
		c0.894-0.264,1.553-0.601,2.446-0.879c0.146-0.044,0.293-0.088,0.483-0.117c0.059-0.015,0.103-0.015,0.176-0.015
		c0.015,0,0.044,0,0.059,0s0.029,0.015,0.044,0.015s0.029,0.015,0.044,0.029s0.029,0.029,0.029,0.044
		c0.029,0.044,0.029,0.073,0.015,0.117c-0.015,0.146-0.088,0.278-0.176,0.41c-0.322,0.601-2.725,3.193-0.938,1.187
		c0.337-0.381,0.659-0.776,0.894-1.187c0.088-0.132,0.161-0.264,0.176-0.41c0-0.044,0-0.073-0.015-0.117
		c0-0.015-0.015-0.029-0.029-0.029s-0.015-0.015-0.029-0.015s-0.015,0-0.029-0.015c-0.015,0-0.029,0-0.044,0
		c-0.059,0-0.103,0-0.161,0.015c-0.044,0-0.088,0.015-0.132,0.029c-0.117,0.029-0.234,0.059-0.337,0.088
		c-0.879,0.264-1.538,0.615-2.432,0.879c-0.425,0.117-5.903,1.772-5.903,1.772C128.244,65.74,129.196,65.447,130.104,65.154
		L130.104,65.154z M136.638,63.997c0,0-0.85,1.157-1.392,1.685c-3.047,2.9,0.615-0.776,1.318-1.699
		C136.623,63.894,136.638,63.997,136.638,63.997z"/>
	<path fill="#B2B4B7" d="M127.058,71.072c-0.396,0.22-0.806,0.425-1.216,0.645c-0.439,0.234-0.938,0.469-1.406,0.732
		c0.073-0.044,0.132-0.073,0.19-0.117c0.366-0.22,0.747-0.425,1.143-0.63c1.846-0.967,3.618-1.948,5.273-2.974
		c1.113-0.688,0.542-0.278-0.059,0.117L127.058,71.072L127.058,71.072z M124.421,72.449c-0.396,0.22-0.762,0.439-1.084,0.659
		C123.674,72.874,124.069,72.654,124.421,72.449z M123.352,73.108c-0.381,0.278-0.674,0.571-0.806,0.864
		c0.103-0.029,0.19-0.073,0.293-0.103c0.732-0.264,1.436-0.542,2.153-0.806c1.406-0.527,2.739-1.084,4.365-1.538l1.348-0.469
		c-0.439,0.161-0.894,0.322-1.348,0.483c-1.611,0.454-2.944,1.025-4.336,1.553c-0.718,0.264-1.421,0.542-2.153,0.806
		c-0.117,0.044-0.234,0.088-0.352,0.132c-0.029,0.088-0.059,0.176-0.059,0.264c0,0,0-0.029-0.029-0.044c0,0-0.015-0.015-0.029-0.015
		c0.015-0.059,0.029-0.117,0.044-0.19c-0.088,0.029-0.161,0.059-0.249,0.088c-0.029,0.015-0.073,0.029-0.103,0.029
		c-0.015,0-0.029,0-0.029,0s-0.044,0-0.059,0s-0.029,0-0.015,0c0.059-0.015,0.117-0.029,0.161-0.059l0.161-0.059
		c0.044-0.015,0.103-0.029,0.146-0.044C122.604,73.694,122.941,73.386,123.352,73.108L123.352,73.108z M122.414,74.221
		c-0.015,0-0.029-0.015-0.029-0.015l0,0l0,0 M122.268,74.177c0,0-0.073-0.015-0.117-0.015c0,0-0.015,0-0.029,0
		s-0.044,0.015-0.073,0.015c-0.015,0-0.029,0,0,0h0.044h0.059c0.015,0,0.073,0.015,0.073,0.015c0.015,0,0.103,0.029,0.103,0.029
		c0.015,0,0.059,0.029,0.059,0.029l0.029,0.029c0-0.015,0-0.029,0-0.044 M122.136,74.163L122.136,74.163L122.136,74.163z"/>
	<path fill="#B2B4B7" d="M132.214,64.319c-2.798,0.85-5.596,1.699-8.32,2.563c-2.988,0.952-5.889,1.948-8.599,2.988
		c-0.469,0.176-2.944,1.201-1.143,0.498l5.464-1.992l8.291-2.681c1.67-0.513,3.34-1.025,5.039-1.538
		c0.176-0.044,0.337-0.103,0.483-0.161c-0.161,0.059-0.337,0.103-0.527,0.146C132.668,64.202,132.434,64.26,132.214,64.319
		L132.214,64.319z"/>
</g>
<polygon fill="#989B9F" points="26.66,82.512 123.34,82.512 123.34,84.475 26.66,84.475 "/>
</svg>
