<?xml version="1.0" encoding="utf-8"?>
<!-- Generator: Adobe Illustrator 16.0.0, SVG Export Plug-In . SVG Version: 6.00 Build 0)  -->
<!DOCTYPE svg PUBLIC "-//W3C//DTD SVG 1.1//EN" "http://www.w3.org/Graphics/SVG/1.1/DTD/svg11.dtd">
<svg version="1.1" xmlns="http://www.w3.org/2000/svg" xmlns:xlink="http://www.w3.org/1999/xlink" x="0px" y="0px" width="200px"
	 height="200px" viewBox="0 0 200 200" enable-background="new 0 0 200 200" xml:space="preserve">
<g id="Layer_1" display="none">
	<g display="inline">
		<circle fill="#AAAAAA" cx="99.629" cy="99.381" r="45.859"/>
		<path fill="#404041" d="M85.587,91.762c3.382,1.328,9.782,3.623,13.042,5.071c-0.905,5.133-3.777,16.562-6.521,18.839
			c-2.475,2.055-5.954,1.571-7.988,2.138c-1.876,0.522-3.841,7.695-3.864,8.781c-0.031,1.416,3.006,4.204,4.606,5.292
			c0.934,0.634,0.363,1.057,0.363,1.057l-16.061-6.642c0,0,0.009-0.525,0.966-0.544c2.074-0.041,6.653,0.171,7.396-0.242
			c1.086-0.604,3.713-7.606,3.472-9.055c-0.242-1.449-5.495-3.864-4.227-9.359C77.752,102.848,83.535,93.693,85.587,91.762z"/>
		<path fill="#F4F5F5" d="M82.026,103.175c0,0,5.675,2.054,11.955,1.571c0.242,0.663,0.242,11.955-10.084,9.66
			C75.445,109.878,82.026,103.175,82.026,103.175z"/>
		<path fill="#404041" d="M114.568,89.95c-3.381,1.328-9.781,3.623-13.041,5.071c0.904,5.133,3.777,16.562,6.521,18.84
			c2.475,2.054,5.953,1.57,7.988,2.137c1.875,0.522,3.84,7.695,3.863,8.781c0.029,1.417-3.007,4.205-4.607,5.292
			c-0.932,0.634-0.361,1.057-0.361,1.057l16.061-6.642c0,0-0.01-0.525-0.967-0.543c-2.074-0.042-6.653,0.17-7.396-0.243
			c-1.086-0.604-3.713-7.606-3.472-9.055s5.495-3.864,4.227-9.358C122.402,101.036,116.622,91.882,114.568,89.95z"/>
		<path fill="#F4F5F5" d="M118.13,101.363c0,0-5.676,2.055-11.955,1.571c-0.241,0.664-0.241,11.955,10.084,9.66
			C124.711,108.066,118.13,101.363,118.13,101.363z"/>
		<path fill="#6D6F72" stroke="#6D6E70" stroke-miterlimit="10" d="M94.462,92.049c0,0-0.135-1.736-7.649-6.809
			c6.879,3.125,8.374,3.804,8.917,3.261c0.544-0.544-1.689-10.687-1.689-10.687s2.233,7.063,4.588,7.97
			c2.355,0.905,4.891-5.615,4.891-5.615s-2.854,7.246-2.309,8.105c0.378,0.6,3.335,0.468,4.301,0.408
			c-0.619,0.165-7.336,3.698-6.883,5.978c-0.378-1.345-1.132-3.623-4.588-2.898"/>
		<path fill="#6D6E70" stroke="#6D6F72" stroke-miterlimit="10" d="M98.921,111.735c0,0-0.068,0.804-3.846,3.154
			c3.459-1.448,4.21-1.763,4.483-1.512c0.273,0.252-0.849,4.952-0.849,4.952s1.123-3.273,2.306-3.693s2.459,2.603,2.459,2.603
			s-1.434-3.358-1.16-3.757c0.189-0.277,1.676-0.215,2.162-0.188c-0.312-0.077-3.688-1.713-3.461-2.77
			c-0.189,0.624-0.568,1.679-2.306,1.343"/>
		<polygon fill="#404041" points="127.624,93.796 99.623,68.485 71.635,93.795 66.939,88.604 99.622,59.048 132.318,88.603 		"/>
	</g>
</g>
<g id="Layer_2" display="none">
	<g display="inline">
		<circle fill="#AAAAAA" cx="99.379" cy="99.629" r="45.859"/>
		<g>
			<polygon fill="#404041" points="127.503,98.259 99.502,72.948 71.514,98.258 66.818,93.066 99.501,63.511 132.197,93.065 			"/>
			<rect x="77.651" y="107.075" fill="#404041" width="43.713" height="14.006"/>
			<g>
				<rect x="80.938" y="120.038" fill="#404041" width="5.927" height="5.771"/>
				<rect x="112.15" y="120.038" fill="#404041" width="5.927" height="5.771"/>
			</g>
			<g>
				<path fill="#404041" d="M112.302,97.152l2.325,7.153H84.389l2.325-7.153H112.302 M115.208,93.152h-31.4l-4.925,15.153h41.25
					L115.208,93.152L115.208,93.152z"/>
			</g>
			<g>
				<circle fill="#F4F5F5" cx="85.077" cy="114.078" r="2.902"/>
				<circle fill="#F4F5F5" cx="113.94" cy="114.078" r="2.902"/>
			</g>
		</g>
	</g>
</g>
<g id="Layer_3" display="none">
	<g display="inline">
		<circle fill="#AAAAAA" cx="100.129" cy="99.629" r="45.859"/>
		<g>
			<g>
				<path fill="none" stroke="#404041" stroke-width="10" stroke-miterlimit="10" d="M68.521,111.414l3.755,3.755
					c1.944,1.944,5.126,1.944,7.071,0l2.801-2.802c1.945-1.944,5.126-1.944,7.071,0l2.801,2.802c1.945,1.944,5.126,1.944,7.071,0
					l2.801-2.802c1.944-1.944,5.126-1.944,7.07,0l2.802,2.802c1.944,1.944,5.126,1.944,7.07,0l2.802-2.802
					c1.944-1.944,5.126-1.944,7.07,0.001l5.121,5.121"/>
			</g>
			<rect x="81.871" y="83.053" fill="#404041" width="4.713" height="19.799"/>
			<rect x="100.162" y="83.053" fill="#404041" width="4.713" height="19.799"/>
			<rect x="85.299" y="95.309" fill="#404041" width="16.557" height="4.713"/>
			<rect x="85.299" y="86.583" fill="#404041" width="16.557" height="4.713"/>
		</g>
	</g>
</g>
<g id="Layer_4" display="none">
	<g display="inline">
		<circle fill="#AAAAAA" cx="99.879" cy="99.629" r="45.859"/>
		<g>
			<g>
				<path fill="#404041" d="M125.709,93.636c-0.509,0-0.921,0.521-0.921,1.16c0,1.776,0,5.151,0,6.926
					c0,0.641,0.412,1.159,0.922,1.159c0.509,0,0.92-0.519,0.92-1.159c0-1.773,0-5.148,0-6.927
					C126.63,94.156,126.218,93.636,125.709,93.636z"/>
				<path fill="#404041" d="M74.002,93.636c-0.509,0-0.923,0.521-0.923,1.16c0,1.778,0,5.148,0.002,6.924
					c0,0.641,0.412,1.159,0.921,1.161c0.509,0,0.921-0.519,0.921-1.159c0-1.774,0-5.148,0.001-6.927
					C74.924,94.156,74.511,93.636,74.002,93.636z"/>
				<path fill="#404041" d="M85.349,83.137c-1.697,0-3.075,1.557-3.075,3.478c0,5.82,0.001,17.471,0.002,23.289
					c0,1.92,1.376,3.478,3.073,3.478c1.698,0,3.075-1.559,3.075-3.478c0-2.283,0-5.467,0-8.84c1.772,0,17.64,0,22.369,0
					c0,3.374,0,6.557,0,8.841c0,1.919,1.377,3.477,3.075,3.477s3.073-1.559,3.073-3.478c0-5.821,0-17.471,0-23.289
					c0-1.922-1.376-3.478-3.073-3.478c-1.698,0-3.075,1.555-3.075,3.478c0,2.282,0,5.465,0,8.839c-4.731,0-20.597,0-22.369,0
					c0-3.374,0-6.557,0-8.84C88.424,84.691,87.048,83.137,85.349,83.137z"/>
				<path fill="#404041" d="M121.014,87.781c-0.101,0-0.199,0-0.301,0c-1.279,0-2.317,1.035-2.317,2.316c0,4.032,0,12.29,0,16.321
					c0,1.28,1.038,2.318,2.318,2.318c0.101,0,0.201,0,0.301,0c1.28,0,2.318-1.035,2.318-2.316c0-4.03,0-12.289-0.001-16.321
					C123.333,88.818,122.294,87.781,121.014,87.781z"/>
				<path fill="#404041" d="M78.661,87.781c-0.101,0-0.202,0-0.303,0c-1.28,0-2.317,1.035-2.317,2.316c0,4.032,0,12.29,0,16.321
					c0,1.281,1.037,2.318,2.317,2.318c0.101,0,0.202,0,0.301,0c1.28,0,2.318-1.035,2.318-2.316c0-4.03,0-12.289,0-16.321
					C80.979,88.818,79.94,87.781,78.661,87.781z"/>
			</g>
		</g>
	</g>
</g>
<g id="Layer_5" display="none">
	<g display="inline">
		<circle fill="#AAAAAA" cx="99.629" cy="99.629" r="45.859"/>
		<g>
			<path fill="#404041" d="M82.29,111.467c-0.468,1.305,0.212,2.74,1.515,3.207c0.279,0.1,0.564,0.146,0.846,0.146
				c1.028,0,1.995-0.638,2.361-1.661l4.865-13.597c-1.583-0.645-3.072-1.477-4.44-2.478L82.29,111.467z"/>
			<path fill="#404041" d="M111.911,97.086c-1.369,1-2.858,1.832-4.44,2.477l4.865,13.597c0.365,1.023,1.332,1.661,2.361,1.661
				c0.28,0,0.565-0.047,0.845-0.146c1.304-0.467,1.982-1.902,1.515-3.207L111.911,97.086z"/>
			<path fill="#404041" d="M99.676,73.185c-9.605,0-19.329,2.87-19.329,8.357c0,1.833,1.102,3.366,2.904,4.606
				c1.077,3.044,2.947,5.677,5.359,7.658c1.318,1.082,2.801,1.958,4.391,2.616c1.318,0.548,2.72,0.923,4.167,1.137v23.271
				c0,1.385,1.123,2.508,2.508,2.508c1.384,0,2.507-1.123,2.507-2.508V97.559c1.446-0.214,2.846-0.589,4.164-1.136
				c1.589-0.66,3.072-1.535,4.391-2.616c2.413-1.98,4.282-4.613,5.36-7.659c1.803-1.239,2.904-2.773,2.904-4.606
				C119.002,76.055,109.28,73.185,99.676,73.185z M83.69,81.542c0-0.984,1.458-2.183,4.049-3.161l-3.463,4.321
				C83.897,82.301,83.69,81.906,83.69,81.542z M90.38,85.521c-1.614-0.399-2.961-0.887-4.02-1.407l5.504-6.875
				c1.677-0.327,3.579-0.561,5.675-0.657L90.38,85.521z M97.936,86.524c-1.729-0.065-3.33-0.224-4.788-0.451l7.629-9.524
				c1.742,0.041,3.361,0.175,4.842,0.382L97.936,86.524z M101.143,86.529l7.279-9.088c1.613,0.367,2.992,0.818,4.097,1.311
				l-5.79,7.23C105.058,86.269,103.189,86.465,101.143,86.529z M110.71,85.02l3.988-4.979c0.62,0.518,0.96,1.034,0.96,1.501
				C115.658,82.637,113.862,83.992,110.71,85.02z"/>
		</g>
	</g>
</g>
<g id="Layer_6">
	<g>
		<circle fill="#AAAAAA" cx="99.363" cy="99.629" r="90"/>
		<path fill="#404041" d="M150.862,114.662c0.361,0.491,0.446,1.075,0.237,1.761c-0.155,0.601-0.56,1.007-1.203,1.218l-17.737,5.826
			v18.579c0,0.64-0.267,1.173-0.796,1.577c-0.602,0.405-1.188,0.488-1.762,0.239l-17.724-5.704l-10.93,15.068
			c-0.419,0.518-0.937,0.782-1.592,0.782c-0.641,0-1.175-0.265-1.568-0.782L86.86,138.158l-17.738,5.704
			c-0.573,0.249-1.159,0.166-1.763-0.239c-0.516-0.404-0.794-0.938-0.794-1.577v-18.579l-17.724-5.826
			c-0.644-0.211-1.062-0.617-1.217-1.218c-0.208-0.686-0.126-1.27,0.238-1.761l10.932-15.067L47.862,84.542
			c-0.364-0.532-0.446-1.118-0.238-1.762c0.155-0.615,0.573-1.005,1.217-1.216l17.724-5.829v-18.59c0-0.643,0.278-1.173,0.794-1.565
			c0.604-0.419,1.19-0.503,1.763-0.251l17.738,5.704l10.928-15.054c0.366-0.489,0.896-0.728,1.568-0.728
			c0.699,0,1.228,0.239,1.592,0.728l10.93,15.054l17.724-5.704c0.573-0.252,1.16-0.168,1.762,0.251
			c0.529,0.392,0.796,0.923,0.796,1.565v18.59l17.737,5.829c0.644,0.21,1.048,0.601,1.203,1.216c0.209,0.644,0.124,1.23-0.237,1.762
			l-10.931,15.053L150.862,114.662L150.862,114.662z M131.586,113.168c1.846-4.306,2.77-8.836,2.77-13.573
			c0-4.738-0.924-9.254-2.77-13.571c-1.844-4.305-4.331-8.023-7.479-11.168c-3.144-3.145-6.861-5.633-11.166-7.478
			c-4.306-1.832-8.835-2.755-13.585-2.755c-4.725,0-9.255,0.923-13.558,2.755c-4.322,1.845-8.052,4.333-11.181,7.478
			C71.486,78,68.998,81.718,67.15,86.023c-1.844,4.317-2.766,8.833-2.766,13.571c0,4.737,0.922,9.268,2.766,13.573
			c1.848,4.316,4.335,8.051,7.467,11.18c3.129,3.132,6.859,5.62,11.181,7.463c4.302,1.848,8.833,2.768,13.558,2.768
			c4.75,0,9.28-0.92,13.585-2.768c4.305-1.843,8.022-4.331,11.166-7.463C127.255,121.219,129.742,117.484,131.586,113.168z"/>
	</g>
</g>
</svg>
