<?xml version="1.0" encoding="utf-8"?>
<!-- Generator: Adobe Illustrator 16.0.0, SVG Export Plug-In . SVG Version: 6.00 Build 0)  -->
<!DOCTYPE svg PUBLIC "-//W3C//DTD SVG 1.1//EN" "http://www.w3.org/Graphics/SVG/1.1/DTD/svg11.dtd">
<svg version="1.1" xmlns="http://www.w3.org/2000/svg" xmlns:xlink="http://www.w3.org/1999/xlink" x="0px" y="0px" width="200px"
	 height="200px" viewBox="0 0 200 200" enable-background="new 0 0 200 200" xml:space="preserve">
<g id="Layer_1">
	<g>
		<circle fill="#AAAAAA" cx="99.629" cy="99.381" r="90"/>
		<path fill="#404041" d="M72.071,84.428c6.637,2.606,19.197,7.11,25.595,9.953c-1.776,10.073-7.412,32.502-12.798,36.972
			c-4.857,4.032-11.685,3.083-15.676,4.195c-3.683,1.025-7.538,15.102-7.583,17.233c-0.061,2.778,5.9,8.25,9.039,10.386
			c1.833,1.243,0.712,2.073,0.712,2.073l-31.521-13.034c0,0,0.019-1.031,1.896-1.067c4.07-0.081,13.057,0.335,14.516-0.476
			c2.132-1.185,7.288-14.928,6.813-17.77c-0.474-2.845-10.783-7.584-8.295-18.368C56.696,106.185,68.043,88.219,72.071,84.428z"/>
		<path fill="#F4F5F5" d="M65.083,106.826c0,0,11.138,4.031,23.461,3.084c0.474,1.302,0.474,23.462-19.791,18.958
			C52.167,119.981,65.083,106.826,65.083,106.826z"/>
		<path fill="#404041" d="M128.948,80.873c-6.636,2.606-19.196,7.11-25.594,9.953c1.774,10.073,7.413,32.502,12.799,36.973
			c4.856,4.03,11.683,3.082,15.677,4.193c3.68,1.025,7.536,15.103,7.582,17.233c0.058,2.781-5.901,8.253-9.042,10.386
			c-1.828,1.244-0.709,2.074-0.709,2.074l31.519-13.035c0,0-0.019-1.03-1.897-1.065c-4.07-0.082-13.057,0.334-14.516-0.477
			c-2.131-1.185-7.286-14.928-6.812-17.771c0.473-2.842,10.784-7.584,8.294-18.366C144.322,102.629,132.979,84.664,128.948,80.873z"
			/>
		<path fill="#F4F5F5" d="M135.938,103.271c0,0-11.139,4.032-23.462,3.084c-0.474,1.303-0.474,23.462,19.79,18.958
			C148.853,116.427,135.938,103.271,135.938,103.271z"/>
		<path fill="#6D6F72" stroke="#6D6E70" stroke-miterlimit="10" d="M89.49,84.992c0,0-0.266-3.408-15.011-13.362
			c13.501,6.133,16.434,7.465,17.5,6.399c1.067-1.067-3.315-20.973-3.315-20.973s4.383,13.862,9.004,15.641
			c4.623,1.776,9.598-11.02,9.598-11.02s-5.601,14.22-4.531,15.907c0.742,1.177,6.545,0.918,8.44,0.801
			c-1.215,0.324-14.396,7.258-13.507,11.731c-0.742-2.639-2.221-7.11-9.004-5.688"/>
		<path fill="#6D6E70" stroke="#6D6F72" stroke-miterlimit="10" d="M98.24,123.627c0,0-0.134,1.577-7.548,6.19
			c6.789-2.843,8.263-3.46,8.798-2.967c0.537,0.494-1.666,9.719-1.666,9.719s2.203-6.425,4.526-7.248
			c2.322-0.824,4.825,5.107,4.825,5.107s-2.813-6.591-2.276-7.373c0.372-0.545,3.289-0.422,4.243-0.37
			c-0.611-0.151-7.238-3.361-6.792-5.436c-0.372,1.225-1.115,3.295-4.526,2.636"/>
		<polygon fill="#404041" points="154.57,88.42 99.617,38.748 44.69,88.418 35.475,78.23 99.616,20.227 163.782,78.228 		"/>
	</g>
</g>
<g id="Layer_2" display="none">
	<g display="inline">
		<circle fill="#AAAAAA" cx="99.379" cy="99.629" r="90"/>
		<g>
			<polygon fill="#404041" points="154.573,96.94 99.621,47.268 44.693,96.938 35.478,86.75 99.619,28.746 163.785,86.748 			"/>
			<rect x="56.738" y="114.242" fill="#404041" width="85.787" height="27.487"/>
			<g>
				<rect x="63.189" y="139.683" fill="#404041" width="11.631" height="11.326"/>
				<rect x="124.443" y="139.683" fill="#404041" width="11.631" height="11.326"/>
			</g>
			<g>
				<path fill="#404041" d="M127.538,90.918l7.065,21.739H64.661l7.065-21.739H127.538 M130.444,86.918H68.82l-9.665,29.739h80.955
					L130.444,86.918L130.444,86.918z"/>
			</g>
			<g>
				<circle fill="#F4F5F5" cx="71.311" cy="127.985" r="5.695"/>
				<circle fill="#F4F5F5" cx="127.956" cy="127.985" r="5.695"/>
			</g>
		</g>
	</g>
</g>
<g id="Layer_3" display="none">
	<g display="inline">
		<circle fill="#AAAAAA" cx="100.129" cy="99.629" r="90"/>
		<g>
			<g>
				<path fill="none" stroke="#404041" stroke-width="10" stroke-miterlimit="10" d="M38.097,122.758l10.773,10.771
					c1.944,1.944,5.126,1.944,7.071,0l12.303-12.304c1.945-1.944,5.126-1.944,7.071,0l12.303,12.304
					c1.945,1.944,5.126,1.944,7.071,0l12.304-12.304c1.944-1.944,5.126-1.944,7.07,0l12.304,12.304c1.944,1.944,5.126,1.944,7.07,0
					l12.304-12.304c1.944-1.944,5.126-1.944,7.07,0.001l13.453,13.454"/>
			</g>
			<rect x="64.297" y="67.098" fill="#404041" width="9.25" height="38.855"/>
			<rect x="100.194" y="67.098" fill="#404041" width="9.25" height="38.855"/>
			<rect x="71.024" y="91.15" fill="#404041" width="32.493" height="9.249"/>
			<rect x="71.024" y="74.026" fill="#404041" width="32.493" height="9.25"/>
		</g>
	</g>
</g>
<g id="Layer_4" display="none">
	<g display="inline">
		<circle fill="#AAAAAA" cx="99.879" cy="99.629" r="90"/>
		<g>
			<g>
				<path fill="#404041" d="M150.571,87.867c-0.999,0-1.808,1.021-1.808,2.277c0,3.486,0,10.11,0,13.592
					c0,1.257,0.809,2.274,1.81,2.274c0.998,0,1.805-1.018,1.805-2.274c0-3.48,0-10.104,0-13.594
					C152.378,88.889,151.569,87.867,150.571,87.867z"/>
				<path fill="#404041" d="M49.095,87.867c-0.999,0-1.811,1.021-1.811,2.277c0,3.49,0,10.104,0.004,13.588
					c0,1.257,0.809,2.274,1.807,2.278c0.999,0,1.808-1.018,1.808-2.274c0-3.482,0-10.104,0.001-13.594
					C50.904,88.889,50.093,87.867,49.095,87.867z"/>
				<path fill="#404041" d="M71.363,67.263c-3.331,0-6.035,3.055-6.035,6.825c0,11.422,0.002,34.287,0.004,45.706
					c0,3.768,2.701,6.824,6.031,6.824c3.333,0,6.035-3.059,6.035-6.824c0-4.481,0-10.729,0-17.349c3.479,0,34.619,0,43.9,0
					c0,6.621,0,12.867,0,17.351c0,3.766,2.702,6.822,6.035,6.822s6.031-3.059,6.031-6.824c0-11.425,0-34.287,0-45.706
					c0-3.772-2.7-6.825-6.031-6.825c-3.333,0-6.035,3.051-6.035,6.825c0,4.479,0,10.725,0,17.347c-9.285,0-40.421,0-43.9,0
					c0-6.622,0-12.868,0-17.349C77.398,70.314,74.698,67.263,71.363,67.263z"/>
				<path fill="#404041" d="M141.356,76.377c-0.197,0-0.391,0-0.591,0c-2.51,0-4.548,2.032-4.548,4.546c0,7.913,0,24.119,0,32.03
					c0,2.513,2.038,4.55,4.55,4.55c0.198,0,0.396,0,0.591,0c2.513,0,4.55-2.031,4.55-4.546c0-7.909,0-24.117-0.002-32.031
					C145.908,78.413,143.869,76.377,141.356,76.377z"/>
				<path fill="#404041" d="M58.239,76.377c-0.198,0-0.397,0-0.594,0c-2.513,0-4.548,2.032-4.548,4.546c0,7.913,0,24.119,0,32.03
					c0,2.515,2.035,4.55,4.548,4.55c0.197,0,0.396,0,0.59,0c2.512,0,4.55-2.031,4.55-4.546c0-7.909,0-24.117,0-32.031
					C62.787,78.413,60.749,76.377,58.239,76.377z"/>
			</g>
		</g>
	</g>
</g>
<g id="Layer_5" display="none">
	<g display="inline">
		<circle fill="#AAAAAA" cx="99.629" cy="99.629" r="90"/>
		<g>
			<path fill="#404041" d="M65.601,122.861c-0.918,2.561,0.416,5.378,2.973,6.294c0.548,0.195,1.107,0.287,1.66,0.287
				c2.018,0,3.916-1.252,4.634-3.26l9.548-26.684c-3.106-1.266-6.029-2.899-8.714-4.862L65.601,122.861z"/>
			<path fill="#404041" d="M123.733,94.638c-2.688,1.961-5.61,3.595-8.715,4.86l9.548,26.684c0.717,2.008,2.614,3.26,4.635,3.26
				c0.55,0,1.109-0.092,1.657-0.287c2.559-0.916,3.891-3.733,2.973-6.294L123.733,94.638z"/>
			<path fill="#404041" d="M99.721,47.731c-18.851,0-37.934,5.632-37.934,16.4c0,3.599,2.162,6.606,5.7,9.041
				c2.114,5.975,5.784,11.142,10.518,15.028c2.587,2.123,5.497,3.842,8.617,5.134c2.587,1.075,5.337,1.811,8.178,2.232v45.669
				c0,2.718,2.204,4.922,4.921,4.922c2.716,0,4.92-2.204,4.92-4.922V95.567c2.838-0.421,5.585-1.157,8.172-2.23
				c3.118-1.294,6.029-3.012,8.617-5.134c4.735-3.887,8.403-9.054,10.52-15.03c3.538-2.432,5.699-5.442,5.699-9.041
				C137.648,53.364,118.57,47.731,99.721,47.731z M68.349,64.132c0-1.932,2.861-4.283,7.946-6.204l-6.796,8.479
				C68.756,65.622,68.349,64.847,68.349,64.132z M81.478,71.942c-3.168-0.784-5.811-1.741-7.889-2.761l10.802-13.492
				c3.291-0.642,7.024-1.1,11.137-1.29L81.478,71.942z M96.306,73.911c-3.394-0.127-6.535-0.44-9.396-0.886l14.972-18.691
				c3.419,0.08,6.597,0.344,9.502,0.75L96.306,73.911z M102.6,73.92l14.286-17.836c3.166,0.721,5.872,1.606,8.039,2.572
				l-11.362,14.19C110.283,73.41,106.616,73.795,102.6,73.92z M121.376,70.958l7.827-9.772c1.217,1.017,1.884,2.029,1.884,2.946
				C131.087,66.281,127.562,68.941,121.376,70.958z"/>
		</g>
	</g>
</g>
<g id="Layer_6" display="none">
	<g display="inline">
		<circle fill="#AAAAAA" cx="99.363" cy="99.629" r="90"/>
		<path fill="#404041" d="M150.862,114.662c0.361,0.491,0.446,1.075,0.237,1.761c-0.155,0.601-0.56,1.007-1.203,1.218l-17.737,5.826
			v18.579c0,0.64-0.267,1.173-0.796,1.577c-0.602,0.405-1.188,0.488-1.762,0.239l-17.724-5.704l-10.93,15.068
			c-0.419,0.518-0.937,0.782-1.592,0.782c-0.641,0-1.175-0.265-1.568-0.782L86.86,138.158l-17.738,5.704
			c-0.573,0.249-1.159,0.166-1.763-0.239c-0.516-0.404-0.794-0.938-0.794-1.577v-18.579l-17.724-5.826
			c-0.644-0.211-1.062-0.617-1.217-1.218c-0.208-0.686-0.126-1.27,0.238-1.761l10.932-15.067L47.862,84.542
			c-0.364-0.532-0.446-1.118-0.238-1.762c0.155-0.615,0.573-1.005,1.217-1.216l17.724-5.829v-18.59c0-0.643,0.278-1.173,0.794-1.565
			c0.604-0.419,1.19-0.503,1.763-0.251l17.738,5.704l10.928-15.054c0.366-0.489,0.896-0.728,1.568-0.728
			c0.699,0,1.228,0.239,1.592,0.728l10.93,15.054l17.724-5.704c0.573-0.252,1.16-0.168,1.762,0.251
			c0.529,0.392,0.796,0.923,0.796,1.565v18.59l17.737,5.829c0.644,0.21,1.048,0.601,1.203,1.216c0.209,0.644,0.124,1.23-0.237,1.762
			l-10.931,15.053L150.862,114.662L150.862,114.662z M131.586,113.168c1.846-4.306,2.77-8.836,2.77-13.573
			c0-4.738-0.924-9.254-2.77-13.571c-1.844-4.305-4.331-8.023-7.479-11.168c-3.144-3.145-6.861-5.633-11.166-7.478
			c-4.306-1.832-8.835-2.755-13.585-2.755c-4.725,0-9.255,0.923-13.558,2.755c-4.322,1.845-8.052,4.333-11.181,7.478
			C71.486,78,68.998,81.718,67.15,86.023c-1.844,4.317-2.766,8.833-2.766,13.571c0,4.737,0.922,9.268,2.766,13.573
			c1.848,4.316,4.335,8.051,7.467,11.18c3.129,3.132,6.859,5.62,11.181,7.463c4.302,1.848,8.833,2.768,13.558,2.768
			c4.75,0,9.28-0.92,13.585-2.768c4.305-1.843,8.022-4.331,11.166-7.463C127.255,121.219,129.742,117.484,131.586,113.168z"/>
	</g>
</g>
</svg>
